<svg xmlns="http://www.w3.org/2000/svg" version="1.1" xmlns:xlink="http://www.w3.org/1999/xlink" xmlns:svgjs="http://svgjs.dev/svgjs" viewBox="0 0 800 800"><defs><linearGradient x1="50%" y1="0%" x2="50%" y2="100%" id="uundulate-grad"><stop stop-color="hsl(0, 0%, 80%)" stop-opacity="1" offset="45%"></stop><stop stop-color="hsl(0, 0%, 80%)" stop-opacity="1" offset="100%"></stop></linearGradient></defs><g stroke-width="2" stroke="url(#uundulate-grad)" fill="none"><path d="M2595.9481071910495 -1841.15901004326C2887.157586612703 -1153.9158043994416 1785.622096235552 1358.4593108808322 1151.0735489577287 2286.0421595020025C516.5250016799059 3213.625008123173 141.04140754111995 2766.1616124270313 -449.8849197424986 2611.238663338353C-1040.8112470261171 2456.3157142496757 -1447.0286965316882 2104.8950012053756 -1685.372822003642 1542.4120038763467C-1923.716947475596 979.9290065473174 -1893.653569869849 443.6405327141497 -1593.936722007884 -88.67972384098994C-1294.2198741459192 -620.9999803961298 -1119.6246250159938 -647.6253762961794 -246.7319522662167 -1012.7252275883202C626.1607204835605 -1377.8250788804608 2304.738627769396 -2528.402215687078 2595.9481071910495 -1841.15901004326C2887.157586612703 -1153.9158043994416 1785.622096235552 1358.4593108808322 1151.0735489577287 2286.0421595020025 "></path><path d="M2552.890292790321 -1797.2147288931315C2838.3897824193928 -1123.4468802227216 1758.4530271476765 1339.6659778951948 1136.3466082478503 2249.060927523793C514.2401893480237 3158.4558771523907 146.1190186237236 2719.766273528723 -433.2205179288435 2567.8810293241368C-1012.560054481411 2415.9957851195504 -1410.8124559574608 2071.465674291805 -1644.4831672044745 1520.0117553417772C-1878.1538784514883 968.5578363917484 -1848.6799788380108 442.7848228298194 -1554.8399319145158 -79.09778163600413C-1260.9998849910207 -600.9803861018274 -1089.8280721185447 -627.0837154156015 -234.05094197170456 -985.024746094171C621.7261881751356 -1342.9657767727404 2267.390803161248 -2470.9825775635413 2552.890292790321 -1797.2147288931315C2838.3897824193928 -1123.4468802227216 1758.4530271476765 1339.6659778951948 1136.3466082478503 2249.060927523793 "></path><path d="M2509.8327225302173 -1753.2707529187846C2789.622222366709 -1092.9782612217828 1731.284202200426 1320.8723397337753 1121.619911678596 2212.0793903698013C511.9556211567665 3103.2864410058273 151.19687384695226 2673.3706294546328 -416.5558719745636 2524.5230901341374C-984.3086177960795 2375.675550813643 -1374.5959712426084 2038.0360422024542 -1603.593268264682 1497.611201631426C-1832.5905652867555 957.1863610603973 -1803.7061436655474 441.92880776970696 -1515.7428976805222 -69.51614460679957C-1227.7796516954973 -580.9610969833068 -1060.0312750804708 -606.5423597108054 -221.36968753656743 -957.3245697758032C617.2919000073362 -1308.1067798408012 2230.0432226937264 -2413.563244615786 2509.8327225302173 -1753.2707529187846C2789.622222366709 -1092.9782612217828 1731.284202200426 1320.8723397337753 1121.619911678596 2212.0793903698013 "></path><path d="M2466.7746639888646 -1709.3261055577188C2740.8541740327737 -1062.5089708341252 1704.1148889719257 1302.0793729590741 1106.8927268280922 2175.0985246025284C509.6705646842588 3048.117676245982 156.2742407889309 2626.975656767261 -399.8917143015335 2481.1658223308586C-956.0576693919984 2335.355987894455 -1338.379974809006 2004.6070814998202 -1562.703857606139 1475.211319307793C-1787.0277404032724 945.8155571157658 -1758.732796774334 441.0734640963142 -1476.646351727779 -59.93383619087672C-1194.5599066812238 -560.9411364780669 -1030.2349663236466 -586.0003326192902 -208.68892138268006 -929.6237220707169C612.8571235582867 -1273.2471115221433 2192.6951539449547 -2356.143240281312 2466.7746639888646 -1709.3261055577188C2740.8541740327737 -1062.5089708341252 1704.1148889719257 1302.0793729590741 1106.8927268280922 2175.0985246025284 "></path><path d="M2423.717093728761 -1665.381946477903C2692.086613980089 -1032.0401687277176 1676.9460640246753 1283.2859179031238 1092.1660302588384 2138.1171705540055C507.3859964930016 2992.948423204889 161.35209601215956 2580.5801957986405 -383.22706834725363 2437.808066246329C-927.8062327066668 2295.0359366940183 -1302.1634900941538 1971.177632515938 -1521.8139586663465 1452.810948702911C-1741.4644272385394 934.4442648898844 -1713.7589616018709 440.21763214167095 -1437.5493174937856 -50.352016056202956C-1161.3396733857 -540.9216642540771 -1000.4381692855727 -565.4587938090249 -196.00766694754293 -901.9233626468802C608.4228353904869 -1238.3879314847354 2155.347573477433 -2298.7237242280885 2423.717093728761 -1665.381946477903C2692.086613980089 -1032.0401687277176 1676.9460640246753 1283.2859179031238 1092.1660302588384 2138.1171705540055 "></path><path d="M2380.6590657049865 -1621.4375432574623C2643.318596163732 -1001.5711224806851 1649.776781313753 1264.4927069877976 1077.4388759259127 2101.1360606461076C505.10097053807203 2937.7794143044184 166.42949347171634 2534.184978970644 -366.56288015664563 2394.4505543024243C-899.5552537850074 2254.7161296342056 -1265.9474631429732 1937.74842767268 -1480.9245174902258 1430.410822238654C-1695.9015718374785 923.073216804627 -1668.7855841930793 439.36204432765226 -1398.452741023464 -40.7699517809051C-1128.1198978538484 -520.9019478894627 -970.6418300111706 -544.9170108581347 -183.32687027607767 -874.2227590824186C603.9880894590151 -1203.5285073067025 2117.9995352462392 -2241.3039640342395 2380.6590657049865 -1621.4375432574623C2643.318596163732 -1001.5711224806851 1649.776781313753 1264.4927069877976 1077.4388759259127 2101.1360606461076 "></path><path d="M2337.6012207866797 -1577.4932010721777C2594.550761452845 -971.102137268809 1622.6076817082994 1245.6994350373157 1062.7119046984558 2064.1548897030534C502.8161276886117 2882.6103443687925 171.50707403674187 2487.789701107492 -349.89850886056865 2351.0929813233633C-871.3040917578792 2214.3962615392356 -1229.7312530863242 1904.3191617942657 -1440.0348932086363 1408.0106347392398C-1650.3385333309488 911.7021076842138 -1623.812023678819 438.50639547847777 -1359.3559814476735 -31.187948540763045C-1094.899939216528 -500.8822925600041 -940.8453076312996 -524.3752889424011 -170.64589049914366 -846.5222165531134C599.5535266330126 -1168.6691441638259 2080.651680120515 -2183.8842648755467 2337.6012207866797 -1577.4932010721777C2594.550761452845 -971.102137268809 1622.6076817082994 1245.6994350373157 1062.7119046984558 2064.1548897030534 "></path><path d="M2294.543406385952 -1533.5490419923622C2545.7829572595347 -940.6333351624014 1595.438612620424 1226.905979981365 1047.984963988577 2027.1735356545314C500.53131535672946 2827.441091327697 176.58468511934552 2441.3942401388695 -333.2341070469138 2307.7352252388337C-843.0528992131729 2174.076210338797 -1193.5150125120967 1870.8897128103827 -1399.1452384094687 1385.6102641343573C-1604.7754643068408 900.3308154583319 -1578.8384326469807 437.65056352383453 -1320.2591913543051 -21.606128406089738C-1061.6799500616294 -480.8628203360147 -911.0487547338506 -503.83375013213595 -157.9648802046313 -818.8218571292769C595.1189943245881 -1133.809964126418 2043.3038555123676 -2126.4647488223227 2294.543406385952 -1533.5490419923622C2545.7829572595347 -940.6333351624014 1595.438612620424 1226.905979981365 1047.984963988577 2027.1735356545314 "></path><path d="M2251.4856530203797 -1489.6046387719211C2497.0152141013814 -910.1642889153686 1568.2696045677048 1208.1127690660396 1033.258084313854 1990.192425746634C498.2465640600035 2772.2720824272283 181.66235723710543 2394.999023310874 -316.5696441981024 2264.377713294929C-814.8016456333103 2133.756403278985 -1157.298710902713 1837.4605079671246 -1358.2555225751448 1363.2101376701003C-1559.2123342475768 888.9597673730755 -1533.864780579986 436.79497570981675 -1281.1623402257806 -12.02406413079143C-1028.4598998715746 -460.84310397139984 -881.2521408012453 -483.2919671812456 -145.2838088749627 -791.1212535648151C590.6845230513195 -1098.9505399483849 2005.956091939377 -2069.0449886284737 2251.4856530203797 -1489.6046387719211C2497.0152141013814 -910.1642889153686 1568.2696045677048 1208.1127690660396 1033.258084313854 1990.192425746634 "></path><path d="M2208.4279606899636 -1445.6604186569493C2448.2475319783844 -879.695425773805 1541.100657550142 1189.3193750452447 1018.5312656742881 1953.2111327332673C495.96187379843377 2717.10289042129 186.7400903900218 2348.6036233774084 -299.90512031413505 2221.0200182455555C-786.5503310182914 2093.4364131137036 -1121.0823482581732 1804.0311200183983 -1317.3657457056647 1340.809828100374C-1513.6491431531563 877.5885361823498 -1488.8910674778353 435.9392047903293 -1242.0654280620995 -2.4421829609623273C-995.2397886463636 -440.82357071225374 -851.4554658334838 -462.7503673358242 -132.60267651013805 -763.4208331058226C586.2501128132076 -1064.0912988758207 1968.6083894015428 -2011.6254115400934 2208.4279606899636 -1445.6604186569493C2448.2475319783844 -879.695425773805 1541.100657550142 1189.3193750452447 1018.5312656742881 1953.2111327332673 "></path><path d="M2165.370115771657 -1401.7161985419773C2399.4796972674967 -849.2265626322412 1513.9315579446884 1170.5259810244502 1003.8042944468307 1916.2298397199002C493.67703094897297 2661.9336984153506 191.8176709550471 2302.208223443943 -283.24074901805807 2177.662323196182C-758.2991689911631 2053.1164229484216 -1084.866138201524 1770.6017320696715 -1276.4761214240752 1318.4095185306478C-1468.0861046466266 866.2173049916241 -1443.917506963575 435.0834338708423 -1202.968668486309 7.139698208867003C-962.0198300090433 -420.8040374531081 -821.658943453613 -442.2087674904028 -119.92169673320404 -735.7204126468298C581.8155499872046 -1029.2320578032566 1931.2605342758175 -1954.2058344517134 2165.370115771657 -1401.7161985419773C2399.4796972674967 -849.2265626322412 1513.9315579446884 1170.5259810244502 1003.8042944468307 1916.2298397199002 "></path><path d="M2122.312331888507 -1357.7715511809115C2350.711923591765 -818.7572722445836 1486.762519374391 1151.7330142497494 989.07738425453 1879.2489739526281C491.3922491346689 2606.764933655507 196.89531255522888 2255.8132507565724 -266.57631668682484 2134.305055392903C-730.0479459288788 2012.7968600292338 -1048.6498671097186 1737.1727713670384 -1235.5864361073295 1296.0096362070153C-1422.5230051049407 854.8465010469922 -1398.9438854141586 434.2280901974491 -1163.8718478753626 16.72200662479031C-928.7998103365666 -400.78407694786847 -791.8623600385857 -421.66674039888767 -107.24065592111356 -708.0195649417433C577.3810481963583 -994.3723894845986 1893.9127401852488 -1896.7858301172394 2122.312331888507 -1357.7715511809115C2350.711923591765 -818.7572722445836 1486.762519374391 1151.7330142497494 989.07738425453 1879.2489739526281 "></path><path d="M2079.2545174877787 -1313.8276362417207C2301.944119398455 -788.2887142788011 1459.5934502865157 1132.9393150531737 974.3504435446512 1842.2673757634802C489.10743680278665 2551.5954364737863 201.97292363783254 2209.417545647326 -249.91191487316974 2090.947055167748C-701.7967533841725 1972.4765646881706 -1012.4336265354913 1703.7430782425304 -1194.696781308162 1273.6090214615078C-1376.9599360808327 843.4749646804858 -1353.9702943823204 433.3720141021813 -1124.7750577819943 26.303582618838618C-895.579821181668 -380.7648488645034 -762.0658071411367 -401.1254457292473 -94.55964562660142 -680.3194496585315C572.9465158879339 -959.5134535878157 1856.564915577102 -1839.3665582046406 2079.2545174877787 -1313.8276362417207C2301.944119398455 -788.2887142788011 1459.5934502865157 1132.9393150531737 974.3504435446512 1842.2673757634802 "></path><path d="M2036.1967641222063 -1269.8832940564362C2253.1763762403016 -757.8197290669248 1432.4244422337965 1114.1460431026917 959.6235638699286 1805.286204820426C486.8226855060602 2496.4263665381604 207.05059575559244 2163.0222677841734 -233.2474520243586 2047.5894821886873C-673.5454998043098 1932.1566965932016 -976.2173249261077 1670.313812364116 -1153.807065473838 1251.208833962094C-1331.3968060215684 832.1038555600721 -1308.9966423153257 432.51636525300637 -1085.6782066534695 35.885585858980676C-862.3597709916132 -360.74519353504525 -732.2691932085315 -380.58372381351364 -81.87857429693304 -652.6189071292265C568.5120446146657 -924.654090444939 1819.2171520041115 -1781.9468590459478 2036.1967641222063 -1269.8832940564362C2253.1763762403016 -757.8197290669248 1432.4244422337965 1114.1460431026917 959.6235638699286 1805.286204820426 "></path><path d="M1993.1389192039 -1225.9388298008394C2204.408541529414 -727.350621784736 1405.255342628343 1095.3528932225222 944.8965926424717 1768.3051559476849C484.5378426565999 2441.257418672847 212.12817632061797 2116.6271119913335 -216.58308072828186 2004.2320312799393C-645.2943377771816 1891.836950568545 -940.0011148694584 1636.8846685560143 -1112.9174411922486 1228.8087685329933C-1285.8337675150387 820.7328685099719 -1264.0230818010655 431.66083847414393 -1046.581447077679 45.46771116943523C-829.1398123542929 -340.7254161352744 -702.4726708286606 -360.04187982746726 -69.19759451999903 -624.9182425296085C564.0774817886627 -889.7946052317498 1781.8692968783866 -1724.5270378169425 1993.1389192039 -1225.9388298008394C2204.408541529414 -727.350621784736 1405.255342628343 1095.3528932225222 944.8965926424717 1768.3051559476849 "></path><path d="M1950.08113532075 -1181.9944876155546C2155.640767853682 -696.8816365728597 1378.0863040580457 1076.5596212720402 930.169682450171 1731.3239850046307C482.2530608422958 2386.0883487372207 217.20581792079975 2070.2318341281803 -199.91864839704863 1960.8744583008784C-617.0431147148971 1851.517082473576 -903.784843777653 1603.4554026776 -1072.0277558755029 1206.4085810335791C-1240.2706679733528 809.3617593895588 -1219.049460251649 430.8051896249699 -1007.4846264667326 55.049714409576836C-795.9197926818161 -320.70576080581577 -672.6760874136335 -339.50015791173337 -56.51655370790854 -597.2177000003032C559.6429799978164 -854.9352420888731 1744.521502787818 -1667.1073386582498 1950.08113532075 -1181.9944876155546C2155.640767853682 -696.8816365728597 1378.0863040580457 1076.5596212720402 930.169682450171 1731.3239850046307 "></path><path d="M1907.023320920022 -1138.0504506060515C2106.8729636603725 -666.4129565367646 1350.9172349701703 1057.766044145777 915.4427417402917 1694.3425088857957C479.96824851041333 2330.918973625814 222.28342900340363 2023.836251089247 -183.25424658339352 1917.5165801460362C-588.7919221701908 1811.1969092028257 -867.5686032034257 1570.0258316234049 -1031.1381010763353 1184.0080883583846C-1194.7075989492448 797.9903450933643 -1174.0758692198106 429.9492356000137 -968.3878363733642 64.63141247393764C-762.6998035269175 -300.68641065213865 -642.8795345161844 -318.95874117178073 -43.83554341339618 -569.5174626467792C555.2084476893915 -820.0761841217777 1707.1736781796712 -1609.6879446753383 1907.023320920022 -1138.0504506060515C2106.8729636603725 -666.4129565367646 1350.9172349701703 1057.766044145777 915.4427417402917 1694.3425088857957 "></path><path d="M1863.9655065192933 -1094.106108420767C2058.1051594670625 -635.9439713248884 1323.7481658822949 1038.9727721952945 900.7158010304129 1657.361337942741C477.6834361785311 2275.7499036901877 227.36104008600705 1977.4409732260938 -166.58984476973865 1874.1590071669752C-560.5407296254845 1770.8770411078563 -831.3523626291983 1536.5965657449901 -990.2484462771677 1161.6079008589709C-1149.144529925137 786.6192359729512 -1129.1022781879724 429.0935867508397 -929.2910462799957 74.21341571407947C-729.4798143720191 -280.6667553226803 -613.0829816187354 -298.41701925604684 -31.154533118884046 -541.8169201174737C550.7739153809671 -785.2168209789011 1669.8258535715245 -1552.2682455166457 1863.9655065192933 -1094.106108420767C2058.1051594670625 -635.9439713248884 1323.7481658822949 1038.9727721952945 900.7158010304129 1657.361337942741 "></path><path d="M1820.9076921185651 -1050.1617052003262C2009.3373552737526 -605.4749250778558 1296.5790967944195 1020.1795612799692 885.9888603205341 1620.3802280348436C475.39862384664866 2220.5808947897185 232.43865116861093 1931.0457563980976 -149.92544295608377 1830.8014952230706C-532.289537080778 1730.557234048044 -795.1361220549709 1503.1673609017325 -949.3587914780001 1139.2077743947134C-1103.581460901029 775.2481878876943 -1084.128687156134 428.23799893682144 -890.1942561866273 83.79547998937778C-696.2598252171206 -260.6470389580654 -583.2864287212865 -277.8752363051567 -18.473522824371912 -514.1163165530124C546.3393830725427 -750.3573968008682 1632.4780289633777 -1494.8484853227967 1820.9076921185651 -1050.1617052003262C2009.3373552737526 -605.4749250778558 1296.5790967944195 1020.1795612799692 885.9888603205341 1620.3802280348436 "></path><path d="M1777.8498777178365 -1006.2174850853542C1960.569551080443 -575.0060619362919 1269.410027706544 1001.3861672591747 871.2619196106552 1583.3989350214774C473.11381151476644 2165.41170278378 237.51626225121436 1884.6503564646328 -133.26104114242867 1787.4438001736976C-504.0383445360717 1690.237243882762 -758.9198814807436 1469.7379729530057 -908.4691366788325 1116.8074648249872C-1058.0183918769212 763.876956696969 -1039.1550961242956 427.3822280173342 -851.0974660932588 93.37736115920734C-663.039836062222 -240.62750569891955 -553.4898758238373 -257.33363645973486 -5.792512529859778 -486.41589609401944C541.904850764118 -715.4981557283039 1595.1302043552305 -1437.4289082344164 1777.8498777178365 -1006.2174850853542C1960.569551080443 -575.0060619362919 1269.410027706544 1001.3861672591747 871.2619196106552 1583.3989350214774 "></path><path d="M1734.7920938346865 -962.273203935226C1911.8017774047112 -544.5371377595719 1242.2409891362472 982.592834273536 856.5350094183545 1546.417703043267C470.8290297004621 2110.2425718129975 242.59390385139613 1838.2550175663237 -116.59660881119544 1744.08616615948C-475.78712147378724 1649.9173147526367 -722.7036103889382 1436.3086460394352 -867.5794513620867 1094.4072162904172C-1012.4552923352352 752.5057865413996 -994.1814745748792 426.5265181330035 -812.0006454823123 102.95930336419292C-629.8198163897454 -220.60791140461743 -523.6932924088103 -236.79197557915745 6.888528282230709 -458.7154145998704C537.4703489732715 -680.6388536205834 1557.7824102646614 -1380.0092701108802 1734.7920938346865 -962.273203935226C1911.8017774047112 -544.5371377595719 1242.2409891362472 982.592834273536 856.5350094183545 1546.417703043267 "></path><path d="M1691.7342794339584 -918.3288007147852C1863.0339732114016 -514.0680915125394 1215.0719200483713 963.7996233582107 841.8080687084757 1509.4365931353695C468.54421736857967 2055.0735629125284 247.6715149339998 1791.8598007383275 -99.93220699754056 1700.7286542155757C-447.5359289290809 1609.597507692824 -686.4873698147107 1402.8794411961776 -826.6897965629191 1072.0070898261602C-966.8922233111273 741.1347384561423 -949.2078835430408 425.67093031898526 -772.9038553889438 112.54136763949123C-596.5998272348468 -200.5881950400028 -493.89673951136115 -216.2501926282673 19.569538576742843 -431.0148110354088C533.0358166648471 -645.7794294425505 1520.4345856565146 -1322.5895099170311 1691.7342794339584 -918.3288007147852C1863.0339732114016 -514.0680915125394 1215.0719200483713 963.7996233582107 841.8080687084757 1509.4365931353695 "></path><path d="M1648.6764650332298 -874.384519564657C1814.2661690180917 -483.5991673358193 1187.902850960496 945.006290372572 827.0811279985965 1472.4553611571587C466.25940503669744 1999.9044319417458 252.74912601660344 1745.4644618400184 -83.26780518388568 1657.3710202013585C-419.2847363843746 1569.2775785626982 -650.2711292404834 1369.4501142826066 -785.8001417637514 1049.6068412915902C-921.3291542870194 729.7635683005733 -904.2342925112025 424.8152204346543 -733.8070652955754 122.12330984447703C-563.3798380799483 -180.56860074570068 -464.10018661391223 -195.70853174768968 32.25054887125498 -403.3143295412599C528.6012843564224 -610.9201273348301 1483.0867610483679 -1265.1698717934946 1648.6764650332298 -874.384519564657C1814.2661690180917 -483.5991673358193 1187.902850960496 945.006290372572 827.0811279985965 1472.4553611571587 "></path><path d="M1605.6186811500797 -830.4404215199975C1765.4983953423603 -453.13042626456786 1160.7338123901986 926.2127742814655 812.354217806296 1435.47394607348C463.9746232223931 1944.7351178654953 257.8267676167852 1699.0689398362415 -66.60337285265246 1614.0132030816726C-391.03351332209013 1528.9574663271046 -614.054858148678 1336.0206042635677 -744.9104564470057 1027.2064096515514C-875.7660547453333 718.3922150395351 -859.260670961786 423.95932744485503 -694.7102446846288 131.70506894399387C-530.1598184074717 -160.54918955686708 -434.30360319888496 -175.1670539725808 44.931589683345464 -375.6140311525795C524.1667825655759 -576.0610083325784 1445.7389669577992 -1207.7504167754269 1605.6186811500797 -830.4404215199975C1765.4983953423603 -453.13042626456786 1160.7338123901986 926.2127742814655 812.354217806296 1435.47394607348 "></path><path d="M1562.5608667493516 -786.4959572644004C1716.7305911490503 -422.66131898237904 1133.5647433023232 907.4196244012956 797.6272770964172 1398.4928972007388C461.6898108905109 1889.5661700001815 262.9043786993889 1652.6737840434007 -49.93897103899735 1570.6557521729242C-362.7823207773838 1488.6377203024472 -577.8386175744506 1302.5914604554655 -704.0208016478381 1004.8063442224502C-830.2029857212256 707.0212279894345 -814.2870799299476 423.1038006659928 -655.6134545912604 141.2871942544482C-496.93982925257296 -140.52941215709643 -404.50705030143604 -154.6252099865344 57.6125999778576 -347.91336655296175C519.7322502571515 -541.2015231193893 1408.3911423496525 -1150.3305955464216 1562.5608667493516 -786.4959572644004C1716.7305911490503 -422.66131898237904 1133.5647433023232 907.4196244012956 797.6272770964172 1398.4928972007388 "></path><path d="M1519.5030523486234 -742.5517371494284C1667.9627869557407 -392.1924558408152 1106.3956742144483 888.6262303805015 782.9003363865384 1361.511604187372C459.4049985586287 1834.3969779942431 267.9819897819925 1606.2783841099358 -33.274569225342475 1527.2980571235507C-334.5311282326775 1448.317730137166 -541.6223770002233 1269.1620725067392 -663.1311468486705 982.406034652724C-784.6399166971175 695.649996798709 -769.3134888981093 422.24802974650606 -616.516664497892 150.86907542427775C-463.7198400976745 -120.50987889795033 -374.710497403987 -134.08361014111279 70.29361027236996 -320.212946093969C515.2977179487268 -506.34228204682495 1371.0433177415057 -1092.9110184580416 1519.5030523486234 -742.5517371494284C1667.9627869557407 -392.1924558408152 1106.3956742144483 888.6262303805015 782.9003363865384 1361.511604187372 "></path><path d="M1476.445268465473 -698.6073949641439C1619.1950132800089 -361.7234706289389 1079.2266356441505 869.8329584300193 768.1734261942377 1324.5304332443184C457.12021674432435 1779.2279080586172 273.0596313821743 1559.8831062467834 -16.610136894109246 1483.9404841444903C-306.279905170393 1407.997862042197 -505.4061059084179 1235.7328066283244 -622.2414615319248 960.0058471533102C-739.0768171554316 684.2788876782961 -724.3398673486929 421.3923808973316 -577.4198438869454 160.4510786644198C-430.49982042519787 -100.49022356849173 -344.91391398895985 -113.5418882253789 82.97465108446022 -292.5124035646636C510.8632161578803 -471.4829189039483 1333.6955236509366 -1035.4913192993488 1476.445268465473 -698.6073949641439C1619.1950132800089 -361.7234706289389 1079.2266356441505 869.8329584300193 768.1734261942377 1324.5304332443184 "></path><path d="M1433.3874235471667 -654.6631443315938C1570.4271785691212 -331.254576969797 1052.0575360386974 851.0395949268027 753.4464549667805 1287.5491707485298C454.8353738948638 1724.0587465702565 278.13721194719983 1513.4877368308962 0.05423440196773299 1440.582819612695C-278.0287431432648 1367.6779023944932 -469.1898958517686 1202.3034491971757 -581.3518372503352 937.6055681011621C-693.5137786489018 672.9076870051485 -679.3663068344326 420.5366404954227 -538.3230843111551 170.03299035182727C-397.2798617878775 -80.47065979176796 -315.11739160908894 -93.0002578623795 95.65563086139446 -264.8119525880928C506.42865333187774 -436.62364731380603 1296.3476685252117 -978.0717116933905 1433.3874235471667 -654.6631443315938C1570.4271785691212 -331.254576969797 1052.0575360386974 851.0395949268027 753.4464549667805 1287.5491707485298 "></path><path d="M1390.3296091464385 -610.7188021463093C1521.6593743758112 -300.78559175792066 1024.8884669508218 832.2463229763207 738.7195142569017 1250.5679998054757C452.55056156298133 1668.889676634631 283.2148230298035 1467.0924589677438 16.718636215622496 1397.225246633634C-249.77755059855838 1327.3580342995247 -432.9736552775413 1168.8741833187619 -540.4621824511676 915.2053806017489C-647.950709624794 661.5365778847354 -634.3927158025942 419.680991646248 -499.22629421778663 179.61499359196932C-364.0598726329789 -60.45100446230947 -285.3208387116399 -72.4585359466455 108.33664115590636 -237.11141005878744C501.99412102345286 -401.7642841709294 1258.999843917065 -920.6520125346979 1390.3296091464385 -610.7188021463093C1521.6593743758112 -300.78559175792066 1024.8884669508218 832.2463229763207 738.7195142569017 1250.5679998054757 "></path><path d="M1347.2717947457104 -566.7745820313373C1472.8915701825017 -270.31672861635695 997.7193978629464 813.4529289555262 723.9925735470229 1213.5867067921095C450.2657492310991 1613.7204846286922 288.29243411240714 1420.6970590342785 33.383038029277486 1353.8675515842606C-221.52635805385205 1287.0380441342422 -396.757414703314 1135.444795370035 -499.572527652 892.8050710320224C-602.387640600686 650.1653466940097 -589.419124770756 418.825220726761 -460.1295041244182 189.19687476179888C-330.8398834780803 -40.431471203163596 -255.524285814191 -51.91693610122422 121.01765145041873 -209.41098959979468C497.55958871502844 -366.90504309836524 1221.6520193089182 -863.2324354463176 1347.2717947457104 -566.7745820313373C1472.8915701825017 -270.31672861635695 997.7193978629464 813.4529289555262 723.9925735470229 1213.5867067921095 "></path><path d="M1304.2139803449818 -522.8301482933184C1424.1237659891922 -239.84765185174626 970.550328775071 794.6597485577786 709.265632837144 1176.6056274017901C447.9809368992169 1558.5515062458012 293.3700451950108 1374.3018727238605 50.04743984293248 1310.510070157934C-193.27516550914572 1246.718267592008 -360.5411741290866 1102.0156210443556 -458.68287285283236 870.4049750853433C-556.8245715765781 638.7943291263311 -544.4455337389177 417.9696634303209 -421.03271403104975 198.7789695546751C-297.6198943231818 -20.41172432097062 -225.72773291674184 -31.375122632755847 133.6986617449311 -181.71035551775503C493.1250564066038 -332.0455884027541 1184.3041947007714 -805.8126447348905 1304.2139803449818 -522.8301482933184C1424.1237659891922 -239.84765185174626 970.550328775071 794.6597485577786 709.265632837144 1176.6056274017901 "></path><path d="M1261.1561659442532 -478.8858061080339C1375.3559617958826 -209.37866663986995 943.3812596871956 775.8664766072966 694.538692127265 1139.624456458736C445.69612456733444 1503.3824363101753 298.44765627761444 1327.906594860708 66.71184165658758 1267.152497178873C-165.0239729644394 1206.3983994970386 -324.3249335548593 1068.586355165941 -417.79321805366476 848.0047875859295C-511.2615025524703 627.423220005918 -499.4719427070793 417.1140145811464 -381.9359239376813 208.36097279481692C-264.39990516828334 -0.3920689915123603 -195.93118001929292 -10.83340071702196 146.37967203944322 -154.00981298844977C488.69052409817914 -297.18622525987735 1146.9563700926244 -748.3929455761978 1261.1561659442532 -478.8858061080339C1375.3559617958826 -209.37866663986995 943.3812596871956 775.8664766072966 694.538692127265 1139.624456458736 "></path><path d="M1218.0984125786813 -434.9415859930619C1326.588218637729 -178.90980349830613 916.2122516344764 757.0730825865021 679.8118124525424 1102.6431634453693C443.41137327060824 1448.2132443042365 303.52532839537434 1281.5111949272432 83.37630450539882 1223.7948021294997C-136.7727193845767 1166.078409331757 -288.10863194547574 1035.1569672172143 -376.9035022193409 825.6044780162033C-465.69837249320614 616.0519888151923 -454.4982906400847 416.25824366165944 -342.8390728091566 217.94285396464647C-231.1798549782285 19.627464267633627 -166.13456608668764 9.708199128399428 159.0607433691116 -126.309392529457C484.25605282491097 -262.3269841873132 1109.608606519634 -690.9733684878177 1218.0984125786813 -434.9415859930619C1326.588218637729 -178.90980349830613 916.2122516344764 757.0730825865021 679.8118124525424 1102.6431634453693 "></path><path d="M1175.040567660375 -390.9973048429336C1277.820383926841 -148.44087932158618 889.0431520290228 738.2797496008639 665.0848412250855 1065.661931467159C441.1265304211479 1393.0441133334543 308.6029089603999 1235.115856028934 100.04067580147569 1180.437168115283C-108.5215573574485 1125.7584802016318 -251.8924218888265 1001.7276403036437 -336.01387793775143 803.2042294816333C-420.13533398667636 604.6808186596231 -409.5247301258245 415.4025337773287 -303.7423132333663 227.52479616963228C-197.95989634090802 39.647058561935864 -136.33804370681673 30.249860008977066 171.74172314604573 -98.60891103530787C479.8214899989082 -227.4676820795928 1072.260751393909 -633.5537303642811 1175.040567660375 -390.9973048429336C1277.820383926841 -148.44087932158618 889.0431520290228 738.2797496008639 665.0848412250855 1065.661931467159 "></path><path d="M1131.9827532596466 -347.0530542103835C1229.0525797335313 -117.97198566244424 861.8740829411474 719.4863860976473 650.3579005152064 1028.6806689713706C438.84171808926567 1337.874951845094 313.6805200430035 1188.720486613047 116.70507761513068 1137.0795035834876C-80.27036481274217 1085.4385205539281 -215.67618131459915 968.2982828724951 -295.12422313858383 780.8039504294854C-374.5722649625685 593.3096179864756 -364.55113909398614 414.54679337541984 -264.64552313999786 237.10670785703974C-164.73990718600953 59.66662233865986 -106.5414908093677 50.79149037197658 184.42273344055798 -70.90846005873686C475.38695769048354 -192.60841048945053 1034.9129267857622 -576.1341227583229 1131.9827532596466 -347.0530542103835C1229.0525797335313 -117.97198566244424 861.8740829411474 719.4863860976473 650.3579005152064 1028.6806689713706 "></path><path d="M1088.9249998940745 -303.1087425426771C1180.2848365753778 -87.50303096814594 834.7050748884283 700.6930836295874 635.6310208404839 991.6994675107387C436.55696679253947 1282.70585139189 318.75819216076343 1142.3251782323164 133.36954046394192 1093.7219000868488C-52.019111232879595 1045.118621941381 -179.45987970521554 934.8689864765029 -254.23450730425998 758.4037324124936C-329.00913490330436 581.9384783484845 -319.57748702699155 413.6911140086672 -225.54867201147317 246.68868057960367C-131.5198569959548 79.68624715054023 -76.74487687676242 71.33318177013257 197.10380477022636 -43.20794804700972C470.95248641721537 -157.749077864152 997.5651632127715 -518.7144541172082 1088.9249998940745 -303.1087425426771C1180.2848365753778 -87.50303096814594 834.7050748884283 700.6930836295874 635.6310208404839 991.6994675107387 "></path><path d="M1045.867093940612 -259.16446139254884C1131.5169408293336 -57.034106791425984 807.5359142478185 681.8997506439491 620.9039885778707 954.7182355325285C434.27206290792265 1227.536720421108 323.8357116906327 1095.9298393340075 150.03385072486253 1050.3642660726316C-23.768010240907643 1004.7986928112557 -143.24373068372256 901.4396595629325 -213.3449440578267 736.0034838779238C-283.4461574319308 570.5673081929149 -274.6039875478876 412.8354041243365 -186.4519734708391 256.27062278458936C-98.29995939379057 99.70584144484235 -46.94841553204776 91.8748426507101 209.78472351200423 -15.507466552860706C466.51786255605634 -122.8897757564315 960.2172470518901 -461.2948159936718 1045.867093940612 -259.16446139254884C1131.5169408293336 -57.034106791425984 807.5359142478185 681.8997506439491 620.9039885778707 954.7182355325285 "></path><path d="M1002.8092795398836 -215.22014972484249C1082.7491366360239 -26.56515209712768 780.3668451599431 663.106448175889 606.1770478679919 917.7370340718962C431.9872505760403 1172.367619967904 328.91332277323636 1049.534530953277 166.69825253851752 1007.0066625759926C4.483182303798685 964.4787941987086 -107.02749010949526 868.0103631669401 -172.4552892586591 713.603265860932C-237.88308840782292 559.1961685549238 -229.63039651604925 411.9797247575839 -147.35518337747067 265.8525955071532C-65.07997023889209 119.72546625672271 -17.15186263459873 112.41653404886586 222.46573380651648 12.193045458866436C462.0833302476317 -88.03044313113287 922.8694224437434 -403.87514735255724 1002.8092795398836 -215.22014972484249C1082.7491366360239 -26.56515209712768 780.3668451599431 663.106448175889 606.1770478679919 917.7370340718962 "></path><path d="M959.7514651391555 -171.2758685747142C1033.9813324427141 3.903772079592386 753.1977760720679 644.3131151902508 591.450107158113 880.755802093686C429.7024382441581 1117.1984889971216 333.99093385584 1003.1391920549679 183.3626543521725 963.6490285617754C32.73437484850501 924.158865068583 -70.8112495352679 834.5810362533696 -131.5656344594915 691.203017326362C-192.32001938371508 547.8249983993546 -184.6568054842109 411.12401487325303 -108.25839328410223 275.4345377121389C-31.85998108399349 139.74506055102484 12.64469026285019 132.9581949294436 235.14674410102873 39.89352695301545C457.64879793920716 -53.171141023412474 885.5215978355966 -346.4555092290208 959.7514651391555 -171.2758685747142C1033.9813324427141 3.903772079592386 753.1977760720679 644.3131151902508 591.450107158113 880.755802093686 "></path><path d="M916.6936812560052 -127.33161794216409C985.2135587669825 34.37266573873433 726.0287375017706 625.5197516870342 576.7231969658121 843.7745395978977C427.41765642985376 1062.029327508761 339.0685754560218 956.7438226390809 200.02708668340574 920.2913640299803C60.985597910789465 883.8389054208794 -34.59497844346242 801.1516788222207 -90.67594914274576 668.8027382742139C-146.75691984202905 536.4537977262071 -139.68318393479444 410.26827447134417 -69.16157267315566 285.01644939954645C1.3600385884831212 159.76462432774883 42.44127367787746 153.49982529244312 247.8277849131191 67.59397792958634C453.21429614836075 -18.311869433270203 848.1738037450277 -289.03590162306244 916.6936812560052 -127.33161794216409C985.2135587669825 34.37266573873433 726.0287375017706 625.5197516870342 576.7231969658121 843.7745395978977 "></path><path d="M873.6358668552771 -83.38721472172335C936.4457545736727 64.84171198576678 698.8596684138952 606.7265407717084 561.9962562559333 806.79342969C425.13284409797143 1006.8603186082914 344.14618653862544 910.3486058110846 216.69148849706062 876.9338520860756C89.2367904554958 843.5190983610664 1.621262130764876 767.7224739789629 -49.786294343578106 646.4026118099564C-101.19385081792115 525.0827496409502 -94.7095929029561 409.4126866573258 -30.06478257978722 294.59851367484475C34.58002774338172 179.78434069236346 72.23782657532638 174.04160824333326 260.50879520763124 95.29458149404797C448.7797638399361 16.547554744762692 810.825979136881 -231.61614142921349 873.6358668552771 -83.38721472172335C936.4457545736727 64.84171198576678 698.8596684138952 606.7265407717084 561.9962562559333 806.79342969 "></path><path d="M830.5780524545485 -39.44299460675131C887.6779503803632 95.3105751273306 671.6905993260198 587.9331467509139 547.2693155460544 769.8121366766336C422.8480317660891 951.6911266023533 349.2237976212291 863.9532058776197 233.35589031071572 833.5761570367022C117.48798300020212 803.1991081957849 37.83750270499223 734.2930860302363 -8.896639544410505 624.0023022402304C-55.63078179381324 513.7115184502246 -49.736001871117764 408.55691573783884 9.03200751358122 304.1803948446741C67.8000168982802 199.80387395150944 102.03437947277541 194.58320808875465 273.1898055021435 122.99500195304074C444.34523153151144 51.40679581732695 773.4781545287342 -174.19656434083328 830.5780524545485 -39.44299460675131C887.6779503803632 95.3105751273306 671.6905993260198 587.9331467509139 547.2693155460544 769.8121366766336 "></path><path d="M787.5202685713984 4.501317060955046C838.9101767046313 125.77952982162878 644.5215607557224 569.1398442828538 532.5424053537537 732.8309352160013C420.5632499517849 896.522026149149 354.3014392214109 817.5578974968889 250.02032264194872 790.2185535400633C145.7392060624867 762.8792095832378 74.05377379679771 700.8637896342439 31.993045772335222 601.6020842232385C-10.06768225212727 502.34037881223344 -4.7623803217013005 407.7012363710862 48.128828124527786 313.762367567238C101.02003657075693 219.8234987633898 131.83096288780257 215.1248994869104 285.87084631423386 150.695513964768C439.91072974066503 86.26612844262547 736.1303604381656 -116.7768956997187 787.5202685713984 4.501317060955046C838.9101767046313 125.77952982162878 644.5215607557224 569.1398442828538 532.5424053537537 732.8309352160013 "></path><path d="M744.4625152058263 48.445659246239586C790.1424335464781 156.24851503350516 617.3525527030032 550.3465723323718 517.815525679031 695.8497642729476C418.2784986550588 841.3529562135232 359.3791113391708 771.1626196337363 266.6847854907601 746.8609805610026C173.99045964234926 722.5593414882687 110.27007540618126 667.4345237558296 72.88276160665907 579.2018967238249C35.495447807136884 490.9692696918204 40.21127174529329 406.84558752191174 87.22567925305248 323.34437080737996C134.24008676081166 239.84315409284818 161.62757682040785 235.6666214026444 298.55191764390224 178.39605649407326C435.47625846739675 121.12549158550212 698.7825968651748 -59.357196541025985 744.4625152058263 48.445659246239586C790.1424335464781 156.24851503350516 617.3525527030032 550.3465723323718 517.815525679031 695.8497642729476 "></path><path d="M701.4046397699418 92.38994039636782C741.3745683180119 186.71743921022522 590.1834225799715 531.5532393467336 503.08852393399593 658.8685322947372C415.9936252880202 786.183825242741 364.4566613866182 724.7672807354276 283.3491262692587 703.5033465467853C202.24159115189934 682.2394123581433 146.48625494525237 634.0051968422591 113.77235537067043 556.801648189255C81.05845579608854 479.59809953625097 85.18480174197538 405.989877637581 126.32240831126467 332.92631301236565C167.46001488055396 259.8627483871504 191.42406868270064 256.20828228322193 311.23286690325824 206.09653798822228C431.04166512381585 155.98479369322263 661.4347112218717 -1.9375584174895266 701.4046397699418 92.38994039636782C741.3745683180119 186.71743921022522 590.1834225799715 531.5532393467336 503.08852393399593 658.8685322947372 "></path><path d="M658.3468558867917 136.3342215464961C692.6067946422803 217.1863633869453 563.0143840096744 512.7599063610952 488.3616137416951 621.887300316527C413.7088434737159 731.0146942719587 369.53430298679996 678.3719418371186 300.01355860049193 660.1457125325683C230.4928142141838 641.9194832280178 182.70252603705785 600.5758699286885 154.6620406874162 534.4013996546851C126.62155533777457 468.22692938068167 130.15842329139184 405.13416775325027 165.41922892221123 342.50825521735135C200.68003455303062 279.88234268145254 221.2206520977278 276.7499431637997 323.9139077153486 233.7970194823713C426.60716333296944 190.84409580094302 624.0869171313029 55.48207970604693 658.3468558867917 136.3342215464961C692.6067946422803 217.1863633869453 563.0143840096744 512.7599063610952 488.3616137416951 621.887300316527 "></path><path d="M615.2890414860633 180.27854847299153C643.8389904489707 247.65533334003248 535.845314921799 493.96661915182415 473.6346730318162 584.906114114684C411.42403114183367 675.8456090775438 374.6119140694036 631.976648715177 316.6779604141469 616.7881242947183C258.7440067588901 601.5995998742596 218.91876661128515 567.1465887914853 195.5516954865838 512.0011968964824C172.1846243618824 456.85580500147944 175.13201432323018 404.2785036452866 204.51601901557967 352.09024319870423C233.90002370792917 299.9019827521219 251.01720499517677 297.2916498207445 336.59491800986075 261.49754675288756C422.1726310245448 225.70344368503066 586.7390925231562 112.90176360595058 615.2890414860633 180.27854847299153C643.8389904489707 247.65533334003248 535.845314921799 493.96661915182415 473.6346730318162 584.906114114684 "></path><path d="M572.2312423441241 224.2228143643307C595.07120151445 278.1242422579635 508.6762610927126 475.17327090739684 458.90774758072644 547.9248668776847C409.1392340687403 620.6764628479725 379.6895404107963 585.5812945580791 333.342377486591 573.4304750217123C286.99521456238557 561.2796554853453 255.13502244430157 533.7172466191257 236.44136554454047 489.60093310312345C217.74770864477938 445.4846195871212 220.10562061385758 403.4227785021668 243.61282436773718 361.6721701449009C267.12002812161677 319.921561787635 280.81377315141486 317.83329544253314 349.27594356316206 289.19801298824757C417.7381139749093 260.562730533962 549.3912831737983 170.32138647069792 572.2312423441241 224.2228143643307C595.07120151445 278.1242422579635 508.6762610927126 475.17327090739684 458.90774758072644 547.9248668776847 "></path><path d="M529.1734279433958 268.16711077324806C546.3033973211402 308.5931816934726 481.5071920048372 456.37995318054755 444.1808068708476 510.9436501582635C406.85442173685794 565.5073471359793 384.7671514934 539.1859709185593 350.00677930024597 530.0728562662841C315.2464071070919 520.9597416140089 291.3512630185289 500.28793496434423 277.3310203437081 467.20069982734253C263.3107776688873 434.11346469034083 265.0792116456959 402.56708387662513 282.7096144611056 371.2541276086757C300.3400172765153 339.94117134072627 310.6103260488639 338.37497158189984 361.9569538576743 316.89850974118565C413.30358166648466 295.4220479004715 512.0434585656515 227.74103985302344 529.1734279433958 268.16711077324806C546.3033973211402 308.5931816934726 481.5071920048372 456.37995318054755 444.1808068708476 510.9436501582635 "></path><path d="M486.11561354266746 312.11140718216535C497.53559312783045 339.06212112898174 454.33812291696177 437.5866354536984 429.4538661609687 473.96243343884237C404.5696094049756 510.33823142398626 389.84476257600363 492.7906472790396 366.67118111390096 486.7152375108561C343.4975996517982 480.63982774267265 327.5675035927563 466.85862330956286 318.22067514287573 444.8004665515617C308.8738466929952 422.7423097935606 310.05280267753426 401.7113892510834 321.80640455447406 380.8360850724505C333.56000643141385 359.9607808938175 340.4068789463129 358.91664772126654 374.6379641521865 344.5990064941238C408.8690493580601 330.281365266981 474.6956339575047 285.16069323534896 486.11561354266746 312.11140718216535C497.53559312783045 339.06212112898174 454.33812291696177 437.5866354536984 429.4538661609687 473.96243343884237 "></path><path d="M443.05781440072826 356.0557035910827C448.76780419330976 369.5310605644909 427.1690690878754 418.7933177268492 414.7269407098789 436.9812167194212C402.28481233188234 455.16911571199313 394.92238891739635 446.3953236395198 383.335598186345 443.35761875542806C371.7488074552937 440.3199138713363 363.78375942577264 433.42931165478143 359.1103452008324 422.40023327578086C354.4369309758921 411.3711548967803 355.02640896816166 400.8556946255417 360.90320990663156 390.41804253622524C366.78001084510146 379.98039044690876 370.20344710255097 379.4583238606333 387.3189897054878 372.2995032470619C404.4345323084246 365.1406826334905 437.3478246081469 342.5803466176745 443.05781440072826 356.0557035910827C448.76780419330976 369.5310605644909 427.1690690878754 418.7933177268492 414.7269407098789 436.9812167194212 "></path></g></svg>