<svg width="103" height="101" viewBox="0 0 103 101" fill="none" xmlns="http://www.w3.org/2000/svg">
<path d="M58.9991 26.1057L44.3614 1.03587L29.9684 26.2475L58.9991 26.1057Z" fill="#00AEFF"/>
<path d="M29.9684 26.2475L44.6061 51.3173L58.9991 26.1057L29.9684 26.2475Z" fill="#3C8223"/>
<path d="M0.938792 26.3892L15.5764 51.459L29.9684 26.2474L0.938792 26.3892Z" fill="#7A25A1"/>
<path d="M29.9684 26.2475L15.3308 1.17771L0.938792 26.3893L29.9684 26.2475Z" fill="#B337ED"/>
<path d="M44.6061 51.3173L29.9684 26.2475L15.5764 51.4591L44.6061 51.3173Z" fill="#0064BF"/>
<path d="M58.684 26.2923L44.6109 51.6833L73.6367 51.1756L58.684 26.2923Z" fill="#81CC37"/>
<path d="M73.6368 51.1755L87.7099 25.7844L58.684 26.2922L73.6368 51.1755Z" fill="#FF9429"/>
<path d="M88.5894 76.0588L102.663 50.6677L73.6367 51.1755L88.5894 76.0588Z" fill="#DB3D69"/>
<path d="M73.6368 51.1755L59.5636 76.5665L88.5895 76.0587L73.6368 51.1755Z" fill="#E894AC"/>
<path d="M87.7099 25.7845L73.6367 51.1755L102.663 50.6677L87.7099 25.7845Z" fill="#E66225"/>
<path d="M21.31 98.3077V87.2677H22.814L22.91 88.0197C23.2513 87.7104 23.6247 87.481 24.03 87.3317C24.4353 87.1824 24.9153 87.1077 25.47 87.1077C26.558 87.1077 27.406 87.4064 28.014 88.0037C28.622 88.5904 28.926 89.5664 28.926 90.9317C28.926 92.297 28.6113 93.321 27.982 94.0037C27.3527 94.6757 26.494 95.0117 25.406 95.0117C24.4887 95.0117 23.7047 94.7984 23.054 94.3717V98.3077H21.31ZM24.958 93.6997C26.43 93.6997 27.166 92.7717 27.166 90.9157C27.166 90.0197 27.0007 89.385 26.67 89.0117C26.3393 88.6277 25.7847 88.4357 25.006 88.4357C24.2273 88.4357 23.5767 88.7024 23.054 89.2357V93.0277C23.2993 93.2304 23.5713 93.3957 23.87 93.5237C24.1793 93.641 24.542 93.6997 24.958 93.6997ZM34.4625 95.0117C33.1398 95.0117 32.1158 94.6864 31.3905 94.0357C30.6652 93.385 30.3025 92.3877 30.3025 91.0437C30.3025 89.8277 30.6118 88.8677 31.2305 88.1637C31.8492 87.4597 32.7878 87.1077 34.0465 87.1077C35.1985 87.1077 36.0625 87.4117 36.6385 88.0197C37.2252 88.617 37.5185 89.3904 37.5185 90.3397V91.7477H31.9665C32.0518 92.4837 32.3185 92.9904 32.7665 93.2677C33.2145 93.545 33.8972 93.6837 34.8145 93.6837C35.1985 93.6837 35.5932 93.6464 35.9985 93.5717C36.4038 93.497 36.7558 93.401 37.0545 93.2837V94.5637C36.7132 94.713 36.3185 94.825 35.8705 94.8997C35.4332 94.9744 34.9638 95.0117 34.4625 95.0117ZM31.9665 90.6117H35.9825V90.0837C35.9825 89.561 35.8385 89.1557 35.5505 88.8677C35.2625 88.569 34.7772 88.4197 34.0945 88.4197C33.2838 88.4197 32.7238 88.5957 32.4145 88.9477C32.1158 89.2997 31.9665 89.8544 31.9665 90.6117ZM42.1123 95.0117C41.3016 95.0117 40.6936 94.7984 40.2883 94.3717C39.8936 93.9344 39.6963 93.3424 39.6963 92.5957V88.6277H38.5763V87.2677H39.6963V85.5237L41.4243 84.9957V87.2677H43.4403L43.3283 88.6277H41.4243V92.4997C41.4243 92.937 41.5256 93.2464 41.7283 93.4277C41.9309 93.5984 42.2616 93.6837 42.7203 93.6837C43.0083 93.6837 43.3123 93.6304 43.6323 93.5237V94.7557C43.2163 94.9264 42.7096 95.0117 42.1123 95.0117ZM51.1818 95.0117C50.6591 95.0117 50.1578 94.9744 49.6778 94.8997C49.2084 94.825 48.8191 94.7344 48.5098 94.6277V93.1557C48.8724 93.2944 49.2724 93.401 49.7098 93.4757C50.1471 93.5504 50.5631 93.5877 50.9578 93.5877C51.5551 93.5877 51.9818 93.5344 52.2378 93.4277C52.4938 93.321 52.6218 93.113 52.6218 92.8037C52.6218 92.5797 52.5418 92.4037 52.3818 92.2757C52.2324 92.1477 52.0031 92.0304 51.6938 91.9237C51.3951 91.817 51.0111 91.689 50.5418 91.5397C50.0938 91.3904 49.7044 91.2304 49.3738 91.0597C49.0431 90.8784 48.7871 90.649 48.6058 90.3717C48.4244 90.0944 48.3338 89.7317 48.3338 89.2837C48.3338 88.5904 48.5844 88.057 49.0858 87.6837C49.5871 87.2997 50.3924 87.1077 51.5018 87.1077C51.9391 87.1077 52.3551 87.1397 52.7498 87.2037C53.1444 87.2677 53.4804 87.3477 53.7578 87.4437V88.8997C53.4591 88.7824 53.1284 88.6917 52.7658 88.6277C52.4138 88.5637 52.0831 88.5317 51.7738 88.5317C51.2191 88.5317 50.7978 88.5797 50.5098 88.6757C50.2324 88.7717 50.0938 88.9637 50.0938 89.2517C50.0938 89.5504 50.2378 89.7637 50.5258 89.8917C50.8244 90.009 51.2991 90.1744 51.9498 90.3877C52.5471 90.569 53.0218 90.761 53.3738 90.9637C53.7258 91.1664 53.9764 91.4117 54.1258 91.6997C54.2858 91.977 54.3658 92.3397 54.3658 92.7877C54.3658 93.5344 54.0938 94.0944 53.5498 94.4677C53.0058 94.8304 52.2164 95.0117 51.1818 95.0117ZM56.0756 94.8517V84.0677H57.8196V88.0037C58.1503 87.737 58.545 87.5237 59.0036 87.3637C59.4623 87.193 59.9796 87.1077 60.5556 87.1077C61.5156 87.1077 62.225 87.337 62.6836 87.7957C63.1423 88.2544 63.3716 88.969 63.3716 89.9397V94.8517H61.6436V90.0197C61.6436 89.433 61.5156 89.0224 61.2596 88.7877C61.0143 88.553 60.5823 88.4357 59.9636 88.4357C59.5796 88.4357 59.1903 88.521 58.7956 88.6917C58.401 88.8517 58.0756 89.065 57.8196 89.3317V94.8517H56.0756ZM68.8014 95.0117C67.436 95.0117 66.4334 94.6704 65.7934 93.9877C65.164 93.305 64.8494 92.329 64.8494 91.0597C64.8494 89.7904 65.1694 88.8144 65.8094 88.1317C66.4494 87.449 67.4467 87.1077 68.8014 87.1077C70.1667 87.1077 71.1694 87.449 71.8094 88.1317C72.4494 88.8144 72.7694 89.7904 72.7694 91.0597C72.7694 92.329 72.4494 93.305 71.8094 93.9877C71.18 94.6704 70.1774 95.0117 68.8014 95.0117ZM68.8014 93.5397C69.6014 93.5397 70.1667 93.3477 70.4974 92.9637C70.8387 92.569 71.0094 91.9344 71.0094 91.0597C71.0094 90.185 70.8387 89.5557 70.4974 89.1717C70.1667 88.7877 69.6014 88.5957 68.8014 88.5957C68.012 88.5957 67.4467 88.7877 67.1054 89.1717C66.7747 89.5557 66.6094 90.185 66.6094 91.0597C66.6094 91.9344 66.7747 92.569 67.1054 92.9637C67.4467 93.3477 68.012 93.5397 68.8014 93.5397ZM74.4663 98.3077V87.2677H75.9703L76.0663 88.0197C76.4076 87.7104 76.7809 87.481 77.1863 87.3317C77.5916 87.1824 78.0716 87.1077 78.6263 87.1077C79.7143 87.1077 80.5623 87.4064 81.1703 88.0037C81.7783 88.5904 82.0823 89.5664 82.0823 90.9317C82.0823 92.297 81.7676 93.321 81.1383 94.0037C80.5089 94.6757 79.6503 95.0117 78.5623 95.0117C77.6449 95.0117 76.8609 94.7984 76.2103 94.3717V98.3077H74.4663ZM78.1143 93.6997C79.5863 93.6997 80.3223 92.7717 80.3223 90.9157C80.3223 90.0197 80.1569 89.385 79.8263 89.0117C79.4956 88.6277 78.9409 88.4357 78.1623 88.4357C77.3836 88.4357 76.7329 88.7024 76.2103 89.2357V93.0277C76.4556 93.2304 76.7276 93.3957 77.0263 93.5237C77.3356 93.641 77.6983 93.6997 78.1143 93.6997Z" fill="black"/>
</svg>
