<svg width="98" height="39" viewBox="0 0 98 39" fill="none" xmlns="http://www.w3.org/2000/svg">
<path d="M19.5 0C8.73084 0 0 8.73084 0 19.5C0 30.2692 8.73084 39 19.5 39C30.2692 39 39 30.2692 39 19.5C39 8.73084 30.2692 0 19.5 0ZM19.5 29.2498C14.1152 29.2498 9.7502 24.8848 9.7502 19.5C9.7502 14.1148 14.1152 9.7502 19.5 9.7502C24.8852 9.7502 29.2502 14.1152 29.2502 19.5C29.2502 24.8848 24.8852 29.2498 19.5 29.2498Z" fill="url(#paint0_linear_21_1856)"/>
<path d="M29.8723 16.8281C29.8723 18.5769 29.5831 20.2531 29.045 21.8133C28.935 22.1371 28.8154 22.4579 28.6801 22.7695C28.9661 21.9738 29.1488 21.1276 29.2146 20.2535C29.221 20.1998 29.2209 20.1465 29.2241 20.0929C29.2304 19.9797 29.2367 19.8665 29.2367 19.7501C29.2399 19.6933 29.243 19.6369 29.2399 19.5773C29.243 19.5205 29.243 19.4641 29.243 19.4077C29.1925 14.0671 24.8461 9.75215 19.4932 9.75215C14.1089 9.75215 9.74344 14.1176 9.74344 19.502C9.74344 24.8863 14.1089 29.2518 19.4932 29.2518C22.6448 29.2518 25.45 27.7547 27.2335 25.4335C24.6137 29.2644 20.2921 31.7678 15.4048 31.7678C7.4128 31.7678 0.937256 25.0781 0.937256 16.8285C0.937256 15.3409 1.14792 13.9034 1.54122 12.5479C1.95938 11.0981 2.58543 9.74229 3.38743 8.51266C3.39058 8.50004 3.40005 8.48742 3.40952 8.47479C3.9409 7.66017 4.55117 6.90236 5.22733 6.21042C7.84082 3.54013 11.4358 1.88879 15.4051 1.88879C23.3963 1.8884 29.8723 8.57815 29.8723 16.8281Z" fill="url(#paint1_linear_21_1856)"/>
<path opacity="0.5" d="M9.74344 19.5012C9.74344 24.8856 14.1089 29.251 19.4932 29.251C22.6448 29.251 25.45 27.7539 27.2335 25.4327C24.6137 29.2636 20.2921 31.7671 15.4048 31.7671C7.4128 31.7671 0.937256 25.0773 0.937256 16.8278C0.937256 15.3401 1.14792 13.9026 1.54122 12.5471C3.94406 7.58724 8.89766 4.18713 14.6189 4.18713C22.6957 4.18713 29.2438 10.968 29.2438 19.3343V19.4065C29.1933 14.0659 24.8469 9.75101 19.494 9.75101C14.1089 9.75141 9.74344 14.1168 9.74344 19.5012Z" fill="#1944F7"/>
<path d="M47.7552 7.05868C48.3662 7.05868 48.9138 7.17396 49.398 7.40451C49.8937 7.63507 50.3144 7.98667 50.6603 8.45931H50.7467L50.9542 7.2316H52.1647V16.6556C52.1647 17.5317 52.0148 18.2638 51.7151 18.8517C51.4153 19.4511 50.96 19.9007 50.349 20.2004C49.738 20.5002 48.9599 20.65 48.0146 20.65C47.346 20.65 46.7293 20.5982 46.1644 20.4944C45.6111 20.4022 45.1154 20.2581 44.6773 20.0621V18.6615C44.977 18.8113 45.3056 18.9381 45.6629 19.0419C46.0203 19.1572 46.4065 19.2436 46.8215 19.3013C47.2365 19.3589 47.663 19.3877 48.1011 19.3877C48.8965 19.3877 49.519 19.1514 49.9686 18.6788C50.4297 18.2177 50.6603 17.5836 50.6603 16.7767V16.4135C50.6603 16.2752 50.666 16.0792 50.6776 15.8256C50.6891 15.5605 50.7006 15.376 50.7121 15.2723H50.643C50.3202 15.7449 49.9167 16.0965 49.4325 16.3271C48.9599 16.5576 48.4066 16.6729 47.7725 16.6729C46.5736 16.6729 45.6341 16.2522 44.954 15.4106C44.2854 14.5691 43.951 13.3932 43.951 11.8831C43.951 10.8917 44.1009 10.0386 44.4006 9.3239C44.7119 8.59765 45.1499 8.03855 45.7148 7.6466C46.2797 7.25465 46.9598 7.05868 47.7552 7.05868ZM47.9627 8.33827C47.444 8.33827 47.0002 8.4766 46.6313 8.75327C46.2739 9.02994 45.9972 9.43342 45.8013 9.9637C45.6168 10.494 45.5246 11.1395 45.5246 11.9004C45.5246 13.0416 45.7321 13.9178 46.1471 14.5287C46.5736 15.1282 47.1904 15.4279 47.9973 15.4279C48.47 15.4279 48.8734 15.3703 49.2078 15.255C49.5421 15.1282 49.8187 14.938 50.0378 14.6844C50.2568 14.4192 50.4182 14.0849 50.5219 13.6814C50.6257 13.278 50.6776 12.7996 50.6776 12.2462V11.8831C50.6776 11.0416 50.5796 10.3614 50.3836 9.84266C50.1992 9.3239 49.9052 8.94348 49.5017 8.7014C49.0982 8.45931 48.5853 8.33827 47.9627 8.33827ZM58.6185 7.07597C59.7483 7.07597 60.584 7.32382 61.1259 7.81952C61.6677 8.31521 61.9386 9.10487 61.9386 10.1885V16.5H60.8319L60.5379 15.1858H60.4688C60.2036 15.5201 59.927 15.8026 59.6388 16.0331C59.3621 16.2522 59.0393 16.4135 58.6704 16.5173C58.3131 16.621 57.875 16.6729 57.3562 16.6729C56.8029 16.6729 56.3014 16.5749 55.8519 16.379C55.4138 16.183 55.068 15.8833 54.8144 15.4798C54.5607 15.0648 54.4339 14.546 54.4339 13.9235C54.4339 13.0013 54.7971 12.2923 55.5233 11.7966C56.2496 11.2894 57.3678 11.0127 58.8779 10.9666L60.4515 10.9147V10.3614C60.4515 9.58904 60.2843 9.053 59.95 8.75327C59.6157 8.45355 59.1431 8.30369 58.5321 8.30369C58.0479 8.30369 57.5868 8.37862 57.1487 8.52848C56.7107 8.66681 56.3014 8.8282 55.921 9.01265L55.4541 7.87139C55.8576 7.65236 56.336 7.46792 56.8894 7.31805C57.4427 7.15666 58.0191 7.07597 58.6185 7.07597ZM59.0681 12.0214C57.9153 12.0675 57.1142 12.252 56.6646 12.5748C56.2265 12.8975 56.0075 13.3529 56.0075 13.9408C56.0075 14.4596 56.1631 14.84 56.4744 15.0821C56.7971 15.3242 57.2064 15.4452 57.7021 15.4452C58.486 15.4452 59.1373 15.2319 59.6561 14.8054C60.1748 14.3673 60.4342 13.6987 60.4342 12.7996V11.9695L59.0681 12.0214ZM66.3229 16.5H64.8012V3.35823H66.3229V16.5ZM70.7809 16.5H69.2592V3.35823H70.7809V16.5ZM77.2967 7.05868C78.0921 7.05868 78.7722 7.2316 79.3371 7.57743C79.9135 7.92327 80.3515 8.4132 80.6513 9.04723C80.9625 9.66974 81.1182 10.4018 81.1182 11.2433V12.1598H74.7721C74.7951 13.2088 75.0603 14.01 75.5675 14.5633C76.0862 15.1051 76.8067 15.376 77.729 15.376C78.3169 15.376 78.8356 15.3242 79.2852 15.2204C79.7463 15.1051 80.219 14.9437 80.7031 14.7362V16.0677C80.2305 16.2752 79.7636 16.4251 79.3025 16.5173C78.8414 16.621 78.2938 16.6729 77.6598 16.6729C76.7837 16.6729 76.0055 16.4942 75.3254 16.1369C74.6568 15.7795 74.1323 15.2492 73.7518 14.546C73.383 13.8313 73.1985 12.9609 73.1985 11.935C73.1985 10.9205 73.3657 10.0502 73.7 9.3239C74.0458 8.59765 74.5242 8.03855 75.1352 7.6466C75.7577 7.25465 76.4782 7.05868 77.2967 7.05868ZM77.2794 8.30369C76.5531 8.30369 75.9767 8.54001 75.5502 9.01265C75.1352 9.47377 74.8873 10.1193 74.8066 10.9493H79.5273C79.5273 10.4191 79.4466 9.95794 79.2852 9.56599C79.1238 9.17404 78.876 8.86855 78.5417 8.64952C78.2189 8.41897 77.7981 8.30369 77.2794 8.30369ZM87.8006 7.05868C87.9735 7.05868 88.158 7.07021 88.354 7.09326C88.5615 7.10479 88.7401 7.12784 88.89 7.16243L88.6998 8.56306C88.5499 8.52848 88.3828 8.49966 88.1983 8.4766C88.0254 8.45355 87.8583 8.44202 87.6969 8.44202C87.3395 8.44202 86.9994 8.51695 86.6767 8.66681C86.3539 8.81668 86.0657 9.02994 85.8121 9.30661C85.5585 9.57175 85.3567 9.89453 85.2069 10.275C85.0685 10.6554 84.9994 11.0819 84.9994 11.5545V16.5H83.4777V7.2316H84.7227L84.8956 8.92619H84.9648C85.1607 8.58036 85.3971 8.2691 85.6737 7.99243C85.9504 7.70424 86.2674 7.47944 86.6248 7.31805C86.9821 7.14514 87.3741 7.05868 87.8006 7.05868ZM89.1682 7.2316H90.7936L92.7994 12.5056C92.9147 12.8168 93.0185 13.1166 93.1107 13.4048C93.2144 13.693 93.3067 13.9754 93.3874 14.2521C93.4681 14.5172 93.5315 14.7766 93.5776 15.0302H93.6467C93.7159 14.742 93.8254 14.3673 93.9753 13.9062C94.1251 13.4336 94.2808 12.9609 94.4422 12.4883L96.327 7.2316H97.9697L93.9753 17.7796C93.7563 18.356 93.4969 18.8574 93.1971 19.284C92.909 19.722 92.5516 20.0563 92.1251 20.2869C91.7101 20.529 91.2028 20.65 90.6034 20.65C90.3267 20.65 90.0846 20.6327 89.8771 20.5982C89.6696 20.5751 89.4909 20.5463 89.3411 20.5117V19.3013C89.4679 19.3243 89.6177 19.3474 89.7907 19.3704C89.9751 19.3935 90.1653 19.405 90.3613 19.405C90.7187 19.405 91.0241 19.3359 91.2778 19.1975C91.5429 19.0707 91.7677 18.8805 91.9521 18.6269C92.1366 18.3848 92.2922 18.0966 92.419 17.7623L92.9032 16.5346L89.1682 7.2316Z" fill="#166FF7"/>
<path d="M59.9528 32.5H53.1744V31.4971L58.1544 24.4074H53.4683V23.2316H59.8317V24.3729L54.9209 31.3242H59.9528V32.5ZM65.6716 23.0587C66.467 23.0587 67.1472 23.2316 67.7121 23.5774C68.2884 23.9233 68.7265 24.4132 69.0262 25.0472C69.3375 25.6697 69.4931 26.4018 69.4931 27.2433V28.1598H63.147C63.1701 29.2088 63.4352 30.01 63.9424 30.5633C64.4612 31.1051 65.1817 31.376 66.1039 31.376C66.6918 31.376 67.2106 31.3242 67.6602 31.2204C68.1213 31.1051 68.5939 30.9437 69.0781 30.7362V32.0677C68.6055 32.2752 68.1386 32.4251 67.6775 32.5173C67.2164 32.621 66.6688 32.6729 66.0348 32.6729C65.1586 32.6729 64.3805 32.4942 63.7004 32.1369C63.0317 31.7795 62.5072 31.2492 62.1268 30.546C61.7579 29.8313 61.5735 28.9609 61.5735 27.935C61.5735 26.9205 61.7406 26.0502 62.0749 25.3239C62.4208 24.5976 62.8992 24.0385 63.5101 23.6466C64.1327 23.2547 64.8531 23.0587 65.6716 23.0587ZM65.6543 24.3037C64.9281 24.3037 64.3517 24.54 63.9252 25.0127C63.5101 25.4738 63.2623 26.1193 63.1816 26.9493H67.9023C67.9023 26.4191 67.8216 25.9579 67.6602 25.566C67.4988 25.174 67.2509 24.8686 66.9166 24.6495C66.5939 24.419 66.1731 24.3037 65.6543 24.3037ZM76.1756 23.0587C76.3485 23.0587 76.5329 23.0702 76.7289 23.0933C76.9364 23.1048 77.1151 23.1278 77.265 23.1624L77.0748 24.5631C76.9249 24.5285 76.7577 24.4997 76.5733 24.4766C76.4004 24.4535 76.2332 24.442 76.0718 24.442C75.7145 24.442 75.3744 24.517 75.0516 24.6668C74.7288 24.8167 74.4406 25.0299 74.187 25.3066C73.9334 25.5718 73.7317 25.8945 73.5818 26.275C73.4435 26.6554 73.3743 27.0819 73.3743 27.5545V32.5H71.8526V23.2316H73.0976L73.2706 24.9262H73.3397C73.5357 24.5804 73.772 24.2691 74.0487 23.9924C74.3254 23.7042 74.6424 23.4794 74.9997 23.3181C75.3571 23.1451 75.749 23.0587 76.1756 23.0587ZM86.7159 27.8485C86.7159 28.6209 86.6121 29.3068 86.4046 29.9062C86.2087 30.4942 85.9205 30.9956 85.54 31.4106C85.1711 31.8256 84.7158 32.1426 84.174 32.3617C83.6437 32.5692 83.05 32.6729 82.3929 32.6729C81.782 32.6729 81.2171 32.5692 80.6983 32.3617C80.1796 32.1426 79.73 31.8256 79.3496 31.4106C78.9692 30.9956 78.6694 30.4942 78.4504 29.9062C78.2429 29.3068 78.1391 28.6209 78.1391 27.8485C78.1391 26.8225 78.3121 25.9579 78.6579 25.2547C79.0037 24.54 79.4994 23.9982 80.145 23.6293C80.7906 23.2489 81.5572 23.0587 82.4448 23.0587C83.2863 23.0587 84.0241 23.2489 84.6582 23.6293C85.3037 23.9982 85.8052 24.54 86.1625 25.2547C86.5314 25.9579 86.7159 26.8225 86.7159 27.8485ZM79.7127 27.8485C79.7127 28.5748 79.8049 29.2088 79.9894 29.7506C80.1853 30.2809 80.4851 30.6901 80.8885 30.9783C81.292 31.2665 81.805 31.4106 82.4275 31.4106C83.05 31.4106 83.563 31.2665 83.9665 30.9783C84.37 30.6901 84.6639 30.2809 84.8484 29.7506C85.0443 29.2088 85.1423 28.5748 85.1423 27.8485C85.1423 27.1107 85.0443 26.4825 84.8484 25.9637C84.6524 25.4449 84.3527 25.0472 83.9492 24.7706C83.5572 24.4824 83.0443 24.3383 82.4102 24.3383C81.4649 24.3383 80.779 24.6495 80.3525 25.272C79.926 25.8945 79.7127 26.7534 79.7127 27.8485Z" fill="#166FF7"/>
<defs>
<linearGradient id="paint0_linear_21_1856" x1="31.6304" y1="35.6106" x2="7.94726" y2="4.1563" gradientUnits="userSpaceOnUse">
<stop stop-color="#0084FF"/>
<stop offset="1" stop-color="#2BF6E7"/>
</linearGradient>
<linearGradient id="paint1_linear_21_1856" x1="13.4184" y1="30.4026" x2="19.5515" y2="-11.5065" gradientUnits="userSpaceOnUse">
<stop stop-color="#008CF5"/>
<stop offset="0.2315" stop-color="#048FF5"/>
<stop offset="0.4434" stop-color="#0F96F7"/>
<stop offset="0.6476" stop-color="#21A3F9"/>
<stop offset="0.8459" stop-color="#3BB5FB"/>
<stop offset="1" stop-color="#55C7FE"/>
</linearGradient>
</defs>
</svg>
