<svg width="242" height="64" viewBox="0 0 242 64" fill="none" xmlns="http://www.w3.org/2000/svg">
<path d="M33.2078 41.0044C32.0896 41.0044 31.1154 40.7738 30.2854 40.3127C29.467 39.8516 28.8272 39.2176 28.3661 38.4106C27.9165 37.5921 27.6917 36.6469 27.6917 35.5748C27.6917 34.4681 27.9165 33.5113 28.3661 32.7043C28.8156 31.8858 29.4497 31.2518 30.2682 30.8022C31.0982 30.3526 32.078 30.1278 33.2078 30.1278C34.3605 30.1278 35.3462 30.3526 36.1647 30.8022C36.9947 31.2403 37.6287 31.8686 38.0668 32.687C38.5048 33.494 38.7238 34.4566 38.7238 35.5748C38.7238 36.6699 38.499 37.6267 38.0495 38.4452C37.5999 39.2637 36.9601 39.8919 36.1301 40.33C35.3116 40.7796 34.3375 41.0044 33.2078 41.0044ZM33.2078 39.915C34.6257 39.915 35.7151 39.5288 36.4759 38.7565C37.2483 37.9841 37.6345 36.9235 37.6345 35.5748C37.6345 34.1684 37.2367 33.0905 36.4413 32.3412C35.6459 31.5919 34.568 31.2172 33.2078 31.2172C31.8475 31.2172 30.7696 31.6034 29.9742 32.3758C29.1788 33.1481 28.7811 34.2145 28.7811 35.5748C28.7811 36.4739 28.9713 37.2463 29.3517 37.8919C29.7321 38.5374 30.2566 39.0389 30.9252 39.3962C31.5939 39.7421 32.3547 39.915 33.2078 39.915ZM42.5933 40.6758C42.4434 40.6758 42.3166 40.624 42.2129 40.5202C42.1206 40.428 42.0745 40.307 42.0745 40.1571C42.0399 39.5231 41.9823 38.8371 41.9016 38.0994C41.8324 37.3616 41.7402 36.6123 41.6249 35.8514C41.5212 35.0791 41.4002 34.347 41.2618 33.6554C41.1235 32.9522 40.9794 32.3297 40.8295 31.7879C40.8065 31.6956 40.7949 31.6322 40.7949 31.5976C40.7949 31.4478 40.8468 31.3325 40.9506 31.2518C41.0658 31.1711 41.1869 31.1308 41.3137 31.1308C41.429 31.1308 41.5327 31.1654 41.6249 31.2345C41.7287 31.2922 41.7979 31.3786 41.8324 31.4939C41.9593 31.8974 42.0803 32.3758 42.1956 32.9291C42.3109 33.4825 42.4146 34.0416 42.5068 34.6064C42.599 35.1598 42.6682 35.6497 42.7143 36.0762C42.9334 35.1655 43.3022 34.3816 43.821 33.7245C44.3513 33.0559 44.9911 32.5429 45.7404 32.1856C46.5012 31.8282 47.3255 31.6495 48.2131 31.6495C48.9394 31.6495 49.6714 31.7821 50.4092 32.0472C50.6397 32.151 50.755 32.3066 50.755 32.5141C50.755 32.8599 50.5879 33.0329 50.2536 33.0329C50.1729 33.0329 50.1095 33.0271 50.0633 33.0156C49.51 32.8311 48.9048 32.7389 48.2477 32.7389C47.3024 32.7389 46.507 32.9291 45.8614 33.3095C45.2159 33.69 44.6914 34.2202 44.2879 34.9004C43.8959 35.5805 43.6077 36.3644 43.4233 37.2521C43.2388 38.1397 43.1351 39.0965 43.112 40.1225C43.112 40.307 43.0544 40.4453 42.9391 40.5375C42.8354 40.6297 42.7201 40.6758 42.5933 40.6758ZM58.5977 42.8546C58.102 42.8546 57.6812 42.6875 57.3354 42.3531C56.9895 42.0188 56.8281 41.5981 56.8512 41.0908C56.9204 40.5951 57.1394 40.1974 57.5083 39.8977C57.8887 39.598 58.344 39.3674 58.8743 39.206C59.4046 39.0331 59.9291 38.9006 60.4479 38.8083C60.4825 38.4625 60.5055 38.2377 60.517 38.1339C60.5401 38.0187 60.5574 37.9322 60.5689 37.8746C60.0156 38.3242 59.3816 38.6758 58.6668 38.9294C57.9521 39.183 57.2374 39.3098 56.5226 39.3098C55.8425 39.3098 55.2085 39.1887 54.6205 38.9467C53.756 38.5778 53.0931 38.0129 52.632 37.2521C52.1824 36.4797 51.9576 35.6555 51.9576 34.7793C51.9576 33.8341 52.1824 32.9983 52.632 32.272C53.0931 31.5458 53.7156 30.9751 54.4995 30.5601C55.2834 30.1451 56.1595 29.9376 57.1279 29.9376C57.8195 29.9376 58.4709 30.0529 59.0818 30.2835C59.6928 30.514 60.2231 30.8656 60.6727 31.3383C60.8686 31.3383 61.0012 31.3786 61.0704 31.4593C61.1511 31.54 61.203 31.6438 61.226 31.7706C61.3528 32.347 61.4508 33.0559 61.52 33.8975C61.6007 34.739 61.641 35.569 61.641 36.3875C61.641 36.8371 61.6295 37.2636 61.6064 37.6671C61.5834 38.0705 61.543 38.4279 61.4854 38.7392C62.0387 38.7392 62.2866 38.9294 62.2289 39.3098C62.2289 39.4366 62.1771 39.5461 62.0733 39.6383C61.9811 39.7306 61.8485 39.7767 61.6756 39.7767C61.6525 39.7651 61.618 39.7594 61.5718 39.7594C61.5257 39.7594 61.4335 39.7594 61.2952 39.7594C61.1684 40.3242 60.9955 40.8372 60.7764 41.2983C60.5574 41.771 60.2692 42.1456 59.9118 42.4223C59.566 42.7105 59.1279 42.8546 58.5977 42.8546ZM55.3641 38.0994C55.7215 38.2146 56.1134 38.2723 56.5399 38.2723C57.3008 38.2723 58.0558 38.0936 58.8052 37.7362C59.5545 37.3789 60.1654 36.9005 60.6381 36.301C60.6381 36.1166 60.6266 35.8514 60.6035 35.5056C60.5805 35.1598 60.5459 34.7909 60.4998 34.3989C60.4652 33.9954 60.4248 33.6323 60.3787 33.3095C60.3441 32.9752 60.3153 32.7331 60.2923 32.5833C60.0963 32.2259 59.8081 31.9262 59.4277 31.6841C59.0472 31.442 58.6265 31.2633 58.1654 31.1481C57.7158 31.0213 57.272 30.9579 56.8339 30.9579C56.0615 30.9809 55.3929 31.1654 54.828 31.5112C54.2632 31.8455 53.8251 32.3008 53.5139 32.8772C53.2141 33.4421 53.0643 34.0934 53.0643 34.8312C53.0643 35.6036 53.2603 36.2837 53.6522 36.8716C54.0557 37.4596 54.6263 37.8688 55.3641 38.0994ZM58.6322 41.8517C58.9204 41.8517 59.1625 41.7479 59.3585 41.5404C59.566 41.3329 59.7389 41.0793 59.8773 40.7796C60.0156 40.4799 60.1251 40.1859 60.2058 39.8977C59.883 39.9669 59.5429 40.0591 59.1856 40.1744C58.8282 40.2897 58.5227 40.428 58.2691 40.5894C58.027 40.7623 57.906 40.9756 57.906 41.2292C57.906 41.4021 57.9752 41.5462 58.1135 41.6615C58.2633 41.7883 58.4363 41.8517 58.6322 41.8517ZM69.5231 40.9006C69.4309 40.9122 69.3329 40.9179 69.2291 40.9179C69.1369 40.9179 69.0447 40.9179 68.9525 40.9179C67.9265 40.9179 67.01 40.6989 66.2031 40.2608C65.3961 39.8343 64.7621 39.2406 64.301 38.4798C63.8399 37.7189 63.6093 36.8486 63.6093 35.8687C63.6093 34.9465 63.788 34.0992 64.1454 33.3268C64.5142 32.5429 65.033 31.8916 65.7016 31.3729C66.3702 30.8541 67.1599 30.5256 68.0706 30.3872C68.1974 30.3642 68.3357 30.3469 68.4856 30.3353C68.6355 30.3238 68.7853 30.3181 68.9352 30.3181C69.5577 30.3181 70.2032 30.4045 70.8719 30.5774C71.552 30.7388 72.1226 30.9694 72.5837 31.2691C72.6414 31.1423 72.7336 31.0674 72.8604 31.0443C72.9872 31.0097 73.091 31.004 73.1717 31.027C73.2985 31.0385 73.3965 31.0962 73.4656 31.1999C73.5348 31.3037 73.5694 31.4247 73.5694 31.5631C73.5579 31.8282 73.5463 32.0876 73.5348 32.3412C73.5348 32.5948 73.5348 32.8484 73.5348 33.102C73.5348 34.3932 73.627 35.5402 73.8115 36.5431C74.0074 37.546 74.3706 38.4221 74.9009 39.1715C74.97 39.2752 75.0046 39.379 75.0046 39.4827C75.0046 39.621 74.947 39.7363 74.8317 39.8285C74.7279 39.9208 74.6127 39.9669 74.4858 39.9669C74.3129 39.9669 74.1688 39.8919 74.0536 39.7421C73.9383 39.5807 73.823 39.402 73.7077 39.206C73.604 39.0101 73.5175 38.8371 73.4483 38.6873C72.9757 39.3444 72.3993 39.8516 71.7192 40.209C71.039 40.5779 70.307 40.8084 69.5231 40.9006ZM69.1773 39.8977C69.9612 39.8977 70.6817 39.6787 71.3387 39.2406C72.0074 38.8026 72.5492 38.2031 72.9642 37.4423C72.7913 36.7967 72.6644 36.0474 72.5837 35.1943C72.5031 34.3413 72.4685 33.4536 72.48 32.5314C72.2494 32.2778 71.944 32.0645 71.5635 31.8916C71.1831 31.7187 70.7681 31.5861 70.3185 31.4939C69.8689 31.4017 69.4251 31.3556 68.9871 31.3556C68.6989 31.3556 68.428 31.3729 68.1743 31.4074C67.9207 31.442 67.6844 31.5054 67.4654 31.5976C66.5893 31.9204 65.8918 32.4622 65.3731 33.2231C64.8658 33.9724 64.6122 34.8312 64.6122 35.7996C64.6122 36.6526 64.814 37.3846 65.2174 37.9956C65.6324 38.6066 66.1858 39.0792 66.8775 39.4135C67.5691 39.7363 68.3357 39.8977 69.1773 39.8977ZM86.3179 40.7796C86.168 40.7796 86.0355 40.7277 85.9202 40.624C85.8164 40.5317 85.7646 40.4107 85.7646 40.2608C85.7646 40.2147 85.7761 40.1571 85.7991 40.0879C85.9951 39.4769 86.1507 38.8371 86.266 38.1685C86.3928 37.4884 86.4562 36.8371 86.4562 36.2146C86.4562 34.9811 86.1969 34.0012 85.6781 33.275C85.1709 32.5372 84.3639 32.1279 83.2572 32.0472C82.4272 32.0127 81.7125 32.2202 81.1131 32.6697C80.5136 33.1193 80.0122 33.713 79.6087 34.4508C79.2513 35.1309 78.9804 35.9033 78.796 36.7679C78.623 37.6325 78.5366 38.474 78.5366 39.2925C78.5366 39.4078 78.5366 39.5231 78.5366 39.6383C78.5366 39.7651 78.5424 39.8862 78.5539 40.0015C78.5539 40.209 78.4905 40.3531 78.3637 40.4338C78.2484 40.526 78.1273 40.5721 78.0005 40.5721C77.7123 40.5721 77.551 40.4049 77.5164 40.0706C77.4357 39.3444 77.3607 38.5374 77.2916 37.6498C77.2339 36.7506 77.1821 35.8514 77.136 34.9523C77.1014 34.0416 77.0841 33.2058 77.0841 32.4449C77.0841 32.2259 77.0841 32.0184 77.0841 31.8224C77.0841 31.6265 77.0898 31.442 77.1014 31.2691C77.1014 31.0731 77.159 30.9348 77.2743 30.8541C77.4011 30.7734 77.5221 30.7446 77.6374 30.7676C77.7757 30.7676 77.891 30.8138 77.9833 30.906C78.087 30.9982 78.1389 31.125 78.1389 31.2864C78.1504 31.736 78.1562 32.1279 78.1562 32.4622C78.1562 32.7965 78.1562 33.1424 78.1562 33.4997C78.1677 33.8571 78.1735 34.3125 78.1735 34.8658C78.4155 34.0819 78.7729 33.3902 79.2456 32.7908C79.7297 32.1913 80.2946 31.7245 80.9401 31.3901C81.5857 31.0443 82.2774 30.8714 83.0152 30.8714C83.972 30.8714 84.7847 31.0847 85.4533 31.5112C86.1335 31.9377 86.6522 32.5372 87.0096 33.3095C87.3669 34.0704 87.5456 34.9523 87.5456 35.9552C87.5456 36.7275 87.4764 37.4769 87.3381 38.2031C87.1998 38.9294 87.0153 39.6672 86.7848 40.4165C86.7502 40.5433 86.6868 40.6355 86.5946 40.6931C86.5139 40.7508 86.4216 40.7796 86.3179 40.7796ZM92.07 34.3125C91.3322 34.3125 90.7385 34.0819 90.2889 33.6208C89.8393 33.1597 89.6146 32.5948 89.6146 31.9262C89.6146 31.2115 89.8393 30.6351 90.2889 30.197C90.7385 29.759 91.3322 29.5399 92.07 29.5399C92.5542 29.5399 92.9807 29.6494 93.3496 29.8685C93.7185 30.076 94.0009 30.3584 94.1969 30.7158C94.4044 31.0731 94.5081 31.4766 94.5081 31.9262C94.5081 32.3758 94.4044 32.7793 94.1969 33.1366C93.9894 33.494 93.7012 33.7822 93.3323 34.0012C92.9634 34.2087 92.5426 34.3125 92.07 34.3125ZM92.07 33.275C92.5311 33.275 92.8827 33.1481 93.1248 32.8945C93.3669 32.6409 93.4879 32.3181 93.4879 31.9262C93.4879 31.4997 93.3611 31.1711 93.1075 30.9406C92.8539 30.6985 92.508 30.5774 92.07 30.5774C91.6089 30.5774 91.2573 30.7042 91.0152 30.9579C90.7731 31.1999 90.6521 31.5227 90.6521 31.9262C90.6521 32.3412 90.7789 32.6697 91.0325 32.9118C91.2861 33.1539 91.6319 33.275 92.07 33.275ZM92.07 40.6758C91.8855 40.6758 91.753 40.624 91.6723 40.5202C91.5916 40.428 91.5455 40.3185 91.5339 40.1917C91.4994 39.3386 91.4821 38.4625 91.4821 37.5633C91.4821 36.8025 91.4994 36.0935 91.5339 35.4364C91.5455 35.252 91.6089 35.1252 91.7242 35.056C91.851 34.9753 91.972 34.9465 92.0873 34.9695C92.2256 34.9695 92.3409 35.0214 92.4331 35.1252C92.5253 35.2289 92.5715 35.3615 92.5715 35.5229C92.5484 35.6382 92.5311 35.886 92.5196 36.2664C92.508 36.6469 92.5023 37.0676 92.5023 37.5287C92.5023 37.8976 92.5023 38.2665 92.5023 38.6354C92.5138 38.9928 92.5253 39.304 92.5369 39.5692C92.5484 39.8343 92.5599 40.013 92.5715 40.1052C92.5715 40.3012 92.5196 40.4453 92.4158 40.5375C92.3121 40.6297 92.1968 40.6758 92.07 40.6758ZM99.666 40.8488C98.859 40.5951 98.1731 40.209 97.6082 39.6902C97.0434 39.183 96.6168 38.5951 96.3286 37.9264C96.0404 37.2463 95.8963 36.5316 95.8963 35.7823C95.8963 34.9638 96.0635 34.1568 96.3978 33.3614C96.7436 32.566 97.2278 31.9204 97.8503 31.4247C98.346 31.0097 98.9512 30.6985 99.666 30.491C100.381 30.2719 101.107 30.1624 101.845 30.1624C102.559 30.1624 103.245 30.2604 103.902 30.4564C104.56 30.6524 105.113 30.9521 105.562 31.3556C105.689 31.4824 105.753 31.6149 105.753 31.7533C105.753 31.857 105.701 31.9723 105.597 32.0991C105.482 32.2144 105.355 32.272 105.217 32.272C105.078 32.272 104.957 32.2202 104.853 32.1164C104.554 31.8167 104.11 31.5919 103.522 31.442C102.934 31.2806 102.335 31.1999 101.724 31.1999C101.297 31.1999 100.882 31.2403 100.479 31.321C100.087 31.3901 99.7466 31.4997 99.4584 31.6495C98.6515 32.0415 98.029 32.6179 97.5909 33.3787C97.1644 34.128 96.9511 34.9292 96.9511 35.7823C96.9511 36.6584 97.199 37.4653 97.6947 38.2031C98.2019 38.9294 98.9109 39.4539 99.8216 39.7767C100.409 39.9842 101.009 40.0879 101.62 40.0879C102.231 40.0879 102.825 39.9842 103.401 39.7767C103.989 39.5807 104.496 39.2983 104.923 38.9294C105.049 38.8371 105.171 38.791 105.286 38.791C105.436 38.791 105.568 38.8487 105.683 38.964C105.776 39.0908 105.822 39.2118 105.822 39.3271C105.822 39.4654 105.758 39.5865 105.632 39.6902C105.078 40.1744 104.456 40.5375 103.764 40.7796C103.072 41.0217 102.363 41.1427 101.637 41.1427C100.98 41.1427 100.323 41.0447 99.666 40.8488Z" fill="#E66225"/>
<path d="M136.901 22.8435C136.901 22.8435 124.823 24.6439 122.871 33.5499C120.918 42.4555 125.141 47.2132 125.141 47.2132C125.141 47.2132 110.799 37.5205 120.187 25.4977C126.855 16.958 136.901 22.8435 136.901 22.8435Z" fill="#E66225"/>
<path d="M145.002 14.8804C145.779 14.1096 146.377 13.0733 147.071 12.2247C147.182 12.0892 147.085 11.9001 146.913 11.9207C146.159 12.0099 145.199 11.9597 144.391 11.7265C143.071 11.348 141.761 10.8812 140.451 10.8488C139.195 10.8188 137.385 11.1401 136.254 11.993C137.05 12.4297 137.835 12.8984 138.526 13.4951C138.87 13.4153 139.223 13.3722 139.582 13.383C140.156 13.4027 140.778 13.5927 141.359 13.6616C140.697 13.6982 140.027 13.7104 139.387 13.7737C139.227 13.7897 139.069 13.8155 138.914 13.8511C139.263 14.1978 139.582 14.5876 139.857 15.0319C140.176 15.5498 140.4 16.116 140.534 16.7559C140.718 16.7868 140.901 16.8075 141.07 16.8056C142.555 16.7849 143.961 15.9133 145.002 14.8804Z" fill="#3C8223"/>
<path d="M131.681 9.33828C131.652 9.30216 131.618 9.27776 131.583 9.26557C131.444 9.20927 131.275 9.30169 131.261 9.48183C131.151 10.8906 130.782 12.3922 130.818 13.8051C130.866 15.6985 131.501 17.513 132.866 18.8603C133.21 19.1994 133.605 19.4903 134.024 19.7553C135.216 20.5124 136.606 21.0782 137.582 22.0352C137.651 22.1032 137.717 22.1492 137.778 22.174C138.538 22.4799 138.645 19.6624 137.046 17.7897C136.719 17.4069 136.364 17.0331 136.006 16.6587C135.943 16.593 136.019 16.4969 136.092 16.5264C136.1 16.5297 136.108 16.5325 136.113 16.5396C136.442 16.7957 136.762 17.0565 137.067 17.33C138.217 18.3606 138.997 19.6047 139.025 21.18C139.05 22.5493 138.697 24.0706 137.844 25.1496C137.724 25.3035 137.897 25.515 138.068 25.4456C138.2 25.3931 138.293 25.2495 138.374 25.1402C138.738 24.643 138.984 24.0561 139.23 23.4955C139.835 22.1126 140.192 20.6213 140.269 19.1136C140.313 18.2828 140.29 17.4586 140.099 16.6719C139.978 16.1793 139.791 15.7008 139.512 15.2472C139.212 14.764 138.858 14.3479 138.463 13.9825C138.33 13.8591 138.192 13.7395 138.051 13.6269C137.403 13.1057 136.672 12.6816 135.926 12.2754C134.395 11.445 132.795 10.6898 131.681 9.33828Z" fill="#81CC37"/>
<path d="M141.536 45.994C141.536 45.994 131.655 47.946 131.899 39.6498C132.143 31.3541 142.513 31.7205 143.366 31.9639C144.221 32.2079 153.004 36.1456 147.88 46.1934C142.756 56.2412 131.289 53.1916 131.289 53.1916C131.289 53.1916 152.151 60.5115 156.299 43.4317C160.447 26.352 145.197 20.4956 136.657 23.6677C128.117 26.8398 120.659 35.7107 128.361 44.8954C134.806 52.5817 141.536 45.994 141.536 45.994Z" fill="#FF9429"/>
<path d="M170.908 40.9352C170.677 40.9352 170.522 40.8257 170.441 40.6067C170.291 40.2263 170.147 39.7824 170.009 39.2752C169.87 38.768 169.749 38.2492 169.646 37.7189C169.553 37.1887 169.478 36.7103 169.421 36.2837H168.21C168.026 36.2837 167.893 36.2261 167.813 36.1108C167.732 35.9955 167.692 35.8802 167.692 35.765C167.692 35.6382 167.738 35.5229 167.83 35.4191C167.934 35.3039 168.061 35.2462 168.21 35.2462H169.317C169.283 34.8312 169.265 34.4162 169.265 34.0012C169.265 33.4248 169.3 32.8599 169.369 32.3066C169.438 31.7533 169.548 31.2518 169.698 30.8022C170.02 29.8569 170.504 29.1307 171.15 28.6235C171.796 28.1162 172.603 27.8626 173.571 27.8626C174.205 27.8626 174.816 27.9779 175.404 28.2085C175.992 28.4275 176.493 28.7387 176.908 29.1422C177.323 29.5457 177.588 30.0241 177.704 30.5774C177.75 30.8195 177.698 30.9982 177.548 31.1135C177.398 31.2172 177.26 31.2691 177.133 31.2691C177.006 31.2691 176.897 31.2288 176.804 31.1481C176.724 31.0674 176.666 30.9809 176.632 30.8887C176.436 30.2777 176.061 29.8108 175.508 29.488C174.954 29.1653 174.355 29.0039 173.709 29.0039C172.902 29.0039 172.257 29.2171 171.773 29.6437C171.288 30.0587 170.931 30.6581 170.7 31.442C170.597 31.8224 170.522 32.2432 170.476 32.7043C170.43 33.1654 170.406 33.6266 170.406 34.0877C170.406 34.4911 170.424 34.8773 170.458 35.2462H175.508C175.692 35.2462 175.825 35.3039 175.905 35.4191C175.986 35.5344 176.026 35.6497 176.026 35.765C176.026 35.8918 175.98 36.0128 175.888 36.1281C175.796 36.2318 175.669 36.2837 175.508 36.2837H170.562C170.597 36.595 170.672 37.0676 170.787 37.7017C170.914 38.3357 171.121 39.1772 171.409 40.2263C171.421 40.2608 171.427 40.2954 171.427 40.33C171.438 40.3646 171.444 40.3992 171.444 40.4338C171.444 40.5951 171.392 40.7162 171.288 40.7969C171.185 40.8891 171.058 40.9352 170.908 40.9352ZM184.623 41.0044C183.505 41.0044 182.531 40.7738 181.701 40.3127C180.882 39.8516 180.242 39.2176 179.781 38.4106C179.332 37.5921 179.107 36.6469 179.107 35.5748C179.107 34.4681 179.332 33.5113 179.781 32.7043C180.231 31.8858 180.865 31.2518 181.683 30.8022C182.513 30.3526 183.493 30.1278 184.623 30.1278C185.776 30.1278 186.761 30.3526 187.58 30.8022C188.41 31.2403 189.044 31.8686 189.482 32.687C189.92 33.494 190.139 34.4566 190.139 35.5748C190.139 36.6699 189.914 37.6267 189.465 38.4452C189.015 39.2637 188.375 39.8919 187.545 40.33C186.727 40.7796 185.753 41.0044 184.623 41.0044ZM184.623 39.915C186.041 39.915 187.13 39.5288 187.891 38.7565C188.664 37.9841 189.05 36.9235 189.05 35.5748C189.05 34.1684 188.652 33.0905 187.857 32.3412C187.061 31.5919 185.983 31.2172 184.623 31.2172C183.263 31.2172 182.185 31.6034 181.389 32.3758C180.594 33.1481 180.196 34.2145 180.196 35.5748C180.196 36.4739 180.387 37.2463 180.767 37.8919C181.147 38.5374 181.672 39.0389 182.341 39.3962C183.009 39.7421 183.77 39.915 184.623 39.915ZM197.035 41.0044C195.916 41.0044 194.942 40.7738 194.112 40.3127C193.294 39.8516 192.654 39.2176 192.193 38.4106C191.743 37.5921 191.519 36.6469 191.519 35.5748C191.519 34.4681 191.743 33.5113 192.193 32.7043C192.643 31.8858 193.277 31.2518 194.095 30.8022C194.925 30.3526 195.905 30.1278 197.035 30.1278C198.187 30.1278 199.173 30.3526 199.992 30.8022C200.822 31.2403 201.456 31.8686 201.894 32.687C202.332 33.494 202.551 34.4566 202.551 35.5748C202.551 36.6699 202.326 37.6267 201.876 38.4452C201.427 39.2637 200.787 39.8919 199.957 40.33C199.138 40.7796 198.164 41.0044 197.035 41.0044ZM197.035 39.915C198.453 39.915 199.542 39.5288 200.303 38.7565C201.075 37.9841 201.461 36.9235 201.461 35.5748C201.461 34.1684 201.064 33.0905 200.268 32.3412C199.473 31.5919 198.395 31.2172 197.035 31.2172C195.674 31.2172 194.596 31.6034 193.801 32.3758C193.006 33.1481 192.608 34.2145 192.608 35.5748C192.608 36.4739 192.798 37.2463 193.179 37.8919C193.559 38.5374 194.084 39.0389 194.752 39.3962C195.421 39.7421 196.182 39.915 197.035 39.915ZM209.394 40.7623C208.265 40.7623 207.291 40.5548 206.472 40.1398C205.654 39.7363 205.025 39.1542 204.587 38.3933C204.149 37.621 203.93 36.6987 203.93 35.6266C203.93 34.6352 204.155 33.7764 204.605 33.0502C205.054 32.3239 205.665 31.7648 206.437 31.3729C207.21 30.9694 208.08 30.7676 209.049 30.7676C210.028 30.7676 210.991 30.9694 211.936 31.3729C212.121 31.4535 212.213 31.5804 212.213 31.7533C212.213 31.834 212.184 31.9147 212.126 31.9954C212.023 32.1913 211.856 32.2893 211.625 32.2893C211.544 32.2893 211.458 32.272 211.366 32.2374C210.628 31.9377 209.884 31.7879 209.135 31.7879C208.317 31.7879 207.59 31.9665 206.956 32.3239C206.322 32.6697 205.826 33.1424 205.469 33.7418C205.123 34.3413 204.95 35.0272 204.95 35.7996C204.95 36.618 205.135 37.3212 205.504 37.9092C205.873 38.4971 206.386 38.9467 207.043 39.2579C207.711 39.5692 208.472 39.7248 209.325 39.7248C209.936 39.7248 210.495 39.6499 211.002 39.5C211.51 39.3617 211.954 39.2003 212.334 39.0158C212.265 38.5201 212.213 37.9668 212.178 37.3558C212.144 36.7333 212.126 36.0878 212.126 35.4191C212.126 34.6237 212.144 33.8168 212.178 32.9983C212.224 32.1798 212.276 31.3844 212.334 30.612C212.403 29.8396 212.478 29.1307 212.559 28.4851C212.582 28.3237 212.639 28.2085 212.732 28.1393C212.835 28.0586 212.945 28.0182 213.06 28.0182C213.199 28.0182 213.325 28.0701 213.441 28.1739C213.556 28.2776 213.602 28.4217 213.579 28.6062C213.51 29.2056 213.446 29.8742 213.389 30.612C213.331 31.3498 213.285 32.1222 213.25 32.9291C213.216 33.7245 213.199 34.5142 213.199 35.2981C213.199 36.2434 213.227 37.131 213.285 37.961C213.343 38.791 213.441 39.4885 213.579 40.0533C213.591 40.0879 213.596 40.1398 213.596 40.209C213.596 40.3127 213.562 40.4107 213.493 40.5029C213.423 40.6067 213.325 40.6701 213.199 40.6931C212.853 40.7277 212.639 40.5951 212.559 40.2954L212.524 40.0879C212.098 40.307 211.596 40.4741 211.02 40.5894C210.455 40.7047 209.913 40.7623 209.394 40.7623Z" fill="#E66225"/>
</svg>
