<svg width="159" height="129" viewBox="0 0 159 129" fill="none" xmlns="http://www.w3.org/2000/svg">
<path d="M79.4995 80.28C79.4995 80.28 93.8885 -4.105 128.886 30.893C163.884 65.891 79.4995 80.28 79.4995 80.28ZM79.4995 80.28C79.4995 80.28 -4.88452 65.891 30.1135 30.893C65.1105 -4.105 79.4995 80.28 79.4995 80.28ZM79.4995 79.481C79.4995 79.481 23.8835 1 79.4995 1C135.115 1 79.4995 79.481 79.4995 79.481Z" stroke="#0064BF" stroke-miterlimit="10"/>
<path d="M79.5005 80.96C79.5005 80.96 93.1185 1.09198 126.243 34.217C159.368 67.342 79.5005 80.96 79.5005 80.96ZM79.5005 80.96C79.5005 80.96 -0.36854 67.342 32.7565 34.217C65.8815 1.09198 79.5005 80.96 79.5005 80.96ZM79.4995 80.204C79.4995 80.204 26.8605 5.92297 79.4995 5.92297C132.138 5.92297 79.4995 80.204 79.4995 80.204Z" stroke="#0B6DB7" stroke-miterlimit="10"/>
<path d="M79.5004 81.6401C79.5004 81.6401 92.3484 6.28805 123.6 37.5401C154.851 68.7921 79.5004 81.6401 79.5004 81.6401ZM79.5004 81.6401C79.5004 81.6401 4.14744 68.7921 35.3994 37.5401C66.6514 6.28805 79.5004 81.6401 79.5004 81.6401ZM79.4994 80.927C79.4994 80.927 29.8364 10.847 79.4994 10.847C129.162 10.847 79.4994 80.927 79.4994 80.927Z" stroke="#1576AF" stroke-miterlimit="10"/>
<path d="M79.4995 82.321C79.4995 82.321 91.5785 11.485 120.957 40.864C150.336 70.242 79.4995 82.321 79.4995 82.321ZM79.4995 82.321C79.4995 82.321 8.66354 70.242 38.0425 40.864C67.4215 11.485 79.4995 82.321 79.4995 82.321ZM79.4995 81.65C79.4995 81.65 32.8135 15.77 79.4995 15.77C126.186 15.77 79.4995 81.65 79.4995 81.65Z" stroke="#207EA7" stroke-miterlimit="10"/>
<path d="M79.4995 83.001C79.4995 83.001 90.8085 16.681 118.314 44.187C145.82 71.692 79.4995 83.001 79.4995 83.001ZM79.4995 83.001C79.4995 83.001 13.1805 71.692 40.6855 44.187C68.1915 16.681 79.4995 83.001 79.4995 83.001ZM79.4995 82.373C79.4995 82.373 35.7905 20.693 79.4995 20.693C123.209 20.693 79.4995 82.373 79.4995 82.373Z" stroke="#2A879F" stroke-miterlimit="10"/>
<path d="M79.4994 83.6809C79.4994 83.6809 90.0384 21.8779 115.67 47.5099C141.302 73.1429 79.4994 83.6809 79.4994 83.6809ZM79.4994 83.6809C79.4994 83.6809 17.6964 73.1429 43.3294 47.5099C68.9614 21.8779 79.4994 83.6809 79.4994 83.6809ZM79.4994 83.0959C79.4994 83.0959 38.7664 25.6169 79.4994 25.6169C120.232 25.6169 79.4994 83.0959 79.4994 83.0959Z" stroke="#359097" stroke-miterlimit="10"/>
<path d="M79.4995 84.361C79.4995 84.361 89.2675 27.074 113.028 50.834C136.787 74.593 79.4995 84.361 79.4995 84.361ZM79.4995 84.361C79.4995 84.361 22.2125 74.593 45.9725 50.834C69.7315 27.074 79.4995 84.361 79.4995 84.361ZM79.4995 83.819C79.4995 83.819 41.7435 30.54 79.4995 30.54C117.256 30.54 79.4995 83.819 79.4995 83.819Z" stroke="#40998F" stroke-miterlimit="10"/>
<path d="M79.4995 85.041C79.4995 85.041 88.4975 32.271 110.385 54.157C132.271 76.043 79.4995 85.041 79.4995 85.041ZM79.4995 85.041C79.4995 85.041 26.7295 76.043 48.6155 54.157C70.5015 32.271 79.4995 85.041 79.4995 85.041ZM79.4995 84.541C79.4995 84.541 44.7195 35.462 79.4995 35.462C114.28 35.462 79.4995 84.541 79.4995 84.541Z" stroke="#4AA188" stroke-miterlimit="10"/>
<path d="M79.4995 85.721C79.4995 85.721 87.7275 37.467 107.74 57.48C127.753 77.493 79.4995 85.721 79.4995 85.721ZM79.4995 85.721C79.4995 85.721 31.2455 77.493 51.2585 57.48C71.2715 37.467 79.4995 85.721 79.4995 85.721ZM79.4995 85.264C79.4995 85.264 47.6965 40.386 79.4995 40.386C111.302 40.386 79.4995 85.264 79.4995 85.264Z" stroke="#55AA80" stroke-miterlimit="10"/>
<path d="M79.4995 86.402C79.4995 86.402 86.9575 42.664 105.097 60.804C123.237 78.944 79.4995 86.402 79.4995 86.402ZM79.4995 86.402C79.4995 86.402 35.7615 78.944 53.9015 60.804C72.0415 42.664 79.4995 86.402 79.4995 86.402ZM79.4995 85.987C79.4995 85.987 50.6735 45.309 79.4995 45.309C108.325 45.309 79.4995 85.987 79.4995 85.987Z" stroke="#60B378" stroke-miterlimit="10"/>
<path d="M79.4994 87.082C79.4994 87.082 86.1874 47.86 102.454 64.127C118.721 80.394 79.4994 87.082 79.4994 87.082ZM79.4994 87.082C79.4994 87.082 40.2784 80.394 56.5454 64.127C72.8114 47.86 79.4994 87.082 79.4994 87.082ZM79.4994 86.71C79.4994 86.71 53.6494 50.233 79.4994 50.233C105.349 50.233 79.4994 86.71 79.4994 86.71Z" stroke="#6ABC70" stroke-miterlimit="10"/>
<path d="M79.5005 87.761C79.5005 87.761 85.4175 53.056 99.8115 67.45C114.204 81.844 79.5005 87.761 79.5005 87.761ZM79.5005 87.761C79.5005 87.761 44.7945 81.844 59.1885 67.45C73.5825 53.057 79.5005 87.761 79.5005 87.761ZM79.4995 87.433C79.4995 87.433 56.6265 55.156 79.4995 55.156C102.372 55.156 79.4995 87.433 79.4995 87.433Z" stroke="#75C468" stroke-miterlimit="10"/>
<path d="M79.4995 88.442C79.4995 88.442 84.6465 58.253 97.1675 70.774C109.688 83.294 79.4995 88.442 79.4995 88.442ZM79.4995 88.442C79.4995 88.442 49.3105 83.295 61.8315 70.774C74.3525 58.253 79.4995 88.442 79.4995 88.442ZM79.4995 88.156C79.4995 88.156 59.6025 60.079 79.4995 60.079C99.3965 60.079 79.4995 88.156 79.4995 88.156Z" stroke="#7FCD60" stroke-miterlimit="10"/>
<path d="M79.4994 89.1219C79.4994 89.1219 83.8774 63.45 94.5244 74.097C105.172 84.745 79.4994 89.1219 79.4994 89.1219ZM79.4994 89.1219C79.4994 89.1219 53.8264 84.744 64.4744 74.097C75.1224 63.45 79.4994 89.1219 79.4994 89.1219ZM79.4994 88.8789C79.4994 88.8789 62.5794 65.0029 79.4994 65.0029C96.4194 65.0029 79.4994 88.8789 79.4994 88.8789Z" stroke="#8AD658" stroke-miterlimit="10"/>
<path d="M4.8211 114.569L6.89814 108.253L5.70764 107.991V107.046L9.5831 106.961V107.991L8.62901 108.169L5.69076 116.122H3.79102L0.954089 108.253L0.0844326 107.991V107.046L3.97678 106.961V107.991L2.76939 108.169L4.8211 114.569ZM12.1667 111.799C12.1667 112.745 12.3975 113.502 12.8591 114.07C13.3207 114.633 13.9258 114.915 14.6744 114.915C15.181 114.915 15.651 114.844 16.0844 114.704C16.5178 114.563 16.8753 114.411 17.1567 114.248C17.4381 114.079 17.5789 113.983 17.5789 113.961L18.1868 114.856C18.1868 114.878 17.9982 115.019 17.6211 115.278C17.2496 115.531 16.788 115.765 16.2364 115.979C15.6904 116.187 15.1106 116.291 14.4971 116.291C13.1349 116.291 12.102 115.88 11.3984 115.058C10.7004 114.236 10.3514 113.094 10.3514 111.63C10.3514 110.718 10.5287 109.894 10.8834 109.156C11.2436 108.419 11.7446 107.839 12.3863 107.417C13.0336 106.995 13.7681 106.784 14.59 106.784C17.0104 106.784 18.2206 108.138 18.2206 110.845C18.2206 111.031 18.2093 111.217 18.1868 111.402C18.1643 111.588 18.1474 111.709 18.1361 111.765L12.1667 111.799ZM16.3884 110.499C16.3884 109.795 16.2364 109.227 15.9324 108.793C15.6341 108.354 15.1557 108.135 14.4971 108.135C13.8272 108.135 13.2953 108.36 12.9013 108.81C12.5129 109.261 12.2906 109.823 12.2343 110.499H16.3884ZM25.8195 108.337C25.7407 108.315 25.5521 108.281 25.2538 108.236C24.9555 108.191 24.6262 108.169 24.2659 108.169C23.4385 108.169 22.7996 108.436 22.3493 108.971C21.899 109.505 21.6739 110.305 21.6739 111.369C21.6739 112.522 21.9103 113.403 22.3831 114.011C22.8559 114.614 23.5117 114.915 24.3504 114.915C24.8344 114.915 25.2763 114.836 25.676 114.678C26.0756 114.521 26.4021 114.355 26.6554 114.18C26.9087 114 27.0353 113.899 27.0353 113.876L27.6432 114.915C27.6432 114.937 27.4631 115.069 27.1029 115.312C26.7483 115.554 26.312 115.779 25.7942 115.987C25.2819 116.19 24.7444 116.291 24.1815 116.291C22.7743 116.291 21.702 115.874 20.9646 115.041C20.2272 114.208 19.8585 113.04 19.8585 111.537C19.8585 110.614 20.0415 109.792 20.4074 109.072C20.7789 108.351 21.3023 107.791 21.9778 107.392C22.6533 106.986 23.4441 106.784 24.3504 106.784C24.8119 106.784 25.2622 106.837 25.7013 106.944C26.1403 107.046 26.4978 107.153 26.7736 107.265C27.0494 107.372 27.2239 107.442 27.2971 107.476L27.2042 109.807H26.0812L25.8195 108.337ZM34.2965 108.337H31.7889V113.893C31.7889 114.597 32.076 114.948 32.6501 114.948C33.0216 114.948 33.4719 114.805 34.001 114.518L34.4654 115.43C33.683 116.004 32.8752 116.291 32.0422 116.291C31.4568 116.291 30.9783 116.1 30.6068 115.717C30.2409 115.328 30.058 114.687 30.058 113.792V108.337H28.3271V107.214L30.058 107.046V104.867L31.7889 104.521V107.046H34.2965V108.337ZM39.9029 106.784C41.1806 106.784 42.1769 107.198 42.8918 108.025C43.6066 108.847 43.9641 109.961 43.9641 111.369C43.9641 112.337 43.7839 113.195 43.4237 113.944C43.0691 114.692 42.5625 115.272 41.9039 115.683C41.251 116.088 40.4967 116.291 39.6411 116.291C38.3296 116.291 37.3108 115.897 36.5847 115.109C35.8585 114.321 35.4955 113.161 35.4955 111.63C35.4955 110.662 35.6812 109.812 36.0527 109.08C36.4299 108.343 36.9505 107.777 37.6147 107.383C38.2789 106.984 39.0416 106.784 39.9029 106.784ZM39.8184 108.169C38.9628 108.169 38.3296 108.45 37.9187 109.013C37.5134 109.57 37.3108 110.412 37.3108 111.537C37.3108 113.783 38.1185 114.909 39.734 114.915C40.5783 114.915 41.1919 114.628 41.5746 114.053C41.9574 113.474 42.1488 112.607 42.1488 111.453C42.1488 109.263 41.372 108.169 39.8184 108.169ZM48.363 108.219C48.6895 107.865 49.075 107.538 49.5197 107.24C49.97 106.936 50.4569 106.784 50.9804 106.784C51.2337 106.784 51.4729 106.804 51.6981 106.843C51.9289 106.882 52.1174 106.925 52.2638 106.97C52.4101 107.009 52.5002 107.034 52.534 107.046L52.4495 109.553H51.3181L51.0648 108.253C50.4907 108.253 49.9954 108.391 49.5788 108.667C49.1623 108.942 48.8218 109.255 48.5572 109.604V114.737L50.2881 115.168V116.122H45.3572V115.168L46.8263 114.737V108.337L45.3572 107.991V107.046L48.211 106.961L48.363 108.219ZM60.2005 107.924C61.0166 107.164 61.8919 106.784 62.8263 106.784C64.0478 106.784 64.9709 107.189 65.5957 108C66.2261 108.805 66.5413 109.899 66.5413 111.284C66.5413 112.815 66.1501 114.034 65.3677 114.94C64.5853 115.841 63.4202 116.291 61.8722 116.291C61.3769 116.291 60.859 116.212 60.3187 116.055V118.799L62.134 119.145V120.099H57.2031V119.145L58.5878 118.799V108.337L57.1187 107.991V107.046L60.0569 106.961L60.2005 107.924ZM60.3187 114.569C60.3412 114.591 60.4172 114.628 60.5466 114.678C60.6817 114.729 60.8844 114.782 61.1545 114.839C61.4304 114.889 61.7568 114.915 62.134 114.915C63.862 114.915 64.726 113.761 64.726 111.453C64.726 110.451 64.5375 109.655 64.1603 109.064C63.7888 108.467 63.2288 108.169 62.4801 108.169C62.0186 108.169 61.6246 108.259 61.2981 108.439C60.9772 108.613 60.7324 108.805 60.5635 109.013C60.4003 109.221 60.3187 109.342 60.3187 109.376V114.569ZM71.0247 108.219C71.3512 107.865 71.7368 107.538 72.1814 107.24C72.6318 106.936 73.1186 106.784 73.6421 106.784C73.8954 106.784 74.1347 106.804 74.3598 106.843C74.5906 106.882 74.7792 106.925 74.9255 106.97C75.0719 107.009 75.1619 107.034 75.1957 107.046L75.1113 109.553H73.9799L73.7266 108.253C73.1524 108.253 72.6571 108.391 72.2405 108.667C71.824 108.942 71.4835 109.255 71.2189 109.604V114.737L72.9498 115.168V116.122H68.0189V115.168L69.488 114.737V108.337L68.0189 107.991V107.046L70.8727 106.961L71.0247 108.219ZM80.4643 106.784C81.742 106.784 82.7383 107.198 83.4532 108.025C84.1681 108.847 84.5255 109.961 84.5255 111.369C84.5255 112.337 84.3454 113.195 83.9851 113.944C83.6305 114.692 83.1239 115.272 82.4653 115.683C81.8124 116.088 81.0581 116.291 80.2025 116.291C78.891 116.291 77.8722 115.897 77.1461 115.109C76.42 114.321 76.0569 113.161 76.0569 111.63C76.0569 110.662 76.2427 109.812 76.6142 109.08C76.9913 108.343 77.512 107.777 78.1762 107.383C78.8404 106.984 79.6031 106.784 80.4643 106.784ZM80.3799 108.169C79.5243 108.169 78.891 108.45 78.4801 109.013C78.0748 109.57 77.8722 110.412 77.8722 111.537C77.8722 113.783 78.6799 114.909 80.2954 114.915C81.1397 114.915 81.7533 114.628 82.1361 114.053C82.5188 113.474 82.7102 112.607 82.7102 111.453C82.7102 109.263 81.9334 108.169 80.3799 108.169ZM95.4257 116.038L92.4875 116.122L92.3524 115.134C91.5812 115.905 90.675 116.291 89.6337 116.291C88.4235 116.291 87.5144 115.891 86.9065 115.092C86.3042 114.293 86.0031 113.195 86.0031 111.799C86.0031 110.268 86.3886 109.049 87.1598 108.143C87.9366 107.237 89.0792 106.784 90.5878 106.784C91.1506 106.784 91.6966 106.877 92.2257 107.062V104.192L90.7566 103.846V102.891L93.9566 102.807V114.737L95.4257 115.084V116.038ZM92.2257 108.515C92.192 108.492 92.1047 108.456 91.964 108.405C91.8289 108.349 91.6263 108.295 91.3561 108.245C91.0859 108.194 90.7707 108.169 90.4104 108.169C88.6824 108.169 87.8184 109.322 87.8184 111.63C87.8184 112.643 87.9929 113.446 88.3418 114.037C88.6965 114.622 89.2425 114.915 89.9798 114.915C90.4189 114.915 90.8045 114.819 91.1366 114.628C91.4743 114.436 91.7388 114.228 91.9302 114.003C92.1272 113.778 92.2257 113.648 92.2257 113.614V108.515ZM106.672 116.038L103.818 116.122L103.649 114.915C103.306 115.224 102.839 115.531 102.248 115.835C101.657 116.139 101.057 116.291 100.449 116.291C99.5264 116.291 98.834 116.021 98.3724 115.48C97.9109 114.94 97.6801 114.18 97.6801 113.201V108.337L96.211 107.991V107.046L99.411 106.961V113.023C99.411 113.637 99.532 114.09 99.774 114.383C100.016 114.675 100.413 114.822 100.965 114.822C101.404 114.822 101.806 114.723 102.172 114.526C102.543 114.324 102.853 114.101 103.101 113.859C103.348 113.617 103.472 113.485 103.472 113.462V108.337L102.003 107.991V107.046L105.203 106.961V114.737L106.672 115.084V116.038ZM113.765 108.337C113.686 108.315 113.497 108.281 113.199 108.236C112.9 108.191 112.571 108.169 112.211 108.169C111.384 108.169 110.745 108.436 110.294 108.971C109.844 109.505 109.619 110.305 109.619 111.369C109.619 112.522 109.855 113.403 110.328 114.011C110.801 114.614 111.457 114.915 112.295 114.915C112.779 114.915 113.221 114.836 113.621 114.678C114.021 114.521 114.347 114.355 114.6 114.18C114.854 114 114.98 113.899 114.98 113.876L115.588 114.915C115.588 114.937 115.408 115.069 115.048 115.312C114.693 115.554 114.257 115.779 113.739 115.987C113.227 116.19 112.689 116.291 112.127 116.291C110.719 116.291 109.647 115.874 108.91 115.041C108.172 114.208 107.804 113.04 107.804 111.537C107.804 110.614 107.986 109.792 108.352 109.072C108.724 108.351 109.247 107.791 109.923 107.392C110.598 106.986 111.389 106.784 112.295 106.784C112.757 106.784 113.207 106.837 113.646 106.944C114.085 107.046 114.443 107.153 114.719 107.265C114.994 107.372 115.169 107.442 115.242 107.476L115.149 109.807H114.026L113.765 108.337ZM122.242 108.337H119.734V113.893C119.734 114.597 120.021 114.948 120.595 114.948C120.967 114.948 121.417 114.805 121.946 114.518L122.41 115.43C121.628 116.004 120.82 116.291 119.987 116.291C119.402 116.291 118.923 116.1 118.552 115.717C118.186 115.328 118.003 114.687 118.003 113.792V108.337H116.272V107.214L118.003 107.046V104.867L119.734 104.521V107.046H122.242V108.337ZM124.563 104.107C124.563 103.725 124.673 103.426 124.893 103.212C125.112 102.998 125.377 102.891 125.686 102.891C126.435 102.891 126.809 103.297 126.809 104.107C126.809 104.479 126.694 104.774 126.463 104.994C126.232 105.208 125.973 105.315 125.686 105.315C125.343 105.315 125.07 105.208 124.867 104.994C124.665 104.78 124.563 104.484 124.563 104.107ZM127.932 116.122H123.44V115.168L124.91 114.737V108.337L123.44 107.991V107.046L126.64 106.961V114.737L127.932 115.168V116.122ZM133.64 106.784C134.918 106.784 135.914 107.198 136.629 108.025C137.344 108.847 137.701 109.961 137.701 111.369C137.701 112.337 137.521 113.195 137.161 113.944C136.806 114.692 136.3 115.272 135.641 115.683C134.988 116.088 134.234 116.291 133.378 116.291C132.067 116.291 131.048 115.897 130.322 115.109C129.596 114.321 129.233 113.161 129.233 111.63C129.233 110.662 129.418 109.812 129.79 109.08C130.167 108.343 130.688 107.777 131.352 107.383C132.016 106.984 132.779 106.784 133.64 106.784ZM133.556 108.169C132.7 108.169 132.067 108.45 131.656 109.013C131.251 109.57 131.048 110.412 131.048 111.537C131.048 113.783 131.856 114.909 133.471 114.915C134.315 114.915 134.929 114.628 135.312 114.053C135.694 113.474 135.886 112.607 135.886 111.453C135.886 109.263 135.109 108.169 133.556 108.169ZM142.1 108.185C142.46 107.876 142.93 107.566 143.51 107.257C144.096 106.941 144.698 106.784 145.317 106.784C146.24 106.784 146.932 107.06 147.394 107.611C147.856 108.157 148.086 108.92 148.086 109.899V114.737L149.378 115.168V116.122H145.233V115.168L146.355 114.737V110.068C146.355 109.443 146.234 108.985 145.992 108.692C145.75 108.399 145.354 108.253 144.802 108.253C144.363 108.253 143.958 108.357 143.586 108.565C143.22 108.774 142.913 108.999 142.666 109.241C142.418 109.483 142.294 109.615 142.294 109.638V114.737L143.417 115.168V116.122H139.094V115.168L140.563 114.737V108.337L139.094 107.991V107.046L141.948 106.961L142.1 108.185ZM152.097 114.839C152.097 114.85 152.24 114.881 152.528 114.932C152.815 114.977 153.155 114.999 153.549 114.999C154.849 114.999 155.502 114.543 155.508 113.631C155.508 113.26 155.348 112.981 155.027 112.795C154.712 112.604 154.219 112.404 153.549 112.196C152.936 111.999 152.437 111.81 152.055 111.63C151.678 111.445 151.354 111.18 151.084 110.837C150.814 110.488 150.678 110.037 150.678 109.486C150.678 108.619 150.971 107.952 151.557 107.485C152.148 107.017 152.91 106.784 153.845 106.784C154.25 106.784 154.669 106.823 155.103 106.902C155.542 106.975 155.913 107.054 156.217 107.138C156.527 107.223 156.721 107.279 156.8 107.307L156.749 109.638H155.626L155.348 108.287C155.314 108.275 155.238 108.253 155.12 108.219C155.007 108.185 154.847 108.154 154.638 108.126C154.43 108.098 154.199 108.084 153.946 108.084C152.922 108.084 152.409 108.47 152.409 109.241C152.409 109.612 152.573 109.899 152.899 110.102C153.231 110.299 153.729 110.507 154.393 110.727C154.99 110.935 155.48 111.129 155.863 111.309C156.245 111.484 156.569 111.74 156.834 112.078C157.098 112.41 157.23 112.829 157.23 113.336C157.23 114.293 156.87 115.024 156.15 115.531C155.429 116.038 154.523 116.291 153.431 116.291C152.958 116.291 152.519 116.263 152.114 116.207C151.709 116.15 151.385 116.094 151.143 116.038C150.901 115.981 150.752 115.939 150.695 115.911V113.353H151.911L152.097 114.839Z" fill="#4D4D4D"/>
</svg>
