<svg width="218" height="90" viewBox="0 0 218 90" fill="none" xmlns="http://www.w3.org/2000/svg">
<path d="M70.3113 89.126C70.0403 89.126 69.8173 88.91 69.8103 88.638C69.6853 84.051 72.1753 79.357 77.8833 73.418C80.5823 70.61 83.7163 67.723 87.3443 64.379C88.8503 62.991 90.4304 61.536 92.0794 59.992C92.1054 59.969 92.7714 59.371 93.7214 58.306C91.5314 59.08 88.7023 59.776 85.5033 59.846H84.1833C74.5673 59.846 66.7453 52.023 66.7453 42.408C66.7453 40.802 66.9633 39.247 67.3713 37.769C67.2173 37.734 67.0623 37.697 66.9083 37.657C66.7343 37.619 62.2323 36.593 59.9413 32.512C58.3053 29.596 58.2403 25.907 59.7463 21.546C61.6203 16.124 60.2903 10.518 56.3593 7.26401C52.9443 4.43701 48.3643 4.09001 44.4073 6.35901C37.9513 10.06 36.6183 18.444 38.1603 25.111C39.4343 30.616 42.5053 34.461 45.8033 34.679C46.9323 34.754 48.0983 34.41 49.1923 33.8C48.7213 26.224 51.0073 24.254 52.0533 23.754C52.9833 23.31 54.0323 23.458 54.7273 24.134C55.7393 25.118 55.7903 26.875 54.8653 28.954C53.9503 31.012 52.2453 33.061 50.2383 34.349C50.2533 34.535 50.2693 34.725 50.2873 34.918C50.4513 36.667 50.2113 38.404 49.9083 39.903C51.9473 41.268 52.2213 43.045 52.2493 43.698C52.2893 44.663 51.9063 45.446 51.1983 45.846C50.5393 46.217 49.6993 46.183 49.0603 45.759C48.3553 45.292 48.0153 44.46 48.1283 43.476C48.1943 42.902 48.3583 42.204 48.5483 41.394C48.6233 41.075 48.7013 40.743 48.7783 40.399C48.1953 40.09 47.4743 39.816 46.5853 39.605C33.6993 36.548 24.1513 45.035 16.4813 54.45C16.6503 54.673 16.8273 54.897 17.0103 55.121C18.8093 57.317 18.4313 58.649 18.0463 59.247C17.4883 60.114 16.2513 60.467 14.9683 60.127C13.8653 59.835 13.4433 59.206 13.2833 58.73C13.0023 57.893 13.2953 56.858 14.1103 55.814C14.4743 55.349 14.8423 54.883 15.2143 54.42C11.2643 48.829 11.4903 43.712 11.9823 40.16C11.6503 39.974 11.3973 39.776 11.2183 39.615C10.0633 38.576 9.52833 36.916 9.97333 35.753C10.2503 35.03 10.8583 34.615 11.6403 34.614H11.6443C12.2723 34.614 12.7283 34.79 13.0373 35.151C13.6653 35.885 13.4723 37.102 13.1803 38.944C13.1483 39.145 13.1153 39.353 13.0823 39.569C14.1103 39.926 15.6563 39.958 17.8573 38.837C20.1093 37.69 21.4783 35.273 21.6143 32.205C21.7413 29.327 20.6593 26.583 18.9823 25.533C16.3713 23.897 11.6043 27.039 7.12134 33.352C-3.33266 48.072 1.88633 67.829 5.58533 71.995C9.57533 76.487 17.7453 76.266 23.7533 73.724C25.2513 73.091 26.5603 72.342 27.6473 71.517C27.3473 70.838 27.0743 70.164 26.8373 69.49C25.4343 65.497 26.4793 63.676 27.2273 62.945C28.0253 62.166 29.1823 61.933 30.2473 62.336C31.3873 62.767 32.1543 63.839 32.2503 65.135C32.4243 67.483 31.1923 69.834 28.8803 71.805C29.4033 72.929 29.9933 74.076 30.6023 75.26C32.7923 79.518 35.0573 83.92 34.9033 88.641C34.8943 88.918 34.6763 89.15 34.3853 89.126C34.1083 89.117 33.8913 88.885 33.9003 88.609C34.0453 84.148 31.8413 79.863 29.7103 75.72C29.1353 74.602 28.5773 73.517 28.0733 72.447C26.9553 73.273 25.6373 74.017 24.1443 74.649C17.8063 77.329 9.13833 77.507 4.83533 72.662C0.999331 68.343 -4.45367 47.919 6.30333 32.772C11.1893 25.892 16.3753 22.717 19.5153 24.683C21.5153 25.936 22.7613 28.977 22.6173 32.25C22.4673 35.639 20.8583 38.436 18.3133 39.732C15.9293 40.946 14.1553 40.931 12.9403 40.566C12.5093 43.891 12.4083 48.549 15.8723 53.607C23.7113 44.031 33.4973 35.469 46.8153 38.628C47.6653 38.83 48.3833 39.088 48.9893 39.38C49.2503 38.02 49.4303 36.527 49.2883 35.012C49.2843 34.973 49.2813 34.933 49.2773 34.894C48.1393 35.457 46.9333 35.758 45.7383 35.681C41.9373 35.43 38.5793 31.371 37.1833 25.338C35.5573 18.309 37.0063 9.44599 43.9083 5.48899C48.2393 3.00699 53.2543 3.39101 57.0003 6.49201C61.2573 10.016 62.7073 16.054 60.6963 21.875C59.2873 25.954 59.3273 29.368 60.8173 32.022C62.8893 35.714 67.0974 36.672 67.1394 36.681C67.3154 36.726 67.4913 36.768 67.6683 36.807C70.0063 29.93 76.5273 24.97 84.1843 24.97C87.6793 24.97 91.0153 25.988 93.8563 27.884C95.6243 26.598 97.2464 25.339 98.6824 24.224C98.9094 24.048 99.1313 23.876 99.3483 23.708C98.7013 23.081 98.0483 22.295 97.4033 21.316C96.8613 20.493 96.3833 19.659 95.9213 18.852C94.2403 15.917 92.7834 13.373 88.9244 12.145C88.1074 13.254 86.0513 15.213 81.9703 14.659C78.1193 14.137 75.8443 11.727 74.8093 7.07401C74.0243 3.54501 75.4173 1.149 78.7313 0.326998C89.0803 -2.239 116.33 10.801 119.344 21.795C122.046 31.647 117.972 45.831 98.4383 56.093C98.3613 56.144 97.3833 56.774 95.7373 57.505C94.1803 59.458 92.8893 60.615 92.7533 60.735C91.1123 62.271 89.5314 63.728 88.0234 65.117C84.4064 68.449 81.2834 71.327 78.6054 74.113C73.1724 79.765 70.6963 84.372 70.8113 88.61C70.8193 88.887 70.6003 89.118 70.3233 89.126C70.3203 89.126 70.3153 89.126 70.3113 89.126ZM29.2023 63.147C28.7303 63.147 28.2763 63.325 27.9293 63.663C26.9473 64.622 26.8943 66.624 27.7843 69.157C27.9823 69.719 28.2073 70.284 28.4543 70.855C30.3773 69.142 31.3953 67.163 31.2503 65.209C31.1823 64.294 30.6753 63.571 29.8923 63.275C29.6653 63.189 29.4313 63.147 29.2023 63.147ZM15.8313 55.253C15.5173 55.645 15.2073 56.038 14.9003 56.432C14.3083 57.189 14.0653 57.91 14.2333 58.41C14.3523 58.763 14.6853 59.014 15.2243 59.157C16.0713 59.382 16.8853 59.196 17.2013 58.704C17.6053 58.076 17.2523 57.002 16.2323 55.757C16.0953 55.589 15.9613 55.42 15.8313 55.253ZM68.3594 37.966C67.9624 39.38 67.7493 40.869 67.7493 42.408C67.7493 51.47 75.1223 58.843 84.1843 58.843H85.4934C89.4254 58.758 92.8273 57.652 95.0743 56.686C97.5263 53.543 100.595 48.413 100.618 42.406C100.635 38.038 98.9423 33.923 95.8503 30.819C95.2283 30.194 94.5643 29.626 93.8663 29.116C87.6253 33.594 79.6883 38.243 71.6713 38.243C70.5673 38.244 69.4624 38.155 68.3594 37.966ZM94.7183 28.499C95.3643 28.989 95.9804 29.527 96.5624 30.111C99.8444 33.405 101.641 37.774 101.623 42.41C101.602 47.821 99.3053 52.472 97.0543 55.735C97.6113 55.435 97.9203 55.237 97.9333 55.228C116.981 45.218 120.976 31.535 118.378 22.06C117.077 17.314 110.526 11.465 101.283 6.79599C92.5233 2.37099 83.5583 0.16299 78.9743 1.29999C76.1563 1.99899 75.1144 3.81701 75.7904 6.85501C76.7214 11.041 78.7283 13.205 82.1063 13.663C85.3723 14.106 87.1193 12.75 87.9193 11.799C85.6903 10.875 85.4453 9.413 85.4523 8.784C85.4643 7.739 86.1533 6.795 87.0903 6.539C88.0303 6.284 88.9713 6.76001 89.6113 7.81601C90.1413 8.69101 90.0683 10.014 89.4593 11.262C93.5213 12.637 95.1123 15.416 96.7943 18.352C97.2483 19.145 97.7184 19.966 98.2434 20.762C98.8834 21.734 99.5263 22.494 100.156 23.085C101.585 21.988 102.751 21.135 103.626 20.668C106.355 19.212 107.889 19.594 108.695 20.17C109.425 20.691 109.806 21.589 109.665 22.457C109.418 23.985 107.727 25.46 105.732 25.887C104.485 26.154 102.384 26.179 100.118 24.381C99.8544 24.585 99.5813 24.797 99.3013 25.015C97.9273 26.082 96.3893 27.275 94.7183 28.499ZM49.6743 40.975C49.6233 41.199 49.5723 41.415 49.5233 41.623C49.3403 42.401 49.1823 43.074 49.1233 43.589C49.0543 44.193 49.2283 44.667 49.6133 44.922C49.9423 45.14 50.3703 45.159 50.7033 44.971C51.0773 44.76 51.2693 44.323 51.2453 43.739C51.2263 43.263 51.0323 42.037 49.6743 40.975ZM11.6433 35.618C11.2743 35.613 11.0363 35.779 10.9093 36.112C10.6463 36.798 10.9413 38.016 11.8883 38.869C11.9643 38.937 12.0483 39.007 12.1433 39.077C12.1583 38.979 12.1743 38.882 12.1893 38.788C12.4103 37.392 12.6013 36.186 12.2743 35.804C12.2343 35.757 12.1153 35.618 11.6433 35.618ZM68.6643 36.999C77.2483 38.391 86.1083 33.406 92.9823 28.514C90.3753 26.86 87.3483 25.974 84.1843 25.974C77.0163 25.974 70.9053 30.586 68.6643 36.999ZM53.1443 24.501C52.9413 24.501 52.7203 24.548 52.4863 24.659C51.8303 24.973 49.8513 26.488 50.1633 33.177C51.7993 31.986 53.1903 30.249 53.9483 28.546C54.6813 26.898 54.7113 25.518 54.0273 24.853C53.8263 24.658 53.5173 24.501 53.1443 24.501ZM100.94 23.748C102.818 25.142 104.503 25.126 105.518 24.908C107.265 24.533 108.515 23.262 108.67 22.299C108.736 21.894 108.587 21.332 108.107 20.989C107.636 20.653 106.489 20.278 104.094 21.556C103.317 21.971 102.25 22.746 100.94 23.748ZM87.5893 7.47699C87.5103 7.47699 87.4313 7.48801 87.3533 7.50901C86.8483 7.64701 86.4623 8.201 86.4553 8.797C86.4453 9.682 87.1804 10.451 88.4934 10.948C89.0554 9.879 89.0654 8.85601 88.7514 8.33701C88.4104 7.77401 88.0043 7.47699 87.5893 7.47699Z" fill="#4D4D4D"/>
<path d="M130.617 51.0638V38.488H135.014C135.89 38.488 136.612 38.6395 137.181 38.9424C137.75 39.2412 138.174 39.6445 138.452 40.1521C138.731 40.6556 138.87 41.2144 138.87 41.8284C138.87 42.3688 138.774 42.815 138.581 43.1671C138.393 43.5191 138.143 43.7975 137.832 44.0022C137.525 44.2069 137.192 44.3584 136.831 44.4566V44.5794C137.216 44.604 137.603 44.7391 137.992 44.9847C138.381 45.2303 138.706 45.5824 138.968 46.0409C139.23 46.4994 139.361 47.0602 139.361 47.7234C139.361 48.3538 139.218 48.9208 138.931 49.4243C138.645 49.9278 138.192 50.327 137.574 50.6217C136.956 50.9165 136.152 51.0638 135.161 51.0638H130.617ZM132.14 49.7129H135.161C136.156 49.7129 136.862 49.5205 137.28 49.1357C137.701 48.7468 137.912 48.276 137.912 47.7234C137.912 47.2976 137.804 46.9046 137.587 46.5444C137.37 46.1801 137.061 45.8894 136.659 45.6724C136.258 45.4514 135.783 45.3408 135.235 45.3408H132.14V49.7129ZM132.14 44.0145H134.965C135.423 44.0145 135.837 43.9244 136.205 43.7443C136.577 43.5642 136.872 43.3104 137.089 42.9829C137.31 42.6554 137.421 42.2706 137.421 41.8284C137.421 41.2758 137.228 40.8071 136.844 40.4223C136.459 40.0334 135.849 39.8389 135.014 39.8389H132.14V44.0145ZM141.863 51.0638V38.488H149.453V39.8389H143.386V44.0882H149.06V45.4391H143.386V49.7129H149.551V51.0638H141.863ZM159.075 41.632C159.002 41.0097 158.703 40.5267 158.179 40.1828C157.655 39.8389 157.012 39.667 156.251 39.667C155.694 39.667 155.207 39.757 154.789 39.9372C154.376 40.1173 154.052 40.365 153.819 40.6802C153.59 40.9954 153.475 41.3536 153.475 41.7548C153.475 42.0904 153.555 42.3791 153.715 42.6206C153.878 42.858 154.087 43.0566 154.341 43.2162C154.595 43.3718 154.861 43.5007 155.139 43.6031C155.418 43.7013 155.674 43.7811 155.907 43.8426L157.184 44.1864C157.512 44.2724 157.876 44.3911 158.277 44.5426C158.682 44.694 159.069 44.9008 159.438 45.1628C159.81 45.4207 160.117 45.7523 160.359 46.1575C160.6 46.5628 160.721 47.0602 160.721 47.6497C160.721 48.3292 160.543 48.9433 160.187 49.4919C159.835 50.0404 159.319 50.4764 158.639 50.7998C157.964 51.1232 157.143 51.2849 156.177 51.2849C155.276 51.2849 154.497 51.1396 153.838 50.8489C153.183 50.5583 152.667 50.153 152.29 49.6331C151.918 49.1132 151.707 48.5094 151.658 47.8216H153.23C153.271 48.2965 153.43 48.6895 153.709 49.0006C153.991 49.3076 154.347 49.5369 154.777 49.6884C155.211 49.8357 155.678 49.9094 156.177 49.9094C156.758 49.9094 157.28 49.8153 157.743 49.627C158.206 49.4345 158.572 49.1685 158.842 48.8287C159.112 48.4848 159.247 48.0836 159.247 47.6251C159.247 47.2076 159.131 46.8678 158.897 46.6058C158.664 46.3438 158.357 46.1309 157.976 45.9672C157.596 45.8034 157.184 45.6602 156.742 45.5373L155.195 45.0952C154.212 44.8128 153.434 44.4095 152.861 43.8855C152.288 43.3615 152.002 42.6758 152.002 41.8284C152.002 41.1243 152.192 40.5103 152.573 39.9863C152.957 39.4582 153.473 39.0488 154.12 38.7582C154.771 38.4634 155.498 38.3161 156.3 38.3161C157.11 38.3161 157.831 38.4614 158.461 38.752C159.092 39.0386 159.591 39.4316 159.96 39.931C160.332 40.4304 160.529 40.9974 160.549 41.632H159.075ZM162.537 39.8389V38.488H171.969V39.8389H168.015V51.0638H166.492V39.8389H162.537ZM187.779 42.4179C187.644 42.0045 187.466 41.634 187.245 41.3065C187.028 40.9749 186.768 40.6924 186.465 40.4591C186.167 40.2258 185.827 40.0477 185.446 39.9249C185.065 39.8021 184.648 39.7407 184.193 39.7407C183.448 39.7407 182.771 39.9331 182.161 40.3179C181.551 40.7027 181.066 41.2697 180.706 42.0188C180.345 42.768 180.165 43.687 180.165 44.7759C180.165 45.8648 180.347 46.7839 180.712 47.533C181.076 48.2822 181.569 48.8491 182.192 49.234C182.814 49.6188 183.514 49.8112 184.292 49.8112C185.012 49.8112 185.647 49.6577 186.195 49.3506C186.748 49.0395 187.178 48.6015 187.485 48.0365C187.796 47.4675 187.951 46.7982 187.951 46.0286L188.418 46.1268H184.635V44.7759H189.425V46.1268C189.425 47.1625 189.204 48.0632 188.762 48.8287C188.324 49.5942 187.718 50.1878 186.944 50.6094C186.175 51.027 185.29 51.2358 184.292 51.2358C183.178 51.2358 182.2 50.9738 181.356 50.4498C180.517 49.9258 179.862 49.1807 179.391 48.2146C178.925 47.2485 178.691 46.1023 178.691 44.7759C178.691 43.7811 178.824 42.8867 179.091 42.0925C179.361 41.2942 179.741 40.6147 180.233 40.0538C180.724 39.493 181.305 39.0632 181.977 38.7643C182.648 38.4655 183.387 38.3161 184.193 38.3161C184.857 38.3161 185.475 38.4163 186.048 38.6169C186.625 38.8134 187.139 39.0939 187.589 39.4582C188.043 39.8184 188.422 40.2503 188.725 40.7539C189.028 41.2533 189.237 41.808 189.351 42.4179H187.779ZM190.564 38.488H192.308L195.796 44.3584H195.943L199.431 38.488H201.175L196.631 45.8812V51.0638H195.108V45.8812L190.564 38.488ZM203.145 38.488H204.962L209.236 48.9269H209.383L213.657 38.488H215.475V51.0638H214.05V41.5091H213.927L209.998 51.0638H208.622L204.692 41.5091H204.569V51.0638H203.145V38.488Z" fill="#4D4D4D"/>
</svg>
