<svg width="121" height="95" viewBox="0 0 121 95" fill="none" xmlns="http://www.w3.org/2000/svg">
<path d="M117.075 61.8101C115.38 61.4941 114.295 60.0341 114.413 58.5221C114.485 57.0051 115.933 55.7551 117.63 55.7291C119.327 55.7031 120.637 57.1871 120.538 59.0421C120.389 60.8921 118.715 62.1211 117.075 61.8101Z" fill="#473834"/>
<path d="M115.528 67.713C113.925 67.114 113.133 65.502 113.452 64.016C113.882 62.559 115.41 61.552 117.075 61.81C118.764 62.074 119.914 63.779 119.399 65.572C118.989 67.391 117.104 68.302 115.528 67.713Z" fill="#473834"/>
<path d="M113.011 73.273C111.581 72.435 110.948 70.644 111.591 69.27C112.28 67.917 113.88 67.152 115.527 67.713C117.095 68.24 118.013 70.155 117.183 71.822C116.395 73.508 114.51 74.149 113.011 73.273Z" fill="#473834"/>
<path d="M109.578 78.323C108.28 77.23 107.957 75.353 108.871 74.141C109.682 72.86 111.514 72.456 113.011 73.272C114.495 74.079 114.949 76.044 113.947 77.608C112.838 79.102 110.876 79.417 109.578 78.323Z" fill="#473834"/>
<path d="M105.312 82.6931C104.201 81.3781 104.275 79.5501 105.329 78.4591C106.341 77.3281 108.276 77.2941 109.578 78.3241C110.938 79.4001 110.991 81.3591 109.743 82.7371C108.451 84.0701 106.389 83.9721 105.312 82.6931Z" fill="#473834"/>
<path d="M100.379 86.285C99.499 84.788 99.929 83.075 101.107 82.111C102.352 81.238 104.196 81.451 105.311 82.693C106.462 83.978 106.252 85.998 104.733 87.075C103.279 88.237 101.215 87.716 100.379 86.285Z" fill="#473834"/>
<path d="M94.915 89.001C94.332 87.44 94.993 85.705 96.34 85.004C97.738 84.405 99.458 84.815 100.379 86.285C101.264 87.689 100.774 89.758 99.069 90.512C97.411 91.365 95.522 90.618 94.915 89.001Z" fill="#473834"/>
<path d="M89.069 90.7671C88.755 89.1001 89.688 87.432 91.157 87.059C92.606 86.621 94.264 87.4111 94.915 89.0011C95.554 90.5501 94.682 92.4141 92.903 92.9531C91.101 93.4211 89.383 92.4351 89.069 90.7671Z" fill="#473834"/>
<path d="M82.999 91.435C82.969 89.714 84.185 88.348 85.691 88.175C87.189 87.942 88.703 89.109 89.069 90.767C89.435 92.424 88.2419 94.005 86.4029 94.281C84.5579 94.491 83.024 93.109 82.999 91.435Z" fill="#473834"/>
<path d="M76.886 91.493C76.886 89.796 78.255 88.42 79.943 88.42C81.662 88.446 82.924 89.746 82.999 91.436C83.074 93.139 81.603 94.594 79.943 94.567C78.255 94.566 76.886 93.19 76.886 91.493Z" fill="#473834"/>
<path d="M70.771 91.493C70.771 89.796 72.14 88.42 73.828 88.42C75.516 88.42 76.885 89.796 76.885 91.493C76.885 93.19 75.516 94.566 73.828 94.566C72.14 94.566 70.771 93.19 70.771 91.493Z" fill="#473834"/>
<path d="M64.657 91.493C64.657 89.796 66.026 88.42 67.714 88.42C69.402 88.42 70.771 89.796 70.771 91.493C70.771 93.19 69.402 94.566 67.714 94.566C66.026 94.566 64.657 93.19 64.657 91.493Z" fill="#473834"/>
<path d="M58.543 91.493C58.543 89.796 59.912 88.42 61.6 88.42C63.288 88.42 64.657 89.796 64.657 91.493C64.657 93.19 63.288 94.566 61.6 94.566C59.912 94.566 58.543 93.19 58.543 91.493Z" fill="#473834"/>
<path d="M52.429 91.493C52.429 89.796 53.798 88.42 55.486 88.42C57.174 88.42 58.543 89.796 58.543 91.493C58.543 93.19 57.174 94.566 55.486 94.566C53.797 94.566 52.429 93.19 52.429 91.493Z" fill="#473834"/>
<path d="M46.314 91.493C46.314 89.796 47.683 88.42 49.371 88.42C51.059 88.42 52.428 89.796 52.428 91.493C52.428 93.19 51.059 94.566 49.371 94.566C47.683 94.566 46.314 93.19 46.314 91.493Z" fill="#473834"/>
<path d="M40.2 91.493C40.2 89.796 41.569 88.42 43.257 88.42C44.945 88.42 46.314 89.796 46.314 91.493C46.314 93.19 44.945 94.566 43.257 94.566C41.569 94.566 40.2 93.19 40.2 91.493Z" fill="#473834"/>
<path d="M34.103 91.143C34.35 89.481 35.766 88.313 37.289 88.337C38.774 88.445 40.212 89.792 40.2 91.492C40.189 93.184 38.887 94.597 37.001 94.476C35.141 94.436 33.853 92.839 34.103 91.143Z" fill="#473834"/>
<path d="M28.133 89.86C28.661 88.263 30.289 87.242 31.755 87.627C33.234 87.954 34.305 89.434 34.103 91.144C33.911 92.806 32.244 94.029 30.429 93.63C28.626 93.167 27.596 91.485 28.133 89.86Z" fill="#473834"/>
<path d="M22.494 87.516C23.301 86.005 25.04 85.367 26.43 85.967C27.855 86.483 28.615 88.233 28.133 89.861C27.651 91.488 25.84 92.298 24.094 91.653C22.386 90.919 21.7 88.997 22.494 87.516Z" fill="#473834"/>
<path d="M17.334 84.258C18.405 82.878 20.148 82.6621 21.481 83.3941C22.761 84.2131 23.231 86.027 22.494 87.516C21.723 89.067 19.78 89.596 18.209 88.598C16.586 87.68 16.319 85.555 17.334 84.258Z" fill="#473834"/>
<path d="M12.79 80.1841C14.036 79.0501 15.871 79.0441 17.03 80.0291C18.114 81.0981 18.35 82.8691 17.333 84.2571C16.347 85.6091 14.262 85.8971 12.923 84.6021C11.512 83.3881 11.527 81.3361 12.79 80.1841Z" fill="#473834"/>
<path d="M8.98802 75.4081C10.382 74.5191 12.293 74.7531 13.2 75.9701C14.118 77.1781 14.033 78.9831 12.79 80.1841C11.596 81.3441 9.51 81.2561 8.378 79.7821C7.262 78.2961 7.52202 76.3461 8.98802 75.4081Z" fill="#473834"/>
<path d="M6.07198 70.042C7.63798 69.386 9.44497 69.959 10.101 71.326C10.895 72.619 10.39 74.4501 8.98897 75.4071C7.58797 76.3651 5.66198 75.856 4.70198 74.263C3.88298 72.593 4.50798 70.697 6.07198 70.042Z" fill="#473834"/>
<path d="M4.13801 64.253C5.82901 63.864 7.361 64.783 7.894 66.203C8.412 67.628 7.57701 69.354 6.07301 70.043C4.49001 70.764 2.702 69.925 2.072 68.173C1.43 66.425 2.52001 64.619 4.13801 64.253Z" fill="#473834"/>
<path d="M3.19904 58.224C4.88404 58.134 6.29702 59.292 6.58002 60.785C6.75102 62.297 5.78703 63.821 4.13803 64.252C2.50403 64.68 0.732012 63.58 0.506012 61.729C0.172012 59.896 1.49404 58.316 3.19904 58.224Z" fill="#473834"/>
<path d="M3.22699 52.117C4.91499 52.286 6.23 53.653 6.146 55.17C6.176 56.783 4.90201 58.06 3.19901 58.224C1.52001 58.388 0.028 56.932 0 55.17C0.085 53.315 1.53799 51.948 3.22699 52.117Z" fill="#473834"/>
<path d="M4.277 46.104C5.962 46.57 6.82397 48.096 6.65697 49.608C6.40797 51.105 4.87998 52.23 3.22698 52.117C1.49398 51.996 0.293982 50.406 0.597982 48.569C0.824982 46.719 2.692 45.66 4.277 46.104Z" fill="#473834"/>
<path d="M6.31498 40.3531C7.82498 41.0721 8.54599 42.7751 8.06999 44.2171C7.48599 45.6211 5.95499 46.5181 4.27699 46.1051C2.65799 45.7101 1.58097 43.8861 2.27897 42.1561C2.87297 40.3881 4.75898 39.6151 6.31498 40.3531Z" fill="#473834"/>
<path d="M9.29296 35.023C10.649 35.982 11.165 37.847 10.367 39.137C9.61796 40.454 7.89095 41.045 6.31395 40.353C4.78095 39.685 4.09896 37.732 5.01396 36.115C5.98296 34.528 7.87696 34.024 9.29296 35.023Z" fill="#473834"/>
<path d="M13.166 30.3011C14.373 31.5061 14.503 33.3771 13.505 34.5191C12.601 35.7381 10.709 35.9591 9.29302 35.0241C7.87702 34.0891 7.62501 32.1181 8.74301 30.6321C9.95901 29.2271 11.972 29.1071 13.166 30.3011Z" fill="#473834"/>
<path d="M17.781 26.306C18.786 27.723 18.516 29.486 17.408 30.525C16.274 31.535 14.375 31.435 13.166 30.301C11.902 29.112 11.983 27.124 13.373 25.888C14.739 24.627 16.827 24.951 17.781 26.306Z" fill="#473834"/>
<path d="M22.998 23.14C23.73 24.677 23.187 26.403 21.918 27.24C20.59 27.981 18.806 27.664 17.781 26.305C16.761 24.954 17.108 22.907 18.728 21.985C20.291 20.973 22.271 21.613 22.998 23.14Z" fill="#473834"/>
<path d="M28.672 20.893C29.116 22.487 28.33 24.229 26.91 24.758C25.478 25.259 23.79 24.686 22.997 23.14C22.236 21.669 22.912 19.666 24.664 19.036C26.408 18.383 28.203 19.218 28.672 20.893Z" fill="#473834"/>
<path d="M34.655 19.671C34.825 21.36 33.749 22.922 32.249 23.144C30.782 23.528 29.18 22.513 28.672 20.894C28.165 19.274 29.213 17.577 31.017 17.122C32.855 16.833 34.485 17.982 34.655 19.671Z" fill="#473834"/>
<path d="M40.759 19.406C40.803 21.128 39.293 22.424 37.8 22.535C36.282 22.598 34.874 21.311 34.656 19.67C34.43 17.946 35.75 16.467 37.608 16.391C39.485 16.274 40.717 17.735 40.759 19.406Z" fill="#473834"/>
<path d="M43.816 22.479C45.5044 22.479 46.873 21.1032 46.873 19.406C46.873 17.7088 45.5044 16.333 43.816 16.333C42.1277 16.333 40.759 17.7088 40.759 19.406C40.759 21.1032 42.1277 22.479 43.816 22.479Z" fill="#473834"/>
<path d="M52.988 19.406C52.988 21.103 51.619 22.479 49.931 22.479C48.243 22.479 46.874 21.103 46.874 19.406C46.874 17.709 48.243 16.332 49.931 16.332C51.619 16.332 52.988 17.709 52.988 19.406Z" fill="#473834"/>
<path d="M56.045 22.479C57.7333 22.479 59.102 21.1032 59.102 19.406C59.102 17.7088 57.7333 16.333 56.045 16.333C54.3567 16.333 52.988 17.7088 52.988 19.406C52.988 21.1032 54.3567 22.479 56.045 22.479Z" fill="#473834"/>
<path d="M62.159 22.479C63.8473 22.479 65.216 21.1032 65.216 19.406C65.216 17.7088 63.8473 16.333 62.159 16.333C60.4707 16.333 59.102 17.7088 59.102 19.406C59.102 21.1032 60.4707 22.479 62.159 22.479Z" fill="#473834"/>
<path d="M68.273 22.479C69.9613 22.479 71.33 21.1032 71.33 19.406C71.33 17.7088 69.9613 16.333 68.273 16.333C66.5846 16.333 65.216 17.7088 65.216 19.406C65.216 21.1032 66.5846 22.479 68.273 22.479Z" fill="#473834"/>
<path d="M77.445 19.406C77.445 21.103 76.076 22.479 74.388 22.479C72.7 22.479 71.331 21.103 71.331 19.406C71.331 17.709 72.7 16.332 74.388 16.332C76.076 16.332 77.445 17.709 77.445 19.406Z" fill="#473834"/>
<path d="M83.557 19.4921C83.418 21.2061 82.223 22.4481 80.502 22.4801C78.814 22.4801 77.445 21.1041 77.445 19.4071C77.445 17.7101 78.814 16.3331 80.502 16.3331C82.159 16.2991 83.695 17.8161 83.557 19.4921Z" fill="#473834"/>
<path d="M89.61 20.27C89.226 21.881 87.698 23.016 86.195 22.802C84.701 22.519 83.497 21.236 83.556 19.492C83.605 17.845 85.167 16.383 87.002 16.708C88.846 16.969 90.01 18.579 89.61 20.27Z" fill="#473834"/>
<path d="M95.439 22.09C94.77 23.649 93.071 24.499 91.65 23.972C90.184 23.588 89.269 21.937 89.61 20.27C89.949 18.611 91.691 17.621 93.487 18.106C95.237 18.739 96.109 20.53 95.439 22.09Z" fill="#473834"/>
<path d="M100.857 24.9031C99.916 26.3551 98.164 26.779 96.801 26.115C95.434 25.459 94.837 23.628 95.44 22.089C96.078 20.468 97.941 19.839 99.616 20.65C101.283 21.474 101.766 23.5111 100.857 24.9031Z" fill="#473834"/>
<path d="M105.725 28.582C104.56 29.842 102.77 29.956 101.517 29.094C100.331 28.142 99.981 26.347 100.857 24.903C101.743 23.446 103.76 23.031 105.22 24.187C106.745 25.258 106.866 27.352 105.725 28.582Z" fill="#473834"/>
<path d="M109.913 33.023C108.593 34.032 106.717 33.922 105.672 32.819C104.692 31.655 104.578 29.897 105.726 28.583C106.807 27.337 108.938 27.2 110.153 28.611C111.429 29.963 111.287 31.968 109.913 33.023Z" fill="#473834"/>
<path d="M113.301 38.1031C111.798 38.8911 109.932 38.4841 109.149 37.1841C108.292 35.9341 108.584 34.1031 109.912 33.0221C111.214 31.9581 113.23 32.2621 114.278 33.7961C115.249 35.3831 114.804 37.3161 113.301 38.1031Z" fill="#473834"/>
<path d="M115.72 43.711C114.087 44.237 112.405 43.482 111.814 42.089C111.151 40.726 111.827 38.936 113.301 38.104C114.783 37.268 116.642 37.947 117.445 39.625C118.173 41.336 117.318 43.2 115.72 43.711Z" fill="#473834"/>
<path d="M117.159 49.6411C115.441 49.8841 114.024 48.8311 113.579 47.3771C113.244 45.8951 114.153 44.2701 115.72 43.7111C117.351 43.1321 119.131 44.0981 119.55 45.9151C120.074 47.7051 118.802 49.4141 117.159 49.6411Z" fill="#473834"/>
<path d="M117.629 55.7291C115.953 55.7001 114.521 54.3901 114.437 52.8871C114.428 51.3631 115.434 49.9341 117.159 49.6411C118.78 49.3591 120.536 50.6021 120.569 52.4631C120.674 54.3321 119.346 55.7571 117.629 55.7291Z" fill="#473834"/>
<path d="M117.629 55.729C117.629 75.481 101.617 91.493 81.865 91.493H38.836C19.084 91.493 3.07196 75.481 3.07196 55.729V55.17C3.07196 35.418 19.084 19.406 38.836 19.406H81.865C101.617 19.406 117.629 35.418 117.629 55.17V55.729Z" fill="#473834"/>
<path d="M2.79297 55.728V55.169C2.79297 35.262 18.93 19.126 38.836 19.126L81.865 19.125C101.771 19.126 117.908 35.262 117.908 55.169V55.728C117.908 75.634 101.771 91.771 81.865 91.771L38.836 91.773C18.93 91.771 2.79297 75.634 2.79297 55.728ZM38.836 19.685C29.036 19.685 20.167 23.656 13.745 30.078C7.32196 36.5 3.35196 45.37 3.35196 55.169V55.728C3.35196 65.528 7.32296 74.397 13.745 80.82C20.166 87.241 29.036 91.212 38.836 91.213L81.865 91.212C91.665 91.212 100.534 87.241 106.956 80.82C113.378 74.397 117.349 65.528 117.349 55.728V55.169C117.349 45.37 113.378 36.5 106.956 30.078C100.534 23.657 91.665 19.685 81.865 19.684L38.836 19.685Z" fill="#FFFCE9"/>
<path d="M32.273 60.495C31.658 57.544 28.553 56.113 25.837 55.843C22.446 55.505 19.084 57.071 15.693 56.484C11.76 55.802 10.916 51.025 12.892 48.148C13.837 46.772 15.295 45.894 16.969 45.992C18.424 46.077 20.055 47.148 20.077 48.711C20.102 50.502 17.835 51.688 16.332 51.041C15.231 50.567 14.346 49.074 15.786 48.412C16.166 48.237 15.888 47.572 15.5 47.734C13.754 48.467 13.853 50.143 15.177 51.316C16.933 52.871 19.106 51.987 20.375 50.343C21.865 48.413 20.292 46.229 18.419 45.429C16.002 44.396 13.476 45.592 12.051 47.656C10.409 50.033 10.33 53.01 12.148 55.329C14.153 57.884 17.135 57.699 20.069 57.331C23.806 56.864 28.962 55.771 31.08 59.933C32.303 62.336 31.195 65.079 29.256 66.681C28.321 63.538 25.068 60.693 22.28 63.372C20.708 64.882 22.09 67.42 23.558 68.389C25.02 69.354 27.061 69.052 28.668 68.265C28.621 69.734 27.858 71.153 26.608 71.983C24.545 73.353 22.209 71.805 21.316 69.811C21.238 69.636 20.982 69.788 21.059 69.96C21.882 71.796 23.094 73.681 25.424 73.312C27.337 73.008 28.725 71.512 29.317 69.728C29.514 69.134 29.559 68.473 29.484 67.797C29.67 67.674 29.847 67.547 30.01 67.414C31.982 65.799 32.786 62.954 32.273 60.495ZM23.614 67.326C22.691 66.583 22.069 65.003 22.912 64.004C23.583 63.207 24.814 63.224 25.716 63.492C27.067 63.894 27.987 65.426 28.427 66.672C28.486 66.839 28.53 67.008 28.568 67.178C28.154 67.438 27.717 67.654 27.263 67.802C26.041 68.198 24.643 68.154 23.614 67.326Z" fill="#E894AC"/>
<path d="M107.452 50.436C107.29 50.303 107.112 50.176 106.926 50.053C107.001 49.377 106.956 48.717 106.759 48.122C106.167 46.338 104.779 44.842 102.866 44.538C100.536 44.169 99.324 46.054 98.501 47.89C98.423 48.063 98.679 48.214 98.758 48.04C99.651 46.047 101.987 44.498 104.05 45.868C105.301 46.699 106.063 48.118 106.11 49.587C104.503 48.799 102.463 48.497 101 49.462C99.532 50.432 98.15 52.969 99.722 54.479C102.511 57.157 105.763 54.313 106.698 51.17C108.636 52.772 109.745 55.514 108.522 57.918C106.405 62.08 101.248 60.987 97.511 60.52C94.577 60.153 91.594 59.967 89.59 62.522C87.771 64.841 87.85 67.818 89.493 70.195C90.918 72.259 93.444 73.454 95.861 72.422C97.734 71.622 99.307 69.438 97.817 67.508C96.549 65.865 94.375 64.98 92.619 66.536C91.294 67.709 91.195 69.385 92.941 70.118C93.329 70.28 93.607 69.614 93.227 69.44C91.787 68.779 92.671 67.286 93.773 66.811C95.276 66.164 97.543 67.35 97.518 69.141C97.496 70.704 95.865 71.775 94.41 71.86C92.736 71.958 91.278 71.081 90.333 69.704C88.357 66.827 89.201 62.05 93.134 61.368C96.525 60.78 99.887 62.346 103.278 62.009C105.994 61.738 109.099 60.308 109.714 57.357C110.227 54.897 109.424 52.052 107.452 50.436ZM104.704 50.05C105.158 50.197 105.595 50.414 106.009 50.674C105.972 50.844 105.927 51.013 105.868 51.18C105.428 52.426 104.508 53.958 103.157 54.36C102.256 54.628 101.024 54.645 100.353 53.848C99.511 52.848 100.132 51.269 101.055 50.526C102.085 49.697 103.483 49.653 104.704 50.05Z" fill="#E894AC"/>
<path d="M30.3022 85.6911L30.3016 73.8291L34.4487 73.8289C35.275 73.8289 35.9565 73.9717 36.4932 74.2574C37.03 74.5393 37.4297 74.9196 37.6922 75.3984C37.9548 75.8733 38.0861 76.4004 38.0862 76.9796C38.0862 77.4893 37.9955 77.9102 37.814 78.2422C37.6364 78.5743 37.4009 78.8369 37.1074 79.03C36.8178 79.2231 36.5032 79.3659 36.1634 79.4586L36.1634 79.5745C36.5263 79.5976 36.8912 79.725 37.2581 79.9567C37.6249 80.1883 37.9319 80.5204 38.179 80.9529C38.4262 81.3853 38.5498 81.9143 38.5498 82.5398C38.5498 83.1345 38.4147 83.6693 38.1445 84.1442C37.8742 84.6192 37.4475 84.9957 36.8645 85.2737C36.2814 85.5518 35.5227 85.6908 34.5883 85.6909L30.3022 85.6911ZM31.7385 84.4168L34.5882 84.4166C35.5265 84.4166 36.1926 84.2351 36.5864 83.8721C36.9841 83.5053 37.1829 83.0612 37.1829 82.5399C37.1829 82.1383 37.0805 81.7677 36.8759 81.4279C36.6712 81.0842 36.3797 80.8101 36.0012 80.6055C35.6228 80.397 35.1749 80.2927 34.6575 80.2928L31.7383 80.2929L31.7385 84.4168ZM31.7383 79.0418L34.4026 79.0417C34.8351 79.0417 35.225 78.9567 35.5726 78.7868C35.9239 78.6169 36.2019 78.3775 36.4066 78.0685C36.6151 77.7596 36.7193 77.3967 36.7193 76.9796C36.7192 76.4584 36.5377 76.0163 36.1748 75.6533C35.8118 75.2865 35.2364 75.1031 34.4487 75.1032L31.7381 75.1033L31.7383 79.0418ZM41.3967 85.6905L39.8908 85.6906L44.2458 73.8284L45.7285 73.8284L50.0847 85.6901L48.5788 85.6902L45.0336 75.705L44.9409 75.705L41.3967 85.6905ZM41.9525 81.0569L48.0225 81.0566L48.0226 82.3309L41.9526 82.3312L41.9525 81.0569ZM51.9323 85.69L51.9317 73.828L53.3681 73.828L53.3684 79.7126L53.5074 79.7126L58.8358 73.8277L60.7124 73.8276L55.7315 79.1796L60.713 85.6896L58.9754 85.6897L54.8512 80.1759L53.3685 81.8441L53.3687 85.6899L51.9323 85.69ZM62.5722 85.6895L62.5716 73.8275L69.7305 73.8272L69.7305 75.1014L64.0081 75.1017L64.0083 79.1097L69.3601 79.1095L69.3601 80.3837L64.0083 80.384L64.0085 84.4152L69.8237 84.4149L69.8237 85.6891L62.5722 85.6895ZM72.3201 85.689L72.3195 73.827L76.3275 73.8268C77.2542 73.8268 78.0149 73.9851 78.6096 74.3017C79.2042 74.6144 79.6445 75.0449 79.9302 75.5932C80.216 76.1415 80.3589 76.7651 80.3589 77.464C80.359 78.1629 80.2161 78.7826 79.9304 79.3232C79.6447 79.8638 79.2065 80.2886 78.6157 80.5975C78.0249 80.9026 77.2701 81.0552 76.3511 81.0552L73.1076 81.0554L73.1075 79.758L76.3047 79.7578C76.9379 79.7578 77.4476 79.6651 77.8337 79.4797C78.2237 79.2944 78.5056 79.0318 78.6793 78.692C78.8569 78.3483 78.9457 77.939 78.9457 77.4641C78.9457 76.9891 78.8568 76.574 78.6792 76.2188C78.5016 75.8636 78.2177 75.5894 77.8277 75.3964C77.4377 75.1995 76.9222 75.101 76.2813 75.1011L73.756 75.1012L73.7565 85.6889L72.3201 85.689ZM77.9033 80.3601L80.8227 85.6886L79.1546 85.6886L76.2815 80.3602L77.9033 80.3601ZM81.3347 73.8266L82.9796 73.8265L86.2697 79.3635L86.4087 79.3634L89.6983 73.8262L91.3432 73.8261L87.0575 80.7998L87.0578 85.6883L85.6213 85.6883L85.6211 80.7999L81.3347 73.8266Z" fill="#FFFCE9"/>
<path d="M38.993 75.2745V61.0189H40.532V62.6658H40.721C40.8379 62.4858 40.9999 62.2563 41.2069 61.9773C41.4184 61.6939 41.7199 61.4419 42.1114 61.2214C42.5074 60.9964 43.0429 60.8839 43.7179 60.8839C44.5908 60.8839 45.3603 61.1021 46.0263 61.5386C46.6923 61.9751 47.212 62.5938 47.5855 63.3948C47.959 64.1958 48.1458 65.1408 48.1458 66.2297C48.1458 67.3277 47.959 68.2794 47.5855 69.0849C47.212 69.8859 46.6945 70.5069 46.0331 70.9479C45.3716 71.3843 44.6088 71.6026 43.7449 71.6026C43.0789 71.6026 42.5457 71.4923 42.1452 71.2718C41.7447 71.0469 41.4364 70.7926 41.2204 70.5091C41.0044 70.2211 40.8379 69.9826 40.721 69.7936H40.586V75.2745H38.993ZM40.559 66.2027C40.559 66.9857 40.6737 67.6764 40.9032 68.2749C41.1327 68.8689 41.4679 69.3347 41.9089 69.6721C42.3499 70.0051 42.8899 70.1716 43.5289 70.1716C44.1949 70.1716 44.7506 69.9961 45.1961 69.6451C45.6461 69.2897 45.9836 68.8127 46.2086 68.2142C46.4381 67.6112 46.5528 66.9407 46.5528 66.2027C46.5528 65.4738 46.4403 64.8168 46.2153 64.2318C45.9948 63.6423 45.6596 63.1766 45.2096 62.8346C44.7641 62.4881 44.2039 62.3148 43.5289 62.3148C42.8809 62.3148 42.3364 62.4791 41.8954 62.8076C41.4544 63.1316 41.1214 63.5861 40.8964 64.171C40.6715 64.7515 40.559 65.4288 40.559 66.2027ZM50.5757 71.3866V61.0189H52.1147V62.5848H52.2226C52.4116 62.0718 52.7536 61.6556 53.2486 61.3361C53.7436 61.0166 54.3016 60.8569 54.9226 60.8569C55.0396 60.8569 55.1858 60.8591 55.3613 60.8636C55.5368 60.8681 55.6696 60.8749 55.7596 60.8839V62.5038C55.7056 62.4903 55.5818 62.4701 55.3883 62.4431C55.1993 62.4116 54.9991 62.3958 54.7876 62.3958C54.2836 62.3958 53.8336 62.5016 53.4376 62.7131C53.0461 62.9201 52.7356 63.2081 52.5061 63.5771C52.2811 63.9415 52.1686 64.3578 52.1686 64.8258V71.3866H50.5757ZM61.6791 71.6026C60.6802 71.6026 59.8184 71.3821 59.094 70.9411C58.374 70.4956 57.8183 69.8746 57.4268 69.0782C57.0398 68.2772 56.8463 67.3457 56.8463 66.2837C56.8463 65.2218 57.0398 64.2858 57.4268 63.4758C57.8183 62.6613 58.3627 62.0268 59.0602 61.5724C59.7622 61.1134 60.5812 60.8839 61.5172 60.8839C62.0571 60.8839 62.5904 60.9739 63.1169 61.1539C63.6433 61.3339 64.1226 61.6264 64.5546 62.0313C64.9866 62.4318 65.3308 62.9628 65.5873 63.6243C65.8438 64.2858 65.972 65.1003 65.972 66.0677V66.7427H57.9802V65.3658H64.3521C64.3521 64.7808 64.2351 64.2588 64.0011 63.7998C63.7716 63.3408 63.4431 62.9786 63.0156 62.7131C62.5926 62.4476 62.0931 62.3148 61.5172 62.3148C60.8827 62.3148 60.3337 62.4723 59.8702 62.7873C59.4112 63.0978 59.058 63.5028 58.8105 64.0023C58.563 64.5018 58.4392 65.0373 58.4392 65.6087V66.5267C58.4392 67.3097 58.5742 67.9734 58.8442 68.5179C59.1187 69.0579 59.499 69.4696 59.9849 69.7531C60.4709 70.0321 61.0357 70.1716 61.6791 70.1716C62.0976 70.1716 62.4756 70.1131 62.8131 69.9961C63.1551 69.8746 63.4499 69.6946 63.6973 69.4561C63.9448 69.2132 64.1361 68.9117 64.2711 68.5517L65.81 68.9837C65.648 69.5056 65.3758 69.9646 64.9933 70.3606C64.6108 70.7521 64.1383 71.0581 63.5758 71.2786C63.0134 71.4946 62.3811 71.6026 61.6791 71.6026ZM68.3952 71.3866V61.0189H69.9342V62.6388H70.0692C70.2852 62.0853 70.6339 61.6556 71.1154 61.3496C71.5969 61.0391 72.1751 60.8839 72.8501 60.8839C73.5341 60.8839 74.1033 61.0391 74.5578 61.3496C75.0168 61.6556 75.3745 62.0853 75.631 62.6388H75.739C76.0045 62.1033 76.4028 61.6781 76.9337 61.3631C77.4647 61.0436 78.1015 60.8839 78.8439 60.8839C79.7709 60.8839 80.5292 61.1741 81.1186 61.7546C81.7081 62.3306 82.0029 63.2283 82.0029 64.4478V71.3866H80.4099V64.4478C80.4099 63.6828 80.2007 63.1361 79.7822 62.8076C79.3637 62.4791 78.8709 62.3148 78.304 62.3148C77.575 62.3148 77.0102 62.5353 76.6098 62.9763C76.2093 63.4128 76.009 63.9663 76.009 64.6368V71.3866H74.3891V64.2858C74.3891 63.6963 74.1978 63.2216 73.8153 62.8616C73.4328 62.4971 72.9401 62.3148 72.3371 62.3148C71.9231 62.3148 71.5361 62.4251 71.1761 62.6456C70.8207 62.8661 70.5327 63.1721 70.3122 63.5636C70.0962 63.9505 69.9882 64.3983 69.9882 64.9068V71.3866H68.3952ZM84.9154 71.3866V61.0189H86.5084V71.3866H84.9154ZM85.7254 59.2909C85.4149 59.2909 85.1472 59.1852 84.9222 58.9737C84.7017 58.7622 84.5914 58.5079 84.5914 58.2109C84.5914 57.914 84.7017 57.6597 84.9222 57.4482C85.1472 57.2367 85.4149 57.131 85.7254 57.131C86.0359 57.131 86.3014 57.2367 86.5219 57.4482C86.7469 57.6597 86.8594 57.914 86.8594 58.2109C86.8594 58.5079 86.7469 58.7622 86.5219 58.9737C86.3014 59.1852 86.0359 59.2909 85.7254 59.2909ZM95.9598 67.1477V61.0189H97.5528V71.3866H95.9598V69.6316H95.8518C95.6088 70.1581 95.2308 70.6059 94.7178 70.9749C94.2049 71.3393 93.5569 71.5216 92.7739 71.5216C92.1259 71.5216 91.5499 71.3798 91.0459 71.0964C90.5419 70.8084 90.146 70.3764 89.858 69.8004C89.57 69.2199 89.426 68.4887 89.426 67.6067V61.0189H91.0189V67.4987C91.0189 68.2547 91.2304 68.8577 91.6534 69.3077C92.0809 69.7576 92.6254 69.9826 93.2869 69.9826C93.6829 69.9826 94.0856 69.8814 94.4951 69.6789C94.9091 69.4764 95.2556 69.1659 95.5346 68.7474C95.8181 68.3289 95.9598 67.7957 95.9598 67.1477ZM100.47 71.3866V61.0189H102.009V62.6388H102.144C102.36 62.0853 102.709 61.6556 103.191 61.3496C103.672 61.0391 104.25 60.8839 104.925 60.8839C105.609 60.8839 106.178 61.0391 106.633 61.3496C107.092 61.6556 107.45 62.0853 107.706 62.6388H107.814C108.08 62.1033 108.478 61.6781 109.009 61.3631C109.54 61.0436 110.177 60.8839 110.919 60.8839C111.846 60.8839 112.604 61.1741 113.194 61.7546C113.783 62.3306 114.078 63.2283 114.078 64.4478V71.3866H112.485V64.4478C112.485 63.6828 112.276 63.1361 111.857 62.8076C111.439 62.4791 110.946 62.3148 110.379 62.3148C109.65 62.3148 109.085 62.5353 108.685 62.9763C108.284 63.4128 108.084 63.9663 108.084 64.6368V71.3866H106.464V64.2858C106.464 63.6963 106.273 63.2216 105.89 62.8616C105.508 62.4971 105.015 62.3148 104.412 62.3148C103.998 62.3148 103.611 62.4251 103.251 62.6456C102.896 62.8661 102.608 63.1721 102.387 63.5636C102.171 63.9505 102.063 64.3983 102.063 64.9068V71.3866H100.47Z" fill="#FFFCE9"/>
<path d="M15.786 64.53C15.786 64.983 15.419 65.35 14.966 65.35C14.513 65.35 14.146 64.983 14.146 64.53C14.146 64.077 14.513 63.709 14.966 63.709C15.418 63.709 15.786 64.077 15.786 64.53Z" fill="#E894AC"/>
<path d="M12.504 64.53C12.504 64.983 12.137 65.35 11.684 65.35C11.231 65.35 10.864 64.983 10.864 64.53C10.864 64.077 11.231 63.709 11.684 63.709C12.137 63.709 12.504 64.077 12.504 64.53Z" fill="#E894AC"/>
<path d="M9.76999 64.53C9.76999 64.983 9.40298 65.35 8.94998 65.35C8.49698 65.35 8.13 64.983 8.13 64.53C8.13 64.077 8.49698 63.709 8.94998 63.709C9.40298 63.709 9.76999 64.077 9.76999 64.53Z" fill="#E894AC"/>
<path d="M111.752 68.442C111.752 68.895 111.385 69.262 110.932 69.262C110.479 69.262 110.111 68.895 110.111 68.442C110.111 67.988 110.478 67.621 110.932 67.621C111.385 67.621 111.752 67.988 111.752 68.442Z" fill="#E894AC"/>
<path d="M108.471 68.442C108.471 68.895 108.104 69.262 107.651 69.262C107.198 69.262 106.831 68.895 106.831 68.442C106.831 67.988 107.198 67.621 107.651 67.621C108.104 67.621 108.471 67.988 108.471 68.442Z" fill="#E894AC"/>
<path d="M105.736 68.442C105.736 68.895 105.369 69.262 104.916 69.262C104.463 69.262 104.096 68.895 104.096 68.442C104.096 67.988 104.463 67.621 104.916 67.621C105.369 67.621 105.736 67.988 105.736 68.442Z" fill="#E894AC"/>
<path d="M82.1269 27.077C81.8199 23.939 79.9699 21.456 77.9109 19.97C77.5469 19.705 77.19 19.488 76.849 19.307C76.93 18.857 76.9839 18.413 77.0189 17.977C77.0379 17.717 77.047 17.471 77.047 17.226C77.039 14.566 76.012 12.109 74.28 10.229C72.941 8.768 71.257 7.792 69.642 7.284C68.02 6.764 66.4829 6.64601 65.1099 6.64301C63.6429 6.64601 62.329 6.78302 61.219 6.87302C61.106 6.88202 60.993 6.88699 60.888 6.88699C60.494 6.86199 60.38 6.85699 60.202 6.76099C60.155 6.32399 60.1219 5.365 60.0879 4.142L55.737 4.39301L60.0879 4.13501L60.087 4.133C60.06 3.647 59.9379 3.04401 59.6359 2.43701C59.1979 1.51201 58.309 0.733015 57.539 0.403015C56.759 0.0520151 56.1409 0.005 55.6919 0C55.0349 0.008 54.694 0.110007 54.419 0.182007C53.472 0.488007 53.2529 0.689011 52.8389 0.924011C51.6239 1.70701 50.1809 2.89602 48.7089 4.65302C47.9879 5.52902 47.283 6.53699 46.712 7.73999C46.148 8.93699 45.701 10.36 45.698 12C45.692 13.253 45.99 14.62 46.63 15.853C46.68 15.95 46.731 16.045 46.784 16.14C45.684 16.466 44.647 16.961 43.725 17.607C41.933 18.852 40.5949 20.597 39.7299 22.541C39.0909 23.959 38.765 25.466 38.768 26.911C38.783 30.143 40.2709 32.652 41.7819 34.406C41.7649 35.535 42.273 37.485 44.09 42.863C46.723 50.655 47.309 51.112 48.279 51.872C49.82 53.078 51.6029 53.258 52.5279 53.258C52.5539 53.258 52.5749 53.255 52.6009 53.254C53.6699 53.947 54.9049 54.333 56.1449 54.333C56.5069 54.333 56.859 54.298 57.199 54.235C57.943 54.521 58.757 54.674 59.59 54.674C60.422 54.674 61.2359 54.52 61.9799 54.235C62.3199 54.298 62.6709 54.333 63.0319 54.333C64.2709 54.333 65.5059 53.947 66.5749 53.254C66.5999 53.254 66.622 53.258 66.647 53.258C67.575 53.258 69.358 53.078 70.893 51.874C71.938 51.058 72.5179 50.222 74.4769 44.632C75.3869 42.036 76.3399 39.086 76.8519 37.285C77.8719 36.628 78.7969 35.823 79.5979 34.879C81.086 33.114 82.172 30.76 82.176 28.067C82.177 27.733 82.1589 27.402 82.1269 27.077ZM43.7089 24.318C44.9479 21.546 47.329 19.889 50.404 20.055C51.498 20.114 52.4809 20.622 53.7609 19.826C54.9059 19.114 54.443 17.543 52.022 15.63C46.013 10.879 55.705 3.82201 55.737 4.39401C55.847 6.30001 55.556 8.76599 57.275 10.055C58.587 11.038 59.9539 11.352 61.5839 11.217C64.8979 10.944 68.567 10.475 71.082 13.191C72.186 14.385 72.796 16.012 72.672 17.646C72.605 18.517 72.4119 19.401 72.0539 20.201C71.8499 20.656 71.61 21.109 71.457 21.585C71.409 21.733 71.396 21.819 71.389 21.865C72.596 22.576 74.1319 22.6 75.3209 23.477C76.6629 24.467 77.616 25.821 77.789 27.51C78.118 30.714 75.5669 33.58 72.6479 34.497C69.8689 35.371 66.9099 35.606 64.0489 36.123C60.3119 36.799 55.911 37.344 52.259 35.743C52.12 35.766 51.751 35.564 51.594 35.49C49.379 34.459 46.914 33.614 45.237 31.74C43.541 29.843 42.3679 27.322 43.7089 24.318ZM64.6229 49.266C63.7909 50.097 62.706 50.089 62.436 49.794C62.236 49.577 62.478 41.842 62.68 37.661C63.226 37.576 63.761 37.485 64.279 37.391C65.263 37.211 66.278 37.067 67.309 36.913C66.855 40.358 65.3029 48.585 64.6229 49.266ZM60.7859 49.976C60.1579 50.429 59.02 50.429 58.392 49.976C57.931 49.644 57.19 42.315 57.091 38.06C57.363 38.07 57.634 38.076 57.906 38.076C59.334 38.076 60.745 37.938 62.094 37.747C62.025 41.945 61.2569 49.636 60.7859 49.976ZM51.878 36.991C51.895 36.995 51.909 36.999 51.928 37.004C53.41 37.623 54.9649 37.923 56.5149 38.029C56.7109 42.28 56.934 49.584 56.742 49.794C56.471 50.09 55.3859 50.097 54.5539 49.266C53.8789 48.59 52.345 40.48 51.878 36.991ZM46.173 34.575C46.207 34.486 46.244 34.394 46.29 34.302C47.786 35.288 49.4069 35.899 50.8129 36.549C51.7039 40.499 53.326 48.603 53.216 48.756C53.075 48.956 51.72 49.032 50.965 48.442C50.21 47.85 45.994 35.061 46.173 34.575ZM68.211 48.441C67.458 49.031 66.102 48.955 65.961 48.755C65.854 48.605 67.4179 40.779 68.3169 36.759C69.7769 36.529 71.2629 36.254 72.7399 35.814C71.8209 39.137 68.835 47.952 68.211 48.441Z" fill="#FFFCE9"/>
<path d="M56.743 49.793C56.935 49.583 56.712 42.279 56.516 38.028C54.965 37.922 53.411 37.623 51.929 37.003C51.91 36.999 51.896 36.995 51.879 36.99C52.346 40.479 53.88 48.589 54.556 49.265C55.387 50.097 56.472 50.089 56.743 49.793Z" fill="#DB3D69"/>
<path d="M50.965 48.441C51.719 49.031 53.075 48.955 53.216 48.755C53.327 48.602 51.704 40.499 50.813 36.548C49.407 35.898 47.786 35.286 46.29 34.301C46.244 34.393 46.207 34.485 46.173 34.574C45.994 35.061 50.21 47.85 50.965 48.441Z" fill="#DB3D69"/>
<path d="M62.0939 37.748C60.7449 37.939 59.3339 38.077 57.9059 38.077C57.6339 38.077 57.3629 38.071 57.0909 38.061C57.1899 42.316 57.9309 49.644 58.3919 49.977C59.0199 50.43 60.1579 50.43 60.7859 49.977C61.2569 49.636 62.0249 41.945 62.0939 37.748Z" fill="#DB3D69"/>
<path d="M64.2779 37.391C63.7599 37.485 63.2249 37.576 62.6789 37.661C62.4769 41.842 62.235 49.577 62.435 49.794C62.705 50.09 63.79 50.097 64.622 49.266C65.302 48.585 66.8539 40.358 67.3079 36.913C66.2779 37.067 65.2629 37.211 64.2779 37.391Z" fill="#DB3D69"/>
<path d="M72.74 35.8149C71.262 36.2539 69.777 36.5299 68.317 36.7599C67.418 40.7799 65.854 48.606 65.961 48.756C66.103 48.956 67.459 49.0319 68.211 48.4419C68.835 47.9519 71.821 39.1369 72.74 35.8149Z" fill="#DB3D69"/>
<path d="M45.239 31.741C46.916 33.615 49.381 34.46 51.596 35.491C51.753 35.565 52.122 35.767 52.261 35.744C55.914 37.346 60.315 36.8 64.051 36.124C66.912 35.607 69.871 35.371 72.65 34.498C75.569 33.581 78.12 30.715 77.791 27.511C77.618 25.823 76.665 24.468 75.323 23.478C74.134 22.601 72.598 22.577 71.391 21.866C71.398 21.82 71.41 21.734 71.459 21.586C71.612 21.11 71.851 20.657 72.056 20.202C72.414 19.402 72.608 18.518 72.674 17.647C72.798 16.013 72.188 14.386 71.084 13.192C68.568 10.475 64.9 10.945 61.586 11.218C59.956 11.353 58.588 11.04 57.277 10.056C55.558 8.76702 55.849 6.30101 55.739 4.39501C55.706 3.82301 46.015 10.88 52.024 15.631C54.445 17.544 54.908 19.115 53.763 19.827C52.483 20.623 51.501 20.115 50.406 20.056C47.331 19.89 44.95 21.546 43.711 24.319C42.368 27.322 43.541 29.843 45.239 31.741Z" fill="#E894AC"/>
<path d="M33.062 42.35L34.017 45.288H37.106L34.607 47.104L35.562 50.042L33.062 48.226L30.563 50.042L31.518 47.104L29.019 45.288H32.108L33.062 42.35Z" fill="#FFFCE9"/>
<path d="M85.032 42.35L85.987 45.288H89.076L86.577 47.104L87.531 50.042L85.032 48.226L82.533 50.042L83.487 47.104L80.988 45.288H84.077L85.032 42.35Z" fill="#FFFCE9"/>
</svg>
