<svg width="165" height="56" viewBox="0 0 165 56" fill="none" xmlns="http://www.w3.org/2000/svg">
<path d="M6.67862 2.776C7.84379 2.776 8.85135 3.00116 9.70131 3.45147C10.934 4.09878 11.6883 5.23299 11.9641 6.8541H10.3008C10.0981 5.94786 9.67879 5.28928 9.04273 4.87838C8.40667 4.46184 7.60456 4.25358 6.6364 4.25358C5.48812 4.25358 4.51996 4.68418 3.73192 5.54539C2.94951 6.40661 2.55831 7.68998 2.55831 9.39552C2.55831 10.8703 2.88197 12.072 3.52928 13.0008C4.1766 13.9239 5.23201 14.3855 6.69551 14.3855C7.81565 14.3855 8.74159 14.0618 9.47334 13.4145C10.2107 12.7616 10.5878 11.709 10.6047 10.2567H6.72084V8.8636H12.1667V15.5H11.086L10.6807 13.9042C10.1122 14.529 9.60843 14.9624 9.16938 15.2045C8.432 15.621 7.4948 15.8293 6.35778 15.8293C4.88865 15.8293 3.62497 15.3537 2.56675 14.4024C1.41284 13.2091 0.835883 11.5711 0.835883 9.4884C0.835883 7.41136 1.39877 5.75929 2.52454 4.5322C3.59401 3.3614 4.97871 2.776 6.67862 2.776ZM14.6153 6.45727H16.0591V8.01927C16.1773 7.71531 16.4672 7.34662 16.9287 6.9132C17.3903 6.47415 17.9222 6.25463 18.5245 6.25463C18.5527 6.25463 18.6005 6.25744 18.6681 6.26307C18.7356 6.2687 18.851 6.27996 19.0142 6.29684V7.90106C18.9242 7.88418 18.8397 7.87292 18.7609 7.86729C18.6878 7.86166 18.6061 7.85885 18.5161 7.85885C17.7506 7.85885 17.1623 8.10652 16.7514 8.60186C16.3405 9.09156 16.1351 9.65726 16.1351 10.299V15.5H14.6153V6.45727ZM23.9198 14.5206C24.9273 14.5206 25.6169 14.1406 25.9884 13.3807C26.3655 12.6152 26.5541 11.7653 26.5541 10.8309C26.5541 9.98655 26.419 9.29983 26.1488 8.77072C25.721 7.93765 24.9836 7.52112 23.9366 7.52112C23.0079 7.52112 22.3324 7.87573 21.9103 8.58497C21.4881 9.2942 21.277 10.1498 21.277 11.1517C21.277 12.1143 21.4881 12.9164 21.9103 13.558C22.3324 14.1997 23.0023 14.5206 23.9198 14.5206ZM23.9789 6.19553C25.144 6.19553 26.1291 6.58392 26.934 7.3607C27.7389 8.13748 28.1414 9.28013 28.1414 10.7887C28.1414 12.2465 27.7868 13.4511 27.0775 14.4024C26.3683 15.3537 25.2679 15.8293 23.7762 15.8293C22.5323 15.8293 21.5444 15.4099 20.8126 14.5712C20.0809 13.7269 19.715 12.5955 19.715 11.1771C19.715 9.65726 20.1006 8.44706 20.8717 7.54645C21.6429 6.64583 22.6786 6.19553 23.9789 6.19553ZM30.6575 6.45727L32.3968 13.5834L34.1614 6.45727H35.867L37.6401 13.5412L39.4891 6.45727H41.0089L38.3831 15.5H36.8042L34.9635 8.50054L33.182 15.5H31.6031L28.9942 6.45727H30.6575ZM42.7567 3.93273H44.2933V6.45727H45.7371V7.69843H44.2933V13.6003C44.2933 13.9155 44.4003 14.1266 44.6142 14.2335C44.7324 14.2954 44.9294 14.3264 45.2052 14.3264C45.2784 14.3264 45.3572 14.3264 45.4416 14.3264C45.5261 14.3208 45.6246 14.3123 45.7371 14.3011V15.5C45.5627 15.5507 45.3797 15.5872 45.1883 15.6098C45.0026 15.6323 44.7999 15.6435 44.5804 15.6435C43.8712 15.6435 43.3899 15.4634 43.1366 15.1032C42.8833 14.7373 42.7567 14.2645 42.7567 13.6847V7.69843H41.5324V6.45727H42.7567V3.93273ZM47.2654 3.05463H48.7852V7.68154C49.1454 7.2256 49.4691 6.90476 49.7561 6.71901C50.2458 6.39816 50.8566 6.23774 51.5883 6.23774C52.8998 6.23774 53.7892 6.69649 54.2564 7.61399C54.5097 8.11496 54.6363 8.81012 54.6363 9.69948V15.5H53.0743V9.8008C53.0743 9.1366 52.9899 8.6497 52.821 8.34011C52.5452 7.84478 52.0274 7.59711 51.2675 7.59711C50.6371 7.59711 50.0657 7.81382 49.5535 8.24724C49.0413 8.68066 48.7852 9.49966 48.7852 10.7042V15.5H47.2654V3.05463Z" fill="#0F0F0F"/>
<path d="M1.6971 21.0968H3.39419V33.5H1.6971V21.0968ZM5.92717 24.4573H7.37097V25.7406C7.79876 25.2115 8.25188 24.8316 8.73033 24.6008C9.20878 24.37 9.74071 24.2546 10.3261 24.2546C11.6095 24.2546 12.4763 24.7021 12.9266 25.5971C13.1743 26.0868 13.2981 26.7876 13.2981 27.6995V33.5H11.753V27.8008C11.753 27.2492 11.6714 26.8045 11.5082 26.4668C11.238 25.9039 10.7483 25.6224 10.039 25.6224C9.67879 25.6224 9.38328 25.659 9.1525 25.7322C8.73596 25.856 8.37009 26.1037 8.05487 26.4752C7.80157 26.7735 7.63552 27.0831 7.55672 27.404C7.48354 27.7192 7.44696 28.1723 7.44696 28.7633V33.5H5.92717V24.4573ZM16.2955 24.4573L18.7103 31.8198L21.2348 24.4573H22.8981L19.487 33.5H17.8659L14.5309 24.4573H16.2955ZM27.9641 24.2546C28.6058 24.2546 29.2278 24.4066 29.83 24.7106C30.4323 25.0089 30.8911 25.3973 31.2063 25.8757C31.5103 26.3317 31.7129 26.8636 31.8142 27.4715C31.9043 27.888 31.9493 28.5522 31.9493 29.4641H25.3213C25.3495 30.3816 25.5662 31.119 25.9715 31.6763C26.3767 32.2279 27.0044 32.5037 27.8543 32.5037C28.648 32.5037 29.2812 32.242 29.7541 31.7185C30.0242 31.4145 30.2156 31.0627 30.3282 30.6631H31.8227C31.7833 30.9952 31.651 31.3667 31.4258 31.7776C31.2063 32.1829 30.9586 32.515 30.6828 32.7739C30.2212 33.2242 29.6499 33.5281 28.9688 33.6858C28.603 33.7758 28.1892 33.8208 27.7277 33.8208C26.6019 33.8208 25.6478 33.4128 24.8654 32.5966C24.083 31.7748 23.6918 30.6265 23.6918 29.1517C23.6918 27.6995 24.0858 26.5202 24.8738 25.614C25.6619 24.7078 26.692 24.2546 27.9641 24.2546ZM30.3873 28.2567C30.3254 27.5982 30.1818 27.0719 29.9567 26.6778C29.5402 25.9461 28.845 25.5802 27.8712 25.5802C27.1732 25.5802 26.5878 25.8335 26.115 26.3401C25.6422 26.8411 25.3917 27.48 25.3636 28.2567H30.3873ZM34.7271 30.6631C34.7722 31.1697 34.8988 31.558 35.1071 31.8282C35.4898 32.3179 36.154 32.5628 37.0997 32.5628C37.6626 32.5628 38.1579 32.4418 38.5857 32.1997C39.0135 31.9521 39.2274 31.5721 39.2274 31.0599C39.2274 30.6715 39.0557 30.376 38.7124 30.1734C38.4928 30.0495 38.0594 29.906 37.4121 29.7427L36.2047 29.4388C35.4336 29.2474 34.865 29.0335 34.4992 28.7971C33.8462 28.3862 33.5198 27.8177 33.5198 27.0916C33.5198 26.236 33.8265 25.5436 34.4401 25.0145C35.0592 24.4854 35.8895 24.2209 36.9308 24.2209C38.293 24.2209 39.2752 24.6205 39.8775 25.4198C40.2547 25.9264 40.4376 26.4724 40.4263 27.0578H38.991C38.9628 26.7144 38.8418 26.402 38.6279 26.1206C38.2789 25.7209 37.6738 25.5211 36.8126 25.5211C36.2385 25.5211 35.8022 25.6309 35.5039 25.8504C35.2112 26.0699 35.0649 26.3598 35.0649 26.7201C35.0649 27.1141 35.2591 27.4293 35.6475 27.6657C35.8726 27.8064 36.2047 27.9303 36.6438 28.0372L37.6485 28.2821C38.7405 28.5466 39.4723 28.8027 39.8438 29.0504C40.4348 29.4388 40.7303 30.0495 40.7303 30.8826C40.7303 31.6875 40.4235 32.3827 39.81 32.9681C39.2021 33.5535 38.2733 33.8462 37.0237 33.8462C35.6784 33.8462 34.7243 33.5422 34.1614 32.9343C33.6042 32.3208 33.3059 31.5637 33.2665 30.6631H34.7271ZM42.7736 21.9327H44.3102V24.4573H45.754V25.6984H44.3102V31.6003C44.3102 31.9155 44.4172 32.1266 44.6311 32.2335C44.7493 32.2954 44.9463 32.3264 45.2221 32.3264C45.2953 32.3264 45.3741 32.3264 45.4585 32.3264C45.543 32.3208 45.6415 32.3123 45.754 32.3011V33.5C45.5795 33.5507 45.3966 33.5872 45.2052 33.6098C45.0195 33.6323 44.8168 33.6435 44.5973 33.6435C43.8881 33.6435 43.4068 33.4634 43.1535 33.1032C42.9002 32.7373 42.7736 32.2645 42.7736 31.6847V25.6984H41.5493V24.4573H42.7736V21.9327ZM47.2823 24.4573H48.7852V25.7406C49.1454 25.296 49.4719 24.9723 49.7646 24.7697C50.2656 24.4263 50.8341 24.2546 51.4701 24.2546C52.1906 24.2546 52.7704 24.4319 53.2094 24.7866C53.4571 24.9892 53.6823 25.2875 53.8849 25.6815C54.2226 25.1975 54.6195 24.84 55.0754 24.6092C55.5313 24.3728 56.0436 24.2546 56.6121 24.2546C57.8279 24.2546 58.6553 24.6937 59.0944 25.5718C59.3308 26.0446 59.449 26.6807 59.449 27.48V33.5H57.8701V27.2182C57.8701 26.6159 57.7181 26.2022 57.4142 25.9771C57.1159 25.7519 56.75 25.6393 56.3166 25.6393C55.7199 25.6393 55.2049 25.8391 54.7714 26.2388C54.3436 26.6384 54.1298 27.3055 54.1298 28.2398V33.5H52.5846V27.5982C52.5846 26.9846 52.5115 26.5371 52.3651 26.2557C52.1343 25.8335 51.7037 25.6224 51.0733 25.6224C50.4991 25.6224 49.9757 25.8448 49.5028 26.2895C49.0356 26.7341 48.8021 27.5391 48.8021 28.7042V33.5H47.2823V24.4573ZM65.4522 24.2546C66.0939 24.2546 66.7158 24.4066 67.3181 24.7106C67.9204 25.0089 68.3792 25.3973 68.6944 25.8757C68.9983 26.3317 69.201 26.8636 69.3023 27.4715C69.3924 27.888 69.4374 28.5522 69.4374 29.4641H62.8094C62.8376 30.3816 63.0543 31.119 63.4596 31.6763C63.8648 32.2279 64.4924 32.5037 65.3424 32.5037C66.1361 32.5037 66.7693 32.242 67.2421 31.7185C67.5123 31.4145 67.7037 31.0627 67.8163 30.6631H69.3107C69.2713 30.9952 69.1391 31.3667 68.9139 31.7776C68.6944 32.1829 68.4467 32.515 68.1709 32.7739C67.7093 33.2242 67.138 33.5281 66.4569 33.6858C66.091 33.7758 65.6773 33.8208 65.2158 33.8208C64.09 33.8208 63.1359 33.4128 62.3535 32.5966C61.5711 31.7748 61.1799 30.6265 61.1799 29.1517C61.1799 27.6995 61.5739 26.5202 62.3619 25.614C63.15 24.7078 64.18 24.2546 65.4522 24.2546ZM67.8754 28.2567C67.8135 27.5982 67.6699 27.0719 67.4448 26.6778C67.0282 25.9461 66.3331 25.5802 65.3593 25.5802C64.6613 25.5802 64.0759 25.8335 63.6031 26.3401C63.1303 26.8411 62.8798 27.48 62.8516 28.2567H67.8754ZM71.3118 24.4573H72.7556V25.7406C73.1834 25.2115 73.6365 24.8316 74.115 24.6008C74.5934 24.37 75.1253 24.2546 75.7107 24.2546C76.9941 24.2546 77.8609 24.7021 78.3113 25.5971C78.5589 26.0868 78.6828 26.7876 78.6828 27.6995V33.5H77.1376V27.8008C77.1376 27.2492 77.056 26.8045 76.8928 26.4668C76.6226 25.9039 76.1329 25.6224 75.4237 25.6224C75.0634 25.6224 74.7679 25.659 74.5371 25.7322C74.1206 25.856 73.7547 26.1037 73.4395 26.4752C73.1862 26.7735 73.0201 27.0831 72.9413 27.404C72.8682 27.7192 72.8316 28.1723 72.8316 28.7633V33.5H71.3118V24.4573ZM81.2411 21.9327H82.7777V24.4573H84.2215V25.6984H82.7777V31.6003C82.7777 31.9155 82.8847 32.1266 83.0986 32.2335C83.2168 32.2954 83.4138 32.3264 83.6896 32.3264C83.7628 32.3264 83.8416 32.3264 83.926 32.3264C84.0105 32.3208 84.109 32.3123 84.2215 32.3011V33.5C84.047 33.5507 83.8641 33.5872 83.6727 33.6098C83.487 33.6323 83.2843 33.6435 83.0648 33.6435C82.3556 33.6435 81.8743 33.4634 81.621 33.1032C81.3677 32.7373 81.2411 32.2645 81.2411 31.6847V25.6984H80.0168V24.4573H81.2411V21.9327ZM86.6532 30.6631C86.6982 31.1697 86.8249 31.558 87.0331 31.8282C87.4159 32.3179 88.0801 32.5628 89.0257 32.5628C89.5886 32.5628 90.084 32.4418 90.5118 32.1997C90.9396 31.9521 91.1535 31.5721 91.1535 31.0599C91.1535 30.6715 90.9818 30.376 90.6384 30.1734C90.4189 30.0495 89.9855 29.906 89.3382 29.7427L88.1308 29.4388C87.3596 29.2474 86.7911 29.0335 86.4252 28.7971C85.7723 28.3862 85.4458 27.8177 85.4458 27.0916C85.4458 26.236 85.7526 25.5436 86.3661 25.0145C86.9853 24.4854 87.8155 24.2209 88.8569 24.2209C90.2191 24.2209 91.2013 24.6205 91.8036 25.4198C92.1807 25.9264 92.3637 26.4724 92.3524 27.0578H90.917C90.8889 26.7144 90.7679 26.402 90.554 26.1206C90.205 25.7209 89.5999 25.5211 88.7387 25.5211C88.1645 25.5211 87.7283 25.6309 87.43 25.8504C87.1373 26.0699 86.9909 26.3598 86.9909 26.7201C86.9909 27.1141 87.1851 27.4293 87.5735 27.6657C87.7987 27.8064 88.1308 27.9303 88.5698 28.0372L89.5746 28.2821C90.6666 28.5466 91.3983 28.8027 91.7698 29.0504C92.3608 29.4388 92.6564 30.0495 92.6564 30.8826C92.6564 31.6875 92.3496 32.3827 91.736 32.9681C91.1281 33.5535 90.1994 33.8462 88.9498 33.8462C87.6045 33.8462 86.6504 33.5422 86.0875 32.9343C85.5302 32.3208 85.2319 31.5637 85.1925 30.6631H86.6532Z" fill="#0F0F0F"/>
<path d="M6.67862 38.776C7.84379 38.776 8.85135 39.0012 9.70131 39.4515C10.934 40.0988 11.6883 41.233 11.9641 42.8541H10.3008C10.0981 41.9479 9.67879 41.2893 9.04273 40.8784C8.40667 40.4618 7.60456 40.2536 6.6364 40.2536C5.48812 40.2536 4.51996 40.6842 3.73192 41.5454C2.94951 42.4066 2.55831 43.69 2.55831 45.3955C2.55831 46.8703 2.88197 48.072 3.52928 49.0008C4.1766 49.9239 5.23201 50.3855 6.69551 50.3855C7.81565 50.3855 8.74159 50.0618 9.47334 49.4145C10.2107 48.7616 10.5878 47.709 10.6047 46.2567H6.72084V44.8636H12.1667V51.5H11.086L10.6807 49.9042C10.1122 50.529 9.60843 50.9624 9.16938 51.2045C8.432 51.621 7.4948 51.8293 6.35778 51.8293C4.88865 51.8293 3.62497 51.3537 2.56675 50.4024C1.41284 49.2091 0.835883 47.5711 0.835883 45.4884C0.835883 43.4114 1.39877 41.7593 2.52454 40.5322C3.59401 39.3614 4.97871 38.776 6.67862 38.776ZM14.6153 42.4573H16.0591V44.0193C16.1773 43.7153 16.4672 43.3466 16.9287 42.9132C17.3903 42.4742 17.9222 42.2546 18.5245 42.2546C18.5527 42.2546 18.6005 42.2574 18.6681 42.2631C18.7356 42.2687 18.851 42.28 19.0142 42.2968V43.9011C18.9242 43.8842 18.8397 43.8729 18.7609 43.8673C18.6878 43.8617 18.6061 43.8588 18.5161 43.8588C17.7506 43.8588 17.1623 44.1065 16.7514 44.6019C16.3405 45.0916 16.1351 45.6573 16.1351 46.299V51.5H14.6153V42.4573ZM23.9198 50.5206C24.9273 50.5206 25.6169 50.1406 25.9884 49.3807C26.3655 48.6152 26.5541 47.7653 26.5541 46.8309C26.5541 45.9866 26.419 45.2998 26.1488 44.7707C25.721 43.9377 24.9836 43.5211 23.9366 43.5211C23.0079 43.5211 22.3324 43.8757 21.9103 44.585C21.4881 45.2942 21.277 46.1498 21.277 47.1517C21.277 48.1143 21.4881 48.9164 21.9103 49.558C22.3324 50.1997 23.0023 50.5206 23.9198 50.5206ZM23.9789 42.1955C25.144 42.1955 26.1291 42.5839 26.934 43.3607C27.7389 44.1375 28.1414 45.2801 28.1414 46.7887C28.1414 48.2465 27.7868 49.4511 27.0775 50.4024C26.3683 51.3537 25.2679 51.8293 23.7762 51.8293C22.5323 51.8293 21.5444 51.4099 20.8126 50.5712C20.0809 49.7269 19.715 48.5955 19.715 47.1771C19.715 45.6573 20.1006 44.4471 20.8717 43.5464C21.6429 42.6458 22.6786 42.1955 23.9789 42.1955ZM31.4765 42.4573V48.4604C31.4765 48.922 31.5497 49.2991 31.696 49.5918C31.9662 50.1322 32.47 50.4024 33.2073 50.4024C34.2656 50.4024 34.9861 49.9296 35.3688 48.9839C35.5771 48.4773 35.6812 47.7822 35.6812 46.8984V42.4573H37.201V51.5H35.7657L35.7825 50.166C35.5855 50.5093 35.3407 50.7992 35.048 51.0356C34.4682 51.5084 33.7646 51.7449 32.9372 51.7449C31.6482 51.7449 30.7701 51.3142 30.3029 50.453C30.0496 49.9915 29.9229 49.3751 29.9229 48.604V42.4573H31.4765ZM43.3984 50.4784C44.1076 50.4784 44.6958 50.1829 45.163 49.5918C45.6358 48.9952 45.8722 48.1058 45.8722 46.9238C45.8722 46.2033 45.7681 45.5841 45.5598 45.0662C45.1658 44.0699 44.4453 43.5718 43.3984 43.5718C42.3458 43.5718 41.6253 44.0981 41.2369 45.1507C41.0286 45.7136 40.9245 46.4284 40.9245 47.2953C40.9245 47.9932 41.0286 48.5871 41.2369 49.0768C41.6309 50.0112 42.3514 50.4784 43.3984 50.4784ZM39.4638 42.4995H40.9414V43.6984C41.2453 43.2875 41.5774 42.9695 41.9377 42.7443C42.4499 42.4066 43.0522 42.2377 43.7445 42.2377C44.769 42.2377 45.6386 42.6318 46.3535 43.4198C47.0684 44.2022 47.4258 45.3223 47.4258 46.7802C47.4258 48.7503 46.9108 50.1575 45.8807 51.0018C45.2277 51.5366 44.4678 51.804 43.601 51.804C42.9199 51.804 42.3486 51.6548 41.887 51.3565C41.6168 51.1876 41.3157 50.8977 40.9836 50.4868V55.1053H39.4638V42.4995Z" fill="#0F0F0F"/>
<path d="M160.264 20.698L145.481 35.4813L135.181 45.7813C132.486 48.4758 128.118 48.4758 125.423 45.7813L132.621 52.9792C135.316 55.6737 139.684 55.6737 142.379 52.9792L152.679 42.6792L156.648 38.7101C156.648 38.7101 165.277 25.7118 162.583 23.0173L160.264 20.698Z" fill="url(#paint0_linear_21_1883)"/>
<path d="M137.5 43.4613L129.519 35.4806L119.219 25.1806C116.525 22.4861 116.525 18.1173 119.219 15.4233L112.021 22.6213C109.326 25.3157 109.326 29.6841 112.021 32.3785L122.321 42.6785L125.423 45.7806C128.117 48.475 132.486 48.475 135.18 45.7806L137.5 43.4613Z" fill="url(#paint1_linear_21_1883)"/>
<path d="M130.458 4.49587L145.481 19.5193L155.781 29.8192C158.476 32.5137 158.476 36.8821 155.781 39.5765L162.979 32.3786C165.674 29.6841 165.674 25.3158 162.979 22.6213L152.679 12.3213L148.797 8.43876C148.797 8.43876 135.496 -0.493318 132.802 2.20116L130.458 4.49587Z" fill="url(#paint2_linear_21_1883)"/>
<path d="M142.379 2.02086C139.684 -0.673619 135.316 -0.673619 132.621 2.02086L119.219 15.4229C116.525 18.1174 116.525 22.4857 119.219 25.1802L121.539 27.4994L129.519 19.5182L139.819 9.21822C142.514 6.52374 146.882 6.52374 149.577 9.21822L142.379 2.02086Z" fill="url(#paint3_linear_21_1883)"/>
<defs>
<linearGradient id="paint0_linear_21_1883" x1="144.264" y1="20.6978" x2="144.264" y2="55" gradientUnits="userSpaceOnUse">
<stop offset="0.106" stop-color="#339100"/>
<stop offset="0.2603" stop-color="#50D609"/>
<stop offset="0.2673" stop-color="#5BCF1D"/>
<stop offset="0.6725" stop-color="#8AD658"/>
<stop offset="0.7389" stop-color="#9EDF57"/>
<stop offset="0.8471" stop-color="#BAEB55"/>
<stop offset="0.9102" stop-color="#C4F054"/>
</linearGradient>
<linearGradient id="paint1_linear_21_1883" x1="137.5" y1="31.6122" x2="110" y2="31.6122" gradientUnits="userSpaceOnUse">
<stop stop-color="#339100"/>
<stop offset="0.5398" stop-color="#8AD658"/>
<stop offset="0.7619" stop-color="#B3E855"/>
<stop offset="0.8852" stop-color="#C4F054"/>
</linearGradient>
<linearGradient id="paint2_linear_21_1883" x1="130.458" y1="20.6356" x2="165" y2="20.6356" gradientUnits="userSpaceOnUse">
<stop offset="0.2295" stop-color="#339100"/>
<stop offset="0.294" stop-color="#5BCF1D"/>
<stop offset="0.6725" stop-color="#8AD658"/>
<stop offset="0.7389" stop-color="#9EDF57"/>
<stop offset="0.8471" stop-color="#BAEB55"/>
<stop offset="0.9102" stop-color="#C4F054"/>
</linearGradient>
<linearGradient id="paint3_linear_21_1883" x1="133.388" y1="27.4999" x2="133.388" y2="-0.000111461" gradientUnits="userSpaceOnUse">
<stop offset="0.106" stop-color="#339100"/>
<stop offset="0.6725" stop-color="#8AD658"/>
<stop offset="0.7389" stop-color="#9EDF57"/>
<stop offset="0.8471" stop-color="#BAEB55"/>
<stop offset="0.9102" stop-color="#C4F054"/>
</linearGradient>
</defs>
</svg>
