<svg width="302" height="302" viewBox="0 0 302 302" fill="none" xmlns="http://www.w3.org/2000/svg">
<circle cx="151" cy="151" r="151" fill="#D9D9D9"/>
<path d="M94.7734 129V125.836L105.953 113.414C107.281 111.93 108.32 110.664 109.07 109.617C109.82 108.555 110.344 107.594 110.641 106.734C110.938 105.875 111.086 104.984 111.086 104.062C111.086 102.359 110.57 100.93 109.539 99.7734C108.508 98.6016 107.031 98.0156 105.109 98.0156C103.109 98.0156 101.547 98.6172 100.422 99.8203C99.3125 101.023 98.7578 102.727 98.7578 104.93H94.3281L94.2812 104.789C94.2344 102.82 94.6484 101.055 95.5234 99.4922C96.3984 97.9141 97.6641 96.6719 99.3203 95.7656C100.992 94.8438 102.977 94.3828 105.273 94.3828C107.43 94.3828 109.281 94.7969 110.828 95.625C112.391 96.4375 113.594 97.5547 114.438 98.9766C115.281 100.398 115.703 102.031 115.703 103.875C115.703 105.125 115.453 106.367 114.953 107.602C114.469 108.836 113.75 110.102 112.797 111.398C111.859 112.695 110.727 114.062 109.398 115.5L100.422 125.273L100.469 125.391H112.586L112.961 121.477H116.875V129H94.7734ZM132.297 129.492C130.062 129.492 128.109 129.125 126.438 128.391C124.781 127.641 123.492 126.547 122.57 125.109C121.648 123.656 121.188 121.875 121.188 119.766C121.188 117.844 121.766 116.148 122.922 114.68C124.078 113.211 125.641 112.133 127.609 111.445C125.906 110.789 124.57 109.797 123.602 108.469C122.633 107.125 122.148 105.562 122.148 103.781C122.148 101.781 122.57 100.086 123.414 98.6953C124.258 97.2891 125.438 96.2188 126.953 95.4844C128.469 94.75 130.234 94.3828 132.25 94.3828C134.25 94.3828 136.016 94.75 137.547 95.4844C139.078 96.2188 140.273 97.2891 141.133 98.6953C142.008 100.086 142.445 101.781 142.445 103.781C142.445 105.562 141.945 107.125 140.945 108.469C139.945 109.797 138.594 110.789 136.891 111.445C138.859 112.133 140.43 113.211 141.602 114.68C142.789 116.148 143.383 117.844 143.383 119.766C143.383 121.875 142.914 123.656 141.977 125.109C141.039 126.547 139.734 127.641 138.062 128.391C136.406 129.125 134.484 129.492 132.297 129.492ZM132.297 125.883C133.578 125.883 134.703 125.633 135.672 125.133C136.656 124.633 137.422 123.922 137.969 123C138.516 122.062 138.789 120.953 138.789 119.672C138.789 118.422 138.508 117.312 137.945 116.344C137.383 115.375 136.609 114.617 135.625 114.07C134.641 113.523 133.516 113.25 132.25 113.25C130.984 113.25 129.867 113.523 128.898 114.07C127.93 114.617 127.172 115.375 126.625 116.344C126.078 117.297 125.805 118.406 125.805 119.672C125.805 121.609 126.391 123.133 127.562 124.242C128.75 125.336 130.328 125.883 132.297 125.883ZM132.297 109.617C133.375 109.617 134.328 109.383 135.156 108.914C136 108.43 136.656 107.758 137.125 106.898C137.594 106.039 137.828 105.031 137.828 103.875C137.828 102.75 137.586 101.75 137.102 100.875C136.617 99.9844 135.953 99.2891 135.109 98.7891C134.281 98.2734 133.328 98.0156 132.25 98.0156C130.609 98.0156 129.281 98.5547 128.266 99.6328C127.266 100.695 126.766 102.109 126.766 103.875C126.766 105.609 127.273 107 128.289 108.047C129.305 109.094 130.641 109.617 132.297 109.617Z" fill="black"/>
<path d="M146.141 201.5V198.547L148.672 198.195L160.602 167.375H164.562L176.281 198.195L178.789 198.547V201.5H168.992V198.547L171.57 198.102L169.32 191.82H155.656L153.336 198.102L155.914 198.547V201.5H146.141ZM157.086 187.953H167.914L162.898 174.078L162.617 173.305H162.477L162.195 174.078L157.086 187.953ZM181.484 211.25V208.273L185.07 207.617V179.773L181.25 179.117V176.141H189.031L189.453 179.234C190.297 178.078 191.32 177.195 192.523 176.586C193.742 175.977 195.148 175.672 196.742 175.672C198.836 175.672 200.625 176.242 202.109 177.383C203.594 178.508 204.727 180.094 205.508 182.141C206.289 184.172 206.68 186.555 206.68 189.289V189.781C206.68 192.219 206.281 194.352 205.484 196.18C204.703 198.008 203.578 199.438 202.109 200.469C200.641 201.484 198.875 201.992 196.812 201.992C195.25 201.992 193.875 201.734 192.688 201.219C191.516 200.688 190.516 199.906 189.688 198.875V207.617L193.719 208.273V211.25H181.484ZM195.383 198.383C197.57 198.383 199.227 197.586 200.352 195.992C201.477 194.398 202.039 192.328 202.039 189.781V189.289C202.039 187.352 201.789 185.648 201.289 184.18C200.789 182.695 200.039 181.531 199.039 180.688C198.055 179.844 196.82 179.422 195.336 179.422C194.023 179.422 192.898 179.719 191.961 180.312C191.023 180.906 190.266 181.719 189.688 182.75V195.102C190.266 196.148 191.016 196.961 191.938 197.539C192.875 198.102 194.023 198.383 195.383 198.383ZM210.219 201.5V198.547L214.039 197.891V179.773L210.219 179.117V176.141H218.164L218.562 179.375L218.609 179.82C219.328 178.523 220.211 177.508 221.258 176.773C222.32 176.039 223.531 175.672 224.891 175.672C225.375 175.672 225.867 175.719 226.367 175.812C226.883 175.891 227.25 175.969 227.469 176.047L226.859 180.336L223.648 180.148C222.43 180.07 221.406 180.352 220.578 180.992C219.75 181.617 219.109 182.461 218.656 183.523V197.891L222.477 198.547V201.5H210.219Z" fill="black"/>
<line x1="202.472" y1="97.3542" x2="101.063" y2="207.573" stroke="black" stroke-width="4"/>
</svg>
