<svg width="302" height="302" viewBox="0 0 302 302" fill="none" xmlns="http://www.w3.org/2000/svg">
<circle cx="151" cy="151" r="151" fill="#D9D9D9"/>
<path d="M106.211 129.492C102.867 129.492 100.219 128.328 98.2656 126C96.3125 123.672 95.3359 120.336 95.3359 115.992V107.906C95.3359 103.562 96.3047 100.227 98.2422 97.8984C100.18 95.5547 102.82 94.3828 106.164 94.3828C109.523 94.3828 112.18 95.5547 114.133 97.8984C116.086 100.227 117.062 103.562 117.062 107.906V115.992C117.062 120.352 116.094 123.695 114.156 126.023C112.219 128.336 109.57 129.492 106.211 129.492ZM106.211 125.883C108.258 125.883 109.805 125.133 110.852 123.633C111.914 122.133 112.445 119.898 112.445 116.93V106.922C112.445 103.969 111.906 101.75 110.828 100.266C109.766 98.7656 108.211 98.0156 106.164 98.0156C104.148 98.0156 102.609 98.7656 101.547 100.266C100.484 101.75 99.9531 103.969 99.9531 106.922V116.93C99.9531 119.883 100.492 122.117 101.57 123.633C102.648 125.133 104.195 125.883 106.211 125.883ZM134.266 129.492C132.047 129.492 130.062 128.953 128.312 127.875C126.578 126.781 125.211 125.195 124.211 123.117C123.211 121.039 122.711 118.523 122.711 115.57V110.977C122.711 107.367 123.25 104.336 124.328 101.883C125.422 99.4141 126.922 97.5469 128.828 96.2812C130.75 95.0156 132.953 94.3828 135.438 94.3828C136.594 94.3828 137.742 94.5156 138.883 94.7812C140.039 95.0469 140.992 95.3828 141.742 95.7891L140.852 99.2344C140.117 98.875 139.312 98.5859 138.438 98.3672C137.562 98.1328 136.562 98.0156 135.438 98.0156C133.047 98.0156 131.141 98.9219 129.719 100.734C128.312 102.531 127.562 105.25 127.469 108.891L127.562 108.984C128.438 108.172 129.508 107.531 130.773 107.062C132.039 106.578 133.406 106.336 134.875 106.336C136.906 106.336 138.672 106.82 140.172 107.789C141.672 108.742 142.828 110.062 143.641 111.75C144.469 113.438 144.883 115.359 144.883 117.516C144.883 119.875 144.445 121.953 143.57 123.75C142.695 125.547 141.461 126.953 139.867 127.969C138.273 128.984 136.406 129.492 134.266 129.492ZM134.266 125.883C135.531 125.883 136.609 125.516 137.5 124.781C138.391 124.047 139.07 123.047 139.539 121.781C140.023 120.516 140.266 119.094 140.266 117.516C140.266 115.266 139.695 113.414 138.555 111.961C137.43 110.508 135.867 109.781 133.867 109.781C132.82 109.781 131.867 109.93 131.008 110.227C130.164 110.508 129.43 110.914 128.805 111.445C128.195 111.961 127.695 112.57 127.305 113.273V116.016C127.305 119.188 127.961 121.625 129.273 123.328C130.602 125.031 132.266 125.883 134.266 125.883Z" fill="black"/>
<path d="M156.289 201.992C154.398 201.992 152.68 201.617 151.133 200.867C149.602 200.117 148.367 198.984 147.43 197.469C146.508 195.953 146 194.055 145.906 191.773L145.953 191.633H150.383C150.445 193.93 150.969 195.617 151.953 196.695C152.953 197.773 154.375 198.312 156.219 198.312C157.516 198.312 158.578 198.039 159.406 197.492C160.234 196.93 160.844 196.164 161.234 195.195C161.641 194.211 161.844 193.086 161.844 191.82V171.008L157.297 170.398V167.375H170.281V170.352L166.461 171.008V191.82C166.461 193.852 166.07 195.633 165.289 197.164C164.523 198.695 163.383 199.883 161.867 200.727C160.367 201.57 158.508 201.992 156.289 201.992ZM184.812 201.992C182.062 201.992 179.914 201.109 178.367 199.344C176.82 197.578 176.047 194.828 176.047 191.094V179.773L173.141 179.117V176.141H176.047H180.664V191.141C180.664 193.844 181.062 195.703 181.859 196.719C182.656 197.734 183.898 198.242 185.586 198.242C187.227 198.242 188.578 197.914 189.641 197.258C190.719 196.586 191.531 195.641 192.078 194.422V179.773L188.68 179.117V176.141H192.078H196.695V197.891L199.602 198.547V201.5H192.547L192.242 197.75C191.445 199.109 190.414 200.156 189.148 200.891C187.898 201.625 186.453 201.992 184.812 201.992ZM202.859 201.5V198.547L206.68 197.891V179.773L202.859 179.117V176.141H210.805L211.133 179.914C211.977 178.57 213.031 177.531 214.297 176.797C215.578 176.047 217.031 175.672 218.656 175.672C221.391 175.672 223.508 176.477 225.008 178.086C226.508 179.68 227.258 182.148 227.258 185.492V197.891L231.078 198.547V201.5H218.82V198.547L222.641 197.891V185.586C222.641 183.352 222.195 181.766 221.305 180.828C220.43 179.891 219.086 179.422 217.273 179.422C215.945 179.422 214.766 179.742 213.734 180.383C212.719 181.023 211.906 181.898 211.297 183.008V197.891L215.117 198.547V201.5H202.859Z" fill="black"/>
<line x1="202.472" y1="97.3542" x2="101.063" y2="207.573" stroke="black" stroke-width="4"/>
</svg>
