<svg width="302" height="302" viewBox="0 0 302 302" fill="none" xmlns="http://www.w3.org/2000/svg">
<circle cx="151" cy="151" r="151" fill="#D9D9D9"/>
<path d="M95.3359 129V126.047L100.609 125.391V99.8203L95.2422 99.9141V97.0312L105.227 94.875V125.391L110.477 126.047V129H95.3359ZM124.516 129.492C122.594 129.492 120.867 129.141 119.336 128.438C117.82 127.734 116.633 126.695 115.773 125.32C114.914 123.93 114.508 122.211 114.555 120.164L114.602 120.023H118.773C118.773 121.867 119.305 123.305 120.367 124.336C121.445 125.367 122.828 125.883 124.516 125.883C126.469 125.883 127.984 125.195 129.062 123.82C130.141 122.445 130.68 120.562 130.68 118.172C130.68 115.969 130.133 114.172 129.039 112.781C127.961 111.375 126.461 110.672 124.539 110.672C122.727 110.672 121.406 110.945 120.578 111.492C119.766 112.039 119.172 112.875 118.797 114L114.953 113.602L116.922 94.875H134.945V101.625H131.477L131.031 98.9766H120.836L119.734 108.562C120.203 108.203 120.711 107.891 121.258 107.625C121.805 107.344 122.398 107.117 123.039 106.945C123.695 106.773 124.406 106.68 125.172 106.664C127.266 106.648 129.07 107.109 130.586 108.047C132.102 108.969 133.266 110.297 134.078 112.031C134.891 113.75 135.297 115.781 135.297 118.125C135.297 120.406 134.883 122.398 134.055 124.102C133.242 125.805 132.031 127.133 130.422 128.086C128.828 129.023 126.859 129.492 124.516 129.492Z" fill="black"/>
<path d="M146.703 201.5V198.547L150.523 197.891V171.008L146.703 170.352V167.375H150.523H156.688L167.68 193.273H167.82L178.461 167.375H188.75V170.352L184.93 171.008V197.891L188.75 198.547V201.5H176.492V198.547L180.523 197.891V188V173.68L180.406 173.656L169.32 200.281H166.25L154.789 173.703L154.672 173.727L154.836 188V197.891L158.961 198.547V201.5H146.703ZM200.891 201.992C198.25 201.992 196.242 201.352 194.867 200.07C193.492 198.773 192.805 196.953 192.805 194.609C192.805 193 193.242 191.602 194.117 190.414C195.008 189.211 196.289 188.281 197.961 187.625C199.633 186.953 201.633 186.617 203.961 186.617H208.484V184.133C208.484 182.602 208.016 181.414 207.078 180.57C206.156 179.727 204.852 179.305 203.164 179.305C202.102 179.305 201.18 179.438 200.398 179.703C199.617 179.953 198.906 180.305 198.266 180.758L197.773 184.297H194.211V178.484C195.352 177.562 196.68 176.867 198.195 176.398C199.711 175.914 201.391 175.672 203.234 175.672C206.312 175.672 208.727 176.406 210.477 177.875C212.227 179.344 213.102 181.445 213.102 184.18V196.391C213.102 196.719 213.102 197.039 213.102 197.352C213.117 197.664 213.141 197.977 213.172 198.289L215.633 198.547V201.5H209C208.859 200.812 208.75 200.195 208.672 199.648C208.594 199.102 208.539 198.555 208.508 198.008C207.617 199.148 206.5 200.102 205.156 200.867C203.828 201.617 202.406 201.992 200.891 201.992ZM201.57 198.125C203.102 198.125 204.5 197.758 205.766 197.023C207.031 196.289 207.938 195.406 208.484 194.375V189.781H203.797C201.672 189.781 200.078 190.289 199.016 191.305C197.953 192.32 197.422 193.453 197.422 194.703C197.422 195.812 197.766 196.664 198.453 197.258C199.141 197.836 200.18 198.125 201.57 198.125ZM219.172 201.5V198.547L222.992 197.891V179.773L219.172 179.117V176.141H227.117L227.516 179.375L227.562 179.82C228.281 178.523 229.164 177.508 230.211 176.773C231.273 176.039 232.484 175.672 233.844 175.672C234.328 175.672 234.82 175.719 235.32 175.812C235.836 175.891 236.203 175.969 236.422 176.047L235.812 180.336L232.602 180.148C231.383 180.07 230.359 180.352 229.531 180.992C228.703 181.617 228.062 182.461 227.609 183.523V197.891L231.43 198.547V201.5H219.172Z" fill="black"/>
<line x1="202.472" y1="97.3542" x2="101.063" y2="207.573" stroke="black" stroke-width="4"/>
</svg>
