<svg width="40" height="40" viewBox="0 0 40 40" fill="none" xmlns="http://www.w3.org/2000/svg">
<rect width="40" height="40" rx="20" fill="white"/>
<path d="M25 10H15C12.2386 10 10 12.2386 10 15V25C10 27.7614 12.2386 30 15 30H25C27.7614 30 30 27.7614 30 25V15C30 12.2386 27.7614 10 25 10Z" stroke="black" stroke-width="2" stroke-linecap="round" stroke-linejoin="round"/>
<path d="M26.6666 18.95C26.8723 20.3371 26.6354 21.7537 25.9896 22.9984C25.3437 24.243 24.3219 25.2524 23.0693 25.8828C21.8168 26.5132 20.3974 26.7327 19.0129 26.5099C17.6285 26.2871 16.3496 25.6335 15.358 24.6419C14.3665 23.6504 13.7128 22.3715 13.4901 20.987C13.2673 19.6026 13.4867 18.1832 14.1172 16.9306C14.7476 15.6781 15.7569 14.6562 17.0016 14.0104C18.2463 13.3646 19.6629 13.1277 21.05 13.3333C22.4648 13.5432 23.7747 14.2025 24.7861 15.2139C25.7975 16.2253 26.4568 17.5351 26.6666 18.95Z" stroke="black" stroke-width="2" stroke-linecap="round" stroke-linejoin="round"/>
<path d="M29.1666 10.8334H29.1833" stroke="black" stroke-width="2" stroke-linecap="round" stroke-linejoin="round"/>
</svg>
