<svg width="100" height="100" viewBox="0 0 100 100" fill="none" xmlns="http://www.w3.org/2000/svg">
<g clip-path="url(#clip0_13_93)">
<path d="M44.7656 0.0469012C44.5703 0.0703387 43.8906 0.187526 43.2422 0.312526C41.5078 0.656276 40.5938 0.781276 39.7266 0.789089C39.2969 0.789089 38.8203 0.835964 38.6719 0.882839C38.4375 0.968776 38.3984 1.00784 38.4219 1.20315C38.4453 1.4219 38.4453 1.4219 38.1094 1.36721C37.2891 1.2344 36.6406 1.36721 36.6406 1.66409C36.6406 1.77346 35.2656 2.03909 34.5781 2.06253C34.2891 2.07034 34.1719 2.11721 34.0547 2.25784C33.9688 2.3594 33.8281 2.45315 33.7266 2.46096C33.6328 2.47659 33.4141 2.53128 33.2422 2.59378C32.5078 2.86721 32.4531 2.87503 32.1875 2.76565C31.7969 2.59378 31.625 2.61721 31.6797 2.83596C31.7188 2.9844 31.6719 3.03909 31.375 3.17971C31.1797 3.28128 30.7266 3.42971 30.375 3.51565C29.5078 3.7344 29.3203 3.80471 28.8906 4.12503C28.6797 4.26565 27.9766 4.63284 27.3281 4.93753C26.6719 5.24221 25.9453 5.62503 25.7188 5.7969C25.4922 5.96878 25.1875 6.15628 25.0547 6.21096C24.9141 6.26565 24.7422 6.38284 24.6641 6.46878C24.5859 6.55471 24.3594 6.66409 24.1563 6.71878C23.6094 6.86721 23.3828 7.00784 23.2656 7.24221C23.1953 7.39065 22.9844 7.5469 22.6094 7.7344C22.2969 7.89065 21.9531 8.13284 21.8359 8.27346C21.7109 8.41409 21.2969 8.74221 20.9141 9.00003C20.5234 9.26565 19.9922 9.6719 19.7344 9.91409C19.4688 10.1563 19.0859 10.4922 18.8672 10.6641C18.6563 10.8282 18.375 11.0625 18.2422 11.1797C18.1172 11.2969 17.6875 11.586 17.2969 11.8203C16.9063 12.0547 16.3359 12.4922 16.0234 12.7969C15.4609 13.3438 15.4531 13.3438 15.6406 13.4453L15.8203 13.5469L15.5859 13.6016C15.4609 13.6328 15.2031 13.6563 15.0156 13.6641C14.7188 13.6719 14.6641 13.7032 14.5469 13.9219C14.4766 14.0625 14.0938 14.4922 13.6953 14.8828C13.3047 15.2657 12.7969 15.8125 12.5781 16.0938C12.3516 16.375 11.875 16.8985 11.5156 17.2657C11.0859 17.711 10.8359 18.0313 10.7656 18.2422C10.6875 18.4844 10.5625 18.6172 10.2109 18.8516C9.67188 19.211 9.52344 19.461 9.71875 19.6797C9.83594 19.8125 9.83594 19.8282 9.72656 19.875C9.65625 19.8985 9.53906 19.9219 9.46875 19.9219C9.30469 19.9297 8.94531 20.4063 8.54688 21.1328C8.38281 21.4297 7.96875 22.0469 7.63281 22.5C7.28906 22.9532 6.89844 23.5547 6.75 23.8516C6.60156 24.1407 6.35938 24.5703 6.20313 24.8125C6.05469 25.0469 5.84375 25.4688 5.73438 25.75C5.63281 26.0313 5.375 26.5157 5.17188 26.8203C4.74219 27.4532 3.52344 29.9141 3.22656 30.7422C3.11719 31.0391 2.83594 31.6641 2.60938 32.1172C2.38281 32.5782 2.125 33.1719 2.03125 33.4375C1.9375 33.711 1.74219 34.1719 1.59375 34.461C1.44531 34.7578 1.32813 35.1016 1.32813 35.2266C1.32813 35.3516 1.28906 35.5547 1.25 35.6641C1.125 35.9922 1.28125 36.2032 1.60938 36.1485C1.75781 36.125 1.875 36.1328 1.875 36.1719C1.875 36.2422 1.76563 36.2813 1.35156 36.3672C1.21875 36.3907 1.07031 36.461 1.03125 36.5078C0.851563 36.7344 0.53125 38.625 0.601563 39.0078C0.625 39.1172 0.578125 39.3907 0.507813 39.6094L0.375 40.0078L0.59375 40.3282L0.8125 40.6407L0.609375 40.8203C0.359375 41.0391 0.21875 41.2813 0.273438 41.4297C0.296875 41.4844 0.453125 41.6016 0.609375 41.6797C0.851563 41.7969 0.875 41.8282 0.742188 41.8594C0.4375 41.9219 0.3125 42.1172 0.320313 42.4922C0.328125 42.6875 0.273438 43.2188 0.203125 43.6719C0.0859375 44.3594 0.0703125 44.8282 0.109375 46.5235C0.132813 47.6407 0.171875 48.8125 0.203125 49.1172C0.242188 49.5235 0.226563 49.7578 0.148438 49.9375C0.078125 50.1094 0.0390625 50.5078 0.0390625 51.0938C0.0390625 51.8672 0.0625 52.0157 0.1875 52.1407C0.304688 52.2578 0.320313 52.3438 0.273438 52.6094C0.0703125 53.8282 0.0859375 54.4141 0.359375 55.25C0.46875 55.5938 0.46875 55.6563 0.351563 56.0235C0.242188 56.336 0.234375 56.461 0.304688 56.6328C0.375 56.7813 0.375 56.9453 0.320313 57.1953C0.203125 57.6797 0.21875 57.8594 0.367188 58.0078C0.460938 58.1094 0.492188 58.2578 0.476563 58.5782C0.46875 58.8282 0.515625 59.2266 0.585938 59.4766C0.648438 59.7266 0.703125 60.0391 0.703125 60.1719C0.703125 60.3203 0.804688 60.5469 0.976563 60.7891C1.21875 61.1172 1.25781 61.2266 1.28125 61.6953C1.30469 62.336 1.48438 62.711 1.82031 62.8516C2.0625 62.9532 2.0625 62.9532 1.875 62.9844C1.58594 63.0235 1.58594 63.336 1.86719 63.875C2.01563 64.1641 2.07813 64.3672 2.03906 64.4375C2 64.5 2.01563 64.6407 2.07813 64.7578C2.13281 64.875 2.23438 65.211 2.29688 65.5078C2.35938 65.8125 2.5 66.2657 2.60938 66.5235C2.71094 66.7813 2.85938 67.2188 2.92969 67.5C3.32813 69.0938 4.21875 71.1953 4.8125 71.9688C5.00781 72.211 5.21875 72.5469 5.28125 72.711C5.35156 72.875 5.57813 73.375 5.79688 73.8282C6.01563 74.2813 6.27344 74.8516 6.36719 75.0938C6.46875 75.3438 6.78906 75.9375 7.09375 76.4219C7.39063 76.9063 7.74219 77.5078 7.88281 77.75C8.02344 78 8.16406 78.2188 8.20313 78.2422C8.25 78.2657 8.42969 78.5235 8.61719 78.8125C8.8125 79.1016 9.30469 79.7032 9.72656 80.1563C10.1406 80.6094 10.6406 81.1875 10.8359 81.4453C11.0313 81.7032 11.6172 82.336 12.1406 82.8516C12.6641 83.3672 13.4297 84.1719 13.8359 84.6407C14.8906 85.8594 14.9531 85.9219 15.2031 85.9844C15.3359 86.0157 15.6016 86.2266 15.8438 86.4922C16.1172 86.7969 16.4141 87.0235 16.7422 87.1719C17.2656 87.4219 17.4141 87.5625 17.8281 88.1797C18.4922 89.1875 21.2188 91.3907 22.7344 92.1485C23.1406 92.3516 23.5781 92.6016 23.7109 92.6953C23.9453 92.875 26.0938 94.0703 26.3438 94.1641C26.4219 94.1875 26.7422 94.3828 27.0469 94.5938C27.875 95.1485 29.625 95.8672 30.5078 96.0157C31.0547 96.1016 31.2266 96.1875 31.7422 96.5938C32.3125 97.0391 32.7266 97.1953 34.5703 97.6563C35.3906 97.8594 36.25 98.086 36.4844 98.1563C36.7188 98.2266 37.3047 98.3125 37.7734 98.3516C38.25 98.3985 39 98.5157 39.4531 98.625C39.9063 98.7344 40.7344 98.9141 41.2891 99.0235C41.8516 99.1328 42.5313 99.2735 42.8125 99.336C43.0938 99.3985 43.7109 99.4688 44.1797 99.4922C44.6563 99.5235 45.3594 99.5938 45.7422 99.6485C48 99.9922 48.3984 100.016 50.125 99.8828C51.0156 99.8125 51.7734 99.7422 51.7969 99.7266C51.875 99.6797 54.0625 99.4688 55.4688 99.375C56.7188 99.2891 57.9219 99.1016 58.7031 98.8672C58.9141 98.8047 59.4063 98.711 59.7969 98.6641C60.2578 98.6094 60.7422 98.4922 61.1719 98.3203C61.5391 98.1719 62.2422 97.9141 62.7344 97.75C63.6406 97.4453 65.6563 96.6328 66.2188 96.3438C66.3828 96.2578 66.8828 96.1172 67.3203 96.0313C67.7578 95.9375 68.3203 95.7657 68.5703 95.6328C68.8203 95.5078 69.3594 95.336 69.7656 95.25C70.4219 95.1094 70.7656 94.9532 72.6953 93.9688C73.8984 93.3516 75.1797 92.6328 75.5469 92.375C75.9141 92.1172 76.3359 91.8282 76.4922 91.7344C76.6406 91.6407 76.8359 91.4922 76.9219 91.3985C77 91.3047 77.2813 91.125 77.5391 91C78.1563 90.6875 78.8672 90.1719 79.2969 89.7266C79.4922 89.5235 80 89.1172 80.4297 88.8282C81.3594 88.1953 82.8047 86.8828 83.3594 86.1563C83.5781 85.875 83.9453 85.5157 84.1719 85.3672C84.3984 85.211 84.8984 84.7891 85.2891 84.4297C85.9688 83.7735 86.0313 83.6797 86.4453 82.6797C86.5703 82.3828 86.6016 82.3594 86.8281 82.3985C87.1719 82.4532 87.4922 82.1641 87.7578 81.5782C87.9141 81.2266 88.1016 81 88.5703 80.586C88.9063 80.2969 89.3203 79.8594 89.5 79.6172C89.6719 79.375 89.9531 79.0625 90.1094 78.9219C90.4531 78.625 90.7578 78.2266 91.3672 77.3203C91.9766 76.4219 92.7031 75.3985 92.875 75.2032C92.9531 75.1094 93.1094 74.875 93.2188 74.6719C93.3281 74.4688 93.6563 74.0157 93.9375 73.6563C94.5625 72.875 94.875 72.1641 95.8672 69.2969C95.9609 69.0157 96.1172 68.5938 96.2188 68.3594C96.3125 68.125 96.4141 67.7032 96.4453 67.4219C96.4766 67.1407 96.5859 66.5782 96.6875 66.1719C96.7891 65.7657 96.875 65.375 96.875 65.2969C96.875 65.2188 97.0078 65.0157 97.1641 64.836C97.5078 64.4532 97.7891 63.5235 97.6328 63.2735C97.5625 63.1641 97.5703 63.0625 97.6406 62.8516C97.8281 62.3516 98.3594 60.125 98.3594 59.8516C98.3594 59.3047 98.5469 58.5547 98.7266 58.3282C98.8906 58.1328 98.9141 58.0313 98.8984 57.5078C98.8906 57.1797 98.9219 56.8125 98.9766 56.6953C99.1016 56.3672 99.0859 55.9297 98.9063 55.2813C98.7422 54.6953 98.7422 54.6953 98.8906 53.5782C98.9922 52.836 99.0156 52.4141 98.9688 52.3203C98.9219 52.2188 98.9453 52.0235 99.0703 51.6641C99.2109 51.2422 99.2266 51.1016 99.1563 50.9141C99.1094 50.7891 99.0859 50.6485 99.1094 50.5938C99.125 50.5469 99.0938 50.2735 99.0391 49.9922C98.9531 49.586 98.9531 49.4375 99.0313 49.2188C99.1016 49.0157 99.1172 48.4532 99.0859 47.1094C99.0469 45.2266 98.9297 44.3047 98.7109 44.0625C98.5625 43.8985 98.5625 43.8047 98.7188 43.5C98.8359 43.2735 98.8359 43.2344 98.7109 43.0313C98.6406 42.9063 98.5547 42.6016 98.5156 42.3594C98.2578 40.6172 98.1094 39.7735 97.9609 39.1328C97.8672 38.7266 97.75 38.1328 97.6875 37.8125C97.5859 37.2344 96.9219 34.7657 96.625 33.8672C96.5391 33.6094 96.4219 33.1328 96.3516 32.8125C96.2891 32.4922 96.1406 31.9297 96.0234 31.5625C95.3359 29.5078 95.3359 29.5078 94.4141 27.1875C94.2344 26.7344 93.9531 25.9922 93.7969 25.5313C93.5781 24.9141 93.3906 24.5547 93.0859 24.1407C92.8516 23.8282 92.6406 23.4766 92.6172 23.3516C92.5859 23.2266 92.5234 23.125 92.4688 23.125C92.2969 23.125 92.1016 22.8438 92 22.4532C91.9453 22.2422 91.7422 21.8438 91.5469 21.5625C91.3594 21.2813 91.0313 20.7735 90.8281 20.4297C90.6328 20.086 90.3047 19.6328 90.1172 19.4141C89.7734 19.0391 89.7578 19.0313 89.3594 19.0391C88.9609 19.0547 88.9531 19.0469 89.125 18.9297C89.3594 18.7657 89.3438 18.6016 89.0469 18.1953C88.5625 17.5235 87.2656 16.0235 86.8594 15.6719C86.6328 15.4766 86.1797 15.0782 85.8594 14.7969C85.5391 14.5157 85.125 14.211 84.9375 14.1172C84.6875 13.9922 84.4609 13.7657 84.1016 13.2735C83.6172 12.6094 83.4609 12.4688 81.8359 11.25C81.5234 11.0157 81.0781 10.6719 80.8438 10.4922C79.7656 9.64065 79.3516 9.33596 78.5547 8.7969C78.0859 8.4844 77.4219 8.00003 77.0859 7.71878C76.5234 7.25003 75.9297 6.86721 74.2188 5.89846C73.8516 5.69534 73.4922 5.4844 73.4063 5.43753C73.2969 5.37503 73.25 5.37503 73.2266 5.44534C73.1641 5.61721 73.0078 5.55471 72.6953 5.22659C72.5234 5.05471 72.1172 4.77346 71.7891 4.6094C71.4688 4.44534 71.1563 4.25784 71.1016 4.18753C70.9375 3.9844 69.3516 3.13284 68.7813 2.93753C68.4844 2.83596 68.0859 2.67971 67.8906 2.60159C67.3125 2.34378 65.1641 1.64065 64.9766 1.64065C64.8828 1.64065 64.7109 1.68753 64.5938 1.75003C64.4063 1.85159 64.3828 1.84378 64.3438 1.68753C64.2891 1.47659 64.1406 1.39065 63.2578 1.09378C62.0547 0.695339 60.3438 0.437526 58.0859 0.312526C57.4453 0.273464 56.8125 0.203151 56.6797 0.148464C56.5 0.0781512 55.0547 0.0547137 50.7813 0.0390887C47.6641 0.0234637 44.9609 0.0312762 44.7656 0.0469012ZM46.2031 0.437526C46.2734 0.460964 46.3281 0.515651 46.3281 0.554714C46.3281 0.640651 45.6953 0.554714 45.5938 0.460964C45.5078 0.382839 46.0156 0.367214 46.2031 0.437526ZM55.2344 0.617214C55.8125 0.710964 56.7266 0.875026 57.2656 0.976589C58.4766 1.21096 59.4375 1.3594 59.6641 1.35159C59.7578 1.34378 59.9766 1.2344 60.1484 1.10159C60.4375 0.867214 60.7813 0.781276 60.7813 0.929714C60.7813 0.968776 60.7109 1.02346 60.6328 1.05471C60.4531 1.1094 60.3828 1.26565 60.4609 1.39846C60.5 1.45315 60.7656 1.52346 61.0625 1.56253C61.5938 1.63284 62.8594 1.89065 63.3203 2.02346C63.4531 2.06253 63.9453 2.25784 64.4141 2.46096C64.8906 2.65628 65.7656 3.01565 66.3672 3.25003C66.9688 3.49221 67.9375 3.9219 68.5156 4.21878C69.0938 4.50784 69.6563 4.77346 69.7656 4.80471C70.0547 4.89065 71.4219 5.58596 72.2344 6.06253C72.625 6.28909 73.1094 6.51565 73.3203 6.56253C73.7891 6.66409 73.9375 6.74221 74.375 7.1094C74.5703 7.26565 75.0469 7.58596 75.4297 7.82034C76.1953 8.28128 78.4219 9.91409 78.9844 10.4297C79.1797 10.6094 79.7578 11.086 80.2734 11.5C80.7891 11.9141 81.4063 12.4375 81.6406 12.6719C81.875 12.9063 82.3359 13.2969 82.6641 13.5391C83.5469 14.1797 85.9063 16.7891 87.6328 19.0235C88.0313 19.5391 88.5234 20.1563 88.7188 20.3907C88.9219 20.625 89.1563 20.9766 89.2422 21.1719C89.4219 21.5703 89.7969 22.0938 90.5859 23.0469C91.8125 24.5157 92.8516 26.2422 93.5703 28C94.3594 29.9297 94.5234 30.4297 94.5781 31.0391C94.6172 31.5547 94.7969 32.1407 95.2344 33.2032C95.4453 33.711 95.5313 34.0313 95.6172 34.6485C95.75 35.5782 96.1641 37.25 96.3672 37.6953C96.4922 37.961 96.5938 38.3594 96.6484 38.7969C96.6875 39.1719 96.8281 39.8985 96.9609 40.4141C97.0859 40.9219 97.2266 41.7188 97.2734 42.1797C97.3203 42.6328 97.4219 43.2735 97.5078 43.6016C97.5859 43.9297 97.6563 44.3594 97.6563 44.5547C97.6563 44.75 97.7109 45.1719 97.7813 45.4844C97.8594 45.8125 97.9219 46.5078 97.9297 47.1094C97.9453 47.7422 98.0078 48.3907 98.0859 48.7344C98.1953 49.211 98.2031 49.3828 98.125 49.8282C98.0234 50.461 98.1016 50.7422 98.4141 50.8672L98.6328 50.9532L98.4531 51.0235C98.1953 51.125 98.0547 51.5391 97.9609 52.4766C97.8984 53.1719 97.9063 53.3594 98 53.6016C98.1094 53.8672 98.1094 53.9922 98.0078 54.7032C97.9453 55.1485 97.8906 55.8516 97.8906 56.2657C97.8906 56.8907 97.8516 57.125 97.6953 57.5547C97.4922 58.086 97.2344 59.6485 97.1484 60.8594C97.0781 61.8047 96.9688 62.3125 96.7188 62.8907C96.4766 63.461 95.6563 65.6641 95.2734 66.7969C95.1328 67.2032 94.9141 67.7657 94.7813 68.0469C94.1094 69.5078 93.5938 70.7266 93.4922 71.1172C93.3516 71.6407 92.3359 73.3516 91.5313 74.4297C91.2109 74.8516 90.6641 75.6641 90.3203 76.2344C89.9688 76.8047 89.4219 77.586 89.1016 77.9766C88.7734 78.3672 88.3594 78.9141 88.1641 79.2032C87.75 79.8203 84.1484 83.5703 82.6875 84.9063C82.1172 85.4219 81.3984 86.0313 81.0859 86.2657C80.7656 86.5 80.2969 86.8828 80.0313 87.1172C79.3672 87.711 78.3906 88.5 77.9063 88.8438C77.6797 89.0078 77.2891 89.3125 77.0391 89.5157C76.6406 89.8516 75.5703 90.4453 73.7891 91.3125C73.4922 91.461 72.9453 91.7813 72.5781 92.0313C72.2109 92.2735 71.6172 92.625 71.25 92.8047C70.3516 93.2578 67.9766 94.211 67.3203 94.3828C66.9766 94.4688 66.5703 94.6563 66.1875 94.9063C65.7578 95.1875 65.3281 95.3828 64.6953 95.5782C64.2031 95.7344 63.7578 95.8594 63.7031 95.8594C63.6563 95.8594 63.2969 95.9844 62.9063 96.1328C62.1875 96.4063 61.1484 96.6641 60.3906 96.7578C59.7734 96.8282 57.5469 97.1797 56.9531 97.3047C56.6719 97.3594 56.2031 97.4297 55.8984 97.461C55.6016 97.4922 55 97.5782 54.5703 97.6641C53.4141 97.8828 51.8125 97.9688 49.0234 97.9688C46.875 97.9688 46.1719 97.9375 44.0234 97.7344C42.6484 97.6094 41.2266 97.4532 40.8594 97.3907C40.4922 97.3282 39.7578 97.2188 39.2266 97.1485C38.5391 97.0625 37.9375 96.9219 37.1953 96.6797C36.6172 96.4844 36.0391 96.3282 35.9219 96.3282C35.7969 96.3282 35.3906 96.211 35.0078 96.0625C34.6328 95.9141 34.0938 95.7422 33.8203 95.6719C33.1484 95.5 30.7031 94.4922 30.1016 94.1328C29.8359 93.9688 29.4141 93.7657 29.1641 93.6719C28.6875 93.4922 25.7266 91.9844 25.1953 91.6563C25.0234 91.5469 24.6172 91.336 24.2969 91.1875C23.5703 90.8594 22.4297 90.211 21.9141 89.836C21.7031 89.6797 21.3125 89.4375 21.0547 89.2969C20.5859 89.0313 19.9453 88.4063 19.9766 88.2422C19.9922 88.1953 19.8516 88.125 19.6719 88.0782C19.4141 88.0235 19.2969 87.9453 19.1641 87.7344C18.8281 87.2032 18.6406 87.0078 17.9297 86.4766C17.4141 86.086 17.1172 85.7969 16.8594 85.4141C16.4922 84.8828 16.1641 84.6094 15.875 84.6094C15.7891 84.6094 15.6563 84.5157 15.5781 84.3985C15.3203 83.9922 14.4141 82.9375 13.625 82.1094C13.1953 81.6563 12.6641 81.0782 12.4531 80.8203C11.0781 79.1797 9.0625 76.1407 7.98438 74.1016C7.57813 73.3282 7.10156 72.4688 6.92188 72.1875C6.58594 71.6563 5.58594 69.6719 5.34375 69.0625C5.26563 68.8672 5.01563 68.3907 4.77344 68.0078C4.10938 66.9219 4.05469 66.7813 3.89063 65.7578C3.77344 65.0547 3.69531 64.7813 3.58594 64.7032C3.51563 64.6563 3.42969 64.5 3.39844 64.375C3.36719 64.2422 3.3125 64.1407 3.27344 64.1407C3.23438 64.1407 3.20313 63.9688 3.20313 63.7578C3.20313 63.5469 3.125 63.1328 3.03906 62.8438C2.94531 62.5469 2.82813 62.086 2.76563 61.8203C2.71094 61.5547 2.53906 61.0469 2.39063 60.6953C2.23438 60.336 2.10938 59.9219 2.10938 59.7735C2.10938 59.3828 1.96875 58.5235 1.85938 58.2422C1.8125 58.1094 1.66406 57.8594 1.54688 57.6719C1.32031 57.3438 1.3125 57.1875 1.53125 57.1875C1.61719 57.1875 1.625 57.1563 1.57031 57.0391C1.51563 56.9453 1.51563 56.8047 1.5625 56.6328C1.67188 56.25 1.65625 55.5625 1.51563 54.4532C1.40625 53.6094 1.35938 53.4453 1.1875 53.2578C0.992188 53.0547 0.992188 53.0391 1.13281 52.9453C1.25781 52.8438 1.26563 52.7657 1.20313 52.0235C1.10156 50.8907 1.11719 49.3594 1.25 46.9922C1.3125 45.875 1.35938 44.4688 1.34375 43.875C1.32813 43.1719 1.35156 42.7032 1.41406 42.5625C1.53125 42.2813 1.46094 42.0157 1.16406 41.6797C0.953125 41.4453 0.9375 41.4063 1.07031 41.4063C1.40625 41.4063 1.75 40.7813 1.46875 40.6875C1.40625 40.6641 1.44531 40.5625 1.57813 40.3828C1.9375 39.8985 2.07031 39.1641 1.85938 38.8282C1.78125 38.7032 1.78906 38.6407 1.9375 38.4375C2.03906 38.3047 2.09375 38.1641 2.07031 38.125C2.04688 38.086 2.09375 37.9844 2.17969 37.8985C2.26563 37.8125 2.35156 37.586 2.38281 37.336C2.45313 36.7735 2.61719 35.9688 2.83594 35.1407C2.97656 34.6094 3.07813 34.3985 3.3125 34.1407C3.48438 33.9453 3.58594 33.7657 3.5625 33.6953C3.49219 33.5313 3.96094 32.2578 4.26563 31.7891C4.40625 31.5703 4.61719 31.1172 4.73438 30.7891C5.02344 29.9922 5.39844 29.211 5.78125 28.6016C5.95313 28.3203 6.09375 28.0235 6.09375 27.9375C6.09375 27.8438 6.23438 27.5782 6.40625 27.3438C6.6875 26.9453 7.03125 26.3047 7.03125 26.1719C7.03125 26.1407 7.14063 25.9922 7.28125 25.8516C7.41406 25.7032 7.65625 25.336 7.8125 25.0391C8.78906 23.1641 10.9531 20.0703 12.0703 18.9453C12.4531 18.5625 12.9219 18.0235 13.1094 17.7657C13.4844 17.2344 17.3516 13.4141 17.8516 13.086C18.0234 12.9688 18.3438 12.711 18.5547 12.5078C18.7734 12.3047 19.125 12 19.3359 11.836C19.5547 11.6719 20.0234 11.2813 20.3828 10.9844C20.7422 10.6797 21.3438 10.2344 21.7188 10C22.1016 9.76565 22.7031 9.37503 23.0625 9.12503C23.4141 8.88284 24.0234 8.51565 24.3984 8.31253C24.7813 8.10159 25.2266 7.82034 25.3906 7.6719C25.5625 7.53128 25.8984 7.32815 26.1484 7.21878C26.3984 7.1094 27.3047 6.66409 28.1641 6.2344C29.0234 5.80471 29.9063 5.39065 30.1172 5.31253C30.6406 5.12503 31.8672 4.5469 32.1094 4.37503C32.2188 4.2969 32.5703 4.13284 32.8828 4.00784C33.2422 3.87503 33.5156 3.71096 33.6172 3.57815C33.7969 3.33596 33.7422 3.16409 33.5078 3.28909C33.4219 3.32815 33.2891 3.35159 33.2188 3.33596C33.1172 3.31253 33.1328 3.28128 33.3047 3.20315C33.4844 3.11721 33.6094 3.1094 33.9922 3.19534C34.4375 3.28128 34.4766 3.28128 34.9766 3.05471C35.2734 2.92971 35.6484 2.80471 35.8203 2.77346C35.9922 2.74221 36.5234 2.61721 36.9922 2.49221C37.4688 2.37503 38.4844 2.14065 39.2578 1.99221C41.3203 1.57815 43.1094 1.1719 43.3359 1.07034C43.4766 1.00784 43.5156 0.937526 43.4922 0.804714C43.4531 0.593776 43.5938 0.562526 43.7188 0.757839C43.7969 0.882839 43.9453 0.898464 45.125 0.882839C45.9531 0.875026 46.6953 0.828151 47.1094 0.750026C47.5156 0.671901 48.6094 0.593776 49.9219 0.546901C51.1016 0.507839 52.2656 0.460964 52.5 0.445339C53.3359 0.390651 54.1875 0.445339 55.2344 0.617214ZM44.7656 0.625026C44.7656 0.664089 44.6797 0.703151 44.5703 0.703151C44.4609 0.703151 44.375 0.664089 44.375 0.625026C44.375 0.578151 44.4609 0.546901 44.5703 0.546901C44.6797 0.546901 44.7656 0.578151 44.7656 0.625026ZM59.4844 0.695339C59.5469 0.789089 59.0469 0.875026 58.8672 0.804714C58.7266 0.757839 58.7266 0.750026 58.875 0.695339C59.0859 0.609401 59.4375 0.609401 59.4844 0.695339ZM63.5156 1.52346C63.7969 1.6719 63.8438 1.9219 63.5781 1.83596C63.4766 1.81253 63.3594 1.78128 63.3047 1.78128C63.1953 1.76565 63.1094 1.57815 63.1719 1.47659C63.2266 1.38284 63.25 1.38284 63.5156 1.52346ZM34.6875 2.53909C34.8203 2.6094 34.9219 2.71096 34.9219 2.77346C34.9219 2.95315 34.7969 2.91409 34.5156 2.65628C34.2344 2.40628 34.3203 2.35159 34.6875 2.53909ZM68.0859 3.43753C68.1172 3.4844 68.0313 3.51565 67.8984 3.51565C67.7656 3.51565 67.6563 3.47659 67.6563 3.43753C67.6563 3.39065 67.7422 3.3594 67.8438 3.3594C67.9531 3.3594 68.0625 3.39065 68.0859 3.43753ZM32.6563 3.64065C32.6563 3.70315 32.625 3.7344 32.5781 3.71096C32.5391 3.68753 32.5 3.63284 32.5 3.58596C32.5 3.5469 32.5391 3.51565 32.5781 3.51565C32.625 3.51565 32.6563 3.57034 32.6563 3.64065ZM30.125 4.41409C30.1563 4.52346 30.1484 4.64065 30.125 4.6719C30.0547 4.7344 29.9219 4.53128 29.9219 4.35159C29.9219 4.14846 30.0703 4.19534 30.125 4.41409ZM70.5469 4.33596C70.5469 4.40628 70.5 4.42971 70.4297 4.40628C70.3672 4.37503 70.3125 4.32815 70.3125 4.28909C70.3125 4.25003 70.3672 4.21878 70.4297 4.21878C70.4922 4.21878 70.5469 4.27346 70.5469 4.33596ZM29.0625 5.30471C29.0625 5.35159 29.0313 5.40628 28.9844 5.42971C28.9453 5.45315 28.9063 5.4219 28.9063 5.3594C28.9063 5.28909 28.9453 5.2344 28.9844 5.2344C29.0313 5.2344 29.0625 5.26565 29.0625 5.30471ZM72.6172 5.70315C72.6406 5.75003 72.6094 5.80471 72.5391 5.82815C72.3906 5.89065 72.3047 5.82815 72.3828 5.71096C72.4453 5.60159 72.5547 5.60159 72.6172 5.70315ZM26.1641 6.02346C26.0391 6.10159 25.9844 6.05471 26.0547 5.94534C26.0781 5.89846 26.1406 5.88284 26.1875 5.90628C26.2344 5.93753 26.2266 5.97659 26.1641 6.02346ZM27.1953 5.93753C27.2344 5.93753 27.2656 5.96878 27.2656 6.01565C27.2656 6.05471 27.1875 6.09378 27.0938 6.09378C26.9922 6.09378 26.7969 6.16409 26.6641 6.25003C26.5234 6.33596 26.4063 6.37503 26.4063 6.33596C26.4063 6.20315 26.8984 5.85159 27.0078 5.89065C27.0703 5.9219 27.1563 5.93753 27.1953 5.93753ZM26.1719 6.67971C26.2578 6.78128 26.2266 6.7969 25.9844 6.7969C25.7109 6.7969 25.6016 6.69534 25.8047 6.61721C25.9766 6.5469 26.0703 6.56253 26.1719 6.67971ZM75.1563 7.03128C75.25 7.09378 75.2422 7.1094 75.1016 7.1094C75.0078 7.1094 74.9063 7.07034 74.8828 7.03128C74.8203 6.92971 75 6.92971 75.1563 7.03128ZM25 7.57815C25 7.61721 24.9609 7.65628 24.9141 7.65628C24.875 7.65628 24.8594 7.61721 24.8828 7.57815C24.9063 7.53128 24.9453 7.50003 24.9688 7.50003C24.9844 7.50003 25 7.53128 25 7.57815ZM82.6172 12.5C82.6406 12.5391 82.6094 12.5782 82.5469 12.5782C82.4766 12.5782 82.4219 12.5391 82.4219 12.5C82.4219 12.4532 82.4531 12.4219 82.4922 12.4219C82.5391 12.4219 82.5938 12.4532 82.6172 12.5ZM14.2188 15.2344C14.2188 15.2735 14.1875 15.3125 14.1406 15.3125C14.1016 15.3125 14.0625 15.2735 14.0625 15.2344C14.0625 15.1875 14.1016 15.1563 14.1406 15.1563C14.1875 15.1563 14.2188 15.1875 14.2188 15.2344ZM13.7031 16.211C13.6719 16.2735 13.6406 16.3282 13.625 16.3282C13.6094 16.3282 13.5938 16.2735 13.5938 16.211C13.5938 16.1485 13.625 16.0938 13.6719 16.0938C13.7109 16.0938 13.7266 16.1485 13.7031 16.211ZM6.9375 25.0078C6.92188 25.0547 6.875 25.086 6.83594 25.086C6.79688 25.086 6.75 25.0547 6.73438 25.0078C6.71875 24.961 6.76563 24.9219 6.83594 24.9219C6.90625 24.9219 6.95313 24.961 6.9375 25.0078ZM5.19531 28.4375C5.17188 28.4766 5.10938 28.5157 5.07031 28.5157C5.02344 28.5157 5.01563 28.4766 5.03906 28.4375C5.0625 28.3907 5.125 28.3594 5.16406 28.3594C5.21094 28.3594 5.21875 28.3907 5.19531 28.4375ZM3.67188 30.7813C3.67188 30.8203 3.64063 30.8594 3.59375 30.8594C3.55469 30.8594 3.51563 30.8203 3.51563 30.7813C3.51563 30.7344 3.55469 30.7032 3.59375 30.7032C3.64063 30.7032 3.67188 30.7344 3.67188 30.7813ZM3.65625 32.0469C3.61719 32.1641 3.28125 32.2344 3.28125 32.125C3.28125 32.0157 3.375 31.9532 3.53906 31.9532C3.61719 31.9532 3.67188 31.9922 3.65625 32.0469ZM1.92969 36.9688C2.14063 37.1641 2.15625 37.2657 1.97656 37.2657C1.84375 37.2657 1.48438 36.9766 1.48438 36.8594C1.48438 36.7344 1.75 36.7969 1.92969 36.9688ZM1.48438 37.7344C1.57813 37.7969 1.55469 37.8125 1.39063 37.8125C1.26563 37.8125 1.17188 37.7735 1.17188 37.7344C1.17188 37.6328 1.32813 37.6328 1.48438 37.7344ZM1.45313 38.1641C1.59375 38.2813 1.59375 38.2813 1.41406 38.2657C1.30469 38.25 1.21094 38.1953 1.1875 38.1407C1.14844 38.0078 1.26563 38.0235 1.45313 38.1641ZM1.64063 39.0547C1.69531 39.1641 1.69531 39.2266 1.63281 39.2657C1.53906 39.3203 1.40625 39.1719 1.40625 39C1.40625 38.8516 1.54688 38.8907 1.64063 39.0547ZM1.36719 40.1485C1.32031 40.1875 1.20313 40.2422 1.09375 40.2657C0.90625 40.3203 0.90625 40.3125 1.04688 40.2032C1.21094 40.0703 1.49219 40.0235 1.36719 40.1485ZM0.84375 42.2578C0.867188 42.3203 0.835938 42.3516 0.773438 42.3282C0.71875 42.3125 0.65625 42.25 0.640625 42.1953C0.617188 42.1328 0.648438 42.1016 0.710938 42.125C0.765625 42.1407 0.828125 42.2032 0.84375 42.2578ZM98.2422 43.2813C98.2656 43.3203 98.25 43.3594 98.2109 43.3594C98.1641 43.3594 98.125 43.3203 98.125 43.2813C98.125 43.2344 98.1406 43.2032 98.1563 43.2032C98.1797 43.2032 98.2188 43.2344 98.2422 43.2813ZM1.17188 57.9219C1.17188 57.9453 1.14063 57.9844 1.09375 58.0078C1.05469 58.0313 1.01563 58.0157 1.01563 57.9766C1.01563 57.9297 1.05469 57.8907 1.09375 57.8907C1.14063 57.8907 1.17188 57.9063 1.17188 57.9219ZM87.0313 81.5938C87.0313 81.6563 86.9766 81.7266 86.9063 81.75C86.7422 81.8125 86.7031 81.7735 86.7656 81.6094C86.8281 81.4532 87.0313 81.4453 87.0313 81.5938Z" fill="black"/>
<path d="M47.3438 3.31249L46.9922 3.39842L47.4609 3.42186C48.0469 3.45311 48.5156 3.37499 48.3516 3.27342C48.2109 3.18749 47.7813 3.1953 47.3438 3.31249Z" fill="black"/>
<path d="M49.1797 3.35157C48.9453 3.44532 49.7578 3.54688 50.1718 3.47657C50.4453 3.4297 50.4765 3.40626 50.3515 3.35157C50.1484 3.27345 49.3828 3.27345 49.1797 3.35157Z" fill="black"/>
<path d="M44.5703 3.59375C43.9688 3.71875 43.336 3.82031 43.1563 3.82031C42.6641 3.82812 39.9219 4.53906 38.1016 5.125C37.6406 5.28125 36.7969 5.51562 36.2266 5.66406C35.6641 5.80469 34.7578 6.07812 34.2188 6.27344C33.6797 6.46875 33.086 6.67969 32.8906 6.74219C32.4922 6.875 30.6172 7.67969 30.2969 7.85156C30.1797 7.92188 29.8438 8.0625 29.5547 8.17188C29.0469 8.35938 27.5625 9.15625 26.3281 9.90625C26.0078 10.0938 25.5313 10.375 25.2735 10.5234C24.7735 10.8047 24.2656 11.25 24.4375 11.25C24.5313 11.25 27.8047 9.53125 28.0078 9.38281C28.1094 9.30469 29.4688 8.71094 30.6875 8.20312C31.211 7.99219 32.0547 7.64062 32.5625 7.42969C33.0625 7.22656 33.9844 6.89062 34.6094 6.6875C35.2344 6.48438 36.0156 6.21094 36.3516 6.08594C36.6797 5.96094 37.4766 5.71094 38.1094 5.53906C38.7422 5.36719 39.625 5.10938 40.0781 4.96094C40.5313 4.8125 41.25 4.64062 41.6797 4.57031C42.5235 4.42969 45.5547 3.78906 46.0469 3.64844C46.2188 3.59375 46.3672 3.50781 46.3906 3.45312C46.4375 3.29688 45.7891 3.35156 44.5703 3.59375Z" fill="black"/>
<path d="M52.8906 3.50787C52.8906 3.55475 52.9219 3.60162 52.9609 3.62506C53.0625 3.68756 53.2891 3.59381 53.2344 3.50787C53.1797 3.41412 52.8906 3.41412 52.8906 3.50787Z" fill="black"/>
<path d="M54.0234 3.59377C54.0469 3.63283 54.1641 3.67189 54.2812 3.67189C54.3984 3.67189 54.7734 3.72658 55.1172 3.79689C55.9141 3.94533 57.2422 4.05471 57.5 3.98439C57.6797 3.93752 57.6641 3.92189 57.3047 3.80471C56.6641 3.58596 53.9141 3.41408 54.0234 3.59377Z" fill="black"/>
<path d="M58.2812 4.04692C58.2812 4.13286 58.4688 4.17974 59.9609 4.45317C62.0469 4.8438 63.1719 5.11724 64.375 5.51567C67.375 6.50786 68.2109 6.75786 68.3672 6.69536C68.5469 6.63286 67.5547 6.2188 66.1719 5.7813C65.4688 5.55474 64.5312 5.2188 64.0859 5.0313C63.4766 4.77349 63.0312 4.64849 62.1719 4.50005C59.6406 4.05474 58.2812 3.89849 58.2812 4.04692Z" fill="black"/>
<path d="M50.2344 5.15625C45.0469 5.60156 43.4375 5.86719 40.8203 6.71094C40.3047 6.88281 39.4609 7.125 38.9453 7.25781C38.4297 7.39062 37.2891 7.72656 36.4062 8.00781C35.5234 8.29687 34.3984 8.63281 33.9062 8.75781C33.3047 8.91406 32.8281 9.09375 32.4609 9.30469C32.1641 9.47656 31.7109 9.6875 31.4531 9.77344C30.8281 9.98437 29.5937 10.6172 28.8594 11.0937C28.5234 11.3125 27.9375 11.6406 27.5469 11.8281C26.9219 12.1328 25.9062 12.7891 24.9609 13.5156C24.7891 13.6406 24.4609 13.8672 24.2266 14.0078C23.7109 14.3125 23.6406 14.4531 23.9844 14.4531C24.25 14.4531 25.0078 14.0312 25.4141 13.6562C25.5391 13.5469 26.0156 13.25 26.4766 13C26.9297 12.75 27.6172 12.3594 28 12.1328C28.375 11.8984 29.0469 11.5312 29.4844 11.3125C29.9141 11.0937 30.3672 10.8516 30.4922 10.7656C31.5625 10.0078 35.8594 8.42969 38.75 7.72656C39.0703 7.64844 40.5 7.27344 41.9141 6.89062C45.1406 6.00781 45.9453 5.85156 48.2734 5.625C50.1641 5.44531 56.2812 5.59375 57.2812 5.84375C57.5625 5.91406 57.6562 5.89844 57.6562 5.77344C57.6562 5.6875 56.5078 5.40625 55.7734 5.3125C55.1406 5.23437 51.6406 5.07031 51.1328 5.09375C51.0078 5.10156 50.6016 5.125 50.2344 5.15625Z" fill="black"/>
<path d="M58.9844 6.0078C58.9844 6.08592 58.9766 6.08592 59.8203 6.29686C60.3672 6.42967 60.5859 6.41405 60.4219 6.24999C60.375 6.20311 60.0703 6.11717 59.7344 6.05467C59.0234 5.91405 58.9844 5.91405 58.9844 6.0078Z" fill="black"/>
<path d="M69.4297 7.07814C69.3125 7.19533 69.5547 7.41408 69.9766 7.57814C70.7578 7.89064 71.3047 8.18751 71.7344 8.53908C72.375 9.0547 72.8359 9.35939 73.25 9.52345C73.7188 9.70314 75.9531 10.9844 76.6016 11.4375C76.8594 11.625 77.1328 11.7891 77.2109 11.8203C77.4688 11.9141 77.3438 11.711 76.9766 11.461C76.7734 11.3281 76.4375 11.0703 76.2188 10.8985C76 10.7266 75.5391 10.4063 75.1953 10.1953C74.8516 9.98439 74.3594 9.64845 74.1016 9.45314C73.8438 9.25783 73.125 8.84376 72.5 8.53126C71.875 8.21095 71.2266 7.87501 71.0547 7.76564C70.8828 7.66408 70.5 7.48439 70.1953 7.37501C69.8984 7.25783 69.6094 7.13283 69.5625 7.10158C69.5156 7.06251 69.4531 7.0547 69.4297 7.07814Z" fill="black"/>
<path d="M63.4765 7.25007C63.5859 7.36725 64.5937 7.75788 65.4219 8.00007C67.2656 8.56257 70.2969 10.0469 72.2969 11.3673C73.0469 11.8594 73.875 12.3751 74.1406 12.5079C74.625 12.7657 75.0469 13.1798 75.125 13.4844C75.1484 13.5782 75.3125 13.7344 75.4922 13.8282C75.8125 14.0079 76.3672 14.4454 78.4765 16.1719C80.8828 18.1407 82.0703 19.4688 86.2109 24.8204C86.8281 25.6251 87.9922 27.5548 88.2031 28.1407C88.2969 28.4141 88.5312 28.9141 88.7187 29.2579C89.1406 30.0391 89.5547 31.0157 89.6797 31.5157C89.7265 31.7188 89.914 32.1641 90.0781 32.5079C90.4062 33.1563 90.4687 33.5391 90.2656 33.6563C90.164 33.711 90.1797 33.7423 90.375 33.8204C90.6406 33.9298 90.6953 34.0313 91.1094 35.2266C91.2734 35.7188 91.5156 36.3126 91.6406 36.5548C91.7656 36.7969 91.9297 37.2344 92 37.5391C92.0703 37.836 92.1797 38.1798 92.2344 38.2891C92.2969 38.4063 92.3203 38.6094 92.2969 38.7657C92.2656 38.9298 92.3125 39.2657 92.4141 39.6173C92.5 39.9376 92.6094 40.5313 92.6562 40.9376C92.7031 41.3438 92.8594 42.4532 93.0078 43.3985C93.1484 44.3438 93.3047 45.4298 93.3516 45.8204C93.6094 47.9688 93.6719 52.5782 93.4766 55.0782C93.3437 56.8126 93.3203 56.9219 92.8125 59.2188C92.4219 60.961 92.1406 61.8673 91.8359 62.3438C91.7344 62.5001 91.4922 63.1485 91.289 63.7969C90.8828 65.086 89.6875 68.1407 89.2422 69.0079C88.875 69.7501 88.3359 70.6876 87.8984 71.3751C87.7031 71.6876 87.3828 72.2266 87.1875 72.5782C86.5469 73.7501 85.2734 75.6016 84.6797 76.211C84.4375 76.4688 84.039 76.9766 83.8047 77.3438C83.5078 77.8126 83.2187 78.1407 82.8359 78.4532C82.539 78.7032 81.9219 79.2813 81.4687 79.7501C81.0156 80.2188 80.4219 80.7657 80.1484 80.961C79.875 81.1563 79.4609 81.5469 79.2344 81.8204C78.6484 82.5548 77.1094 83.8204 76.3594 84.2032C76.1875 84.2891 75.9922 84.422 75.9297 84.5001C75.8672 84.5782 75.4844 84.8516 75.0781 85.1173C74.6719 85.3829 74.25 85.7032 74.1406 85.8204C74.0312 85.9376 73.6953 86.172 73.3906 86.336C73.0859 86.5079 72.7734 86.711 72.6953 86.797C72.625 86.8751 72.4609 86.9688 72.3359 86.9923C72.2109 87.0235 71.8984 87.2032 71.6328 87.3985C71.3047 87.6329 70.8515 87.8595 70.2109 88.086C69.6953 88.2735 69.0859 88.5548 68.8515 88.7188C68.4453 89.0001 67.8203 89.2501 65.7422 89.9845C65.1875 90.1798 64.7109 90.3751 64.6953 90.4141C64.6094 90.6329 64.3515 90.7813 64.0547 90.7813C63.8828 90.7813 63.664 90.8204 63.5703 90.8751C63.4765 90.922 63.1406 91.0079 62.8203 91.0704C62.2578 91.1641 61.8984 91.3282 62.2265 91.3282C62.3594 91.3282 62.3672 91.3438 62.2656 91.4063C62.2031 91.4454 62.0156 91.4845 61.8594 91.4845C61.6953 91.4845 61.2422 91.586 60.8437 91.711C60.4453 91.836 59.8906 91.9532 59.6094 91.9766C59.3281 92.0001 58.8359 92.0782 58.5156 92.1407C57.6797 92.3126 56.0156 92.5704 55.2031 92.6563C54.8281 92.6954 53.9453 92.836 53.25 92.961C50.8437 93.4063 50.4219 93.461 49.9453 93.4063C49.6953 93.3751 48.4922 93.3204 47.2656 93.2813C46.0078 93.2423 44.75 93.1563 44.375 93.0938C42.4531 92.7657 41.7422 92.6173 40.7812 92.3673C40.2031 92.2188 39.5156 92.047 39.2578 91.9923C39 91.9298 38.5312 91.797 38.2109 91.6876C37.8906 91.5782 37.5547 91.4845 37.4609 91.4845C37.3672 91.4845 37.0937 91.3673 36.8515 91.2188C36.4844 91.0001 36.3359 90.9532 36 90.9532C35.664 90.961 35.4453 90.8985 34.8437 90.6095C34.3594 90.3751 33.8984 90.2188 33.5156 90.1563C32.6172 90.0157 32.0234 89.8516 31.6797 89.6563C31.5078 89.5548 30.9453 89.2345 30.4297 88.9454C29.914 88.6563 29.3515 88.3204 29.1797 88.2032C29.0078 88.0938 28.6015 87.8438 28.2812 87.6641C27.1562 87.0313 25.9219 86.1954 25.25 85.6173C24.875 85.3048 24.289 84.8126 23.9453 84.5391C23.6015 84.2657 23.1797 83.9141 23.0078 83.7501C22.8359 83.5938 22.414 83.2579 22.0703 83.0001C21.1719 82.3438 20.4844 81.6485 20.4219 81.3594C20.3828 81.1641 20.3359 81.1094 20.1719 81.1094C19.9531 81.1094 19.1797 80.336 18.4219 79.3516C18.2031 79.0626 17.9922 78.8282 17.9609 78.8282C17.8594 78.8282 16.3594 77.0704 16.0547 76.6016C15.8906 76.3438 15.5781 75.9219 15.3515 75.6641C15.125 75.4063 14.8828 75.0704 14.8047 74.9219C14.7265 74.7735 14.5312 74.4766 14.375 74.2579C14.2109 74.0469 14.0156 73.7423 13.9453 73.5938C13.7422 73.1954 12.6172 71.7579 12.3828 71.6094C12.2734 71.5391 12.1875 71.4141 12.1875 71.336C12.1875 71.2579 11.9609 70.9063 11.6797 70.5469C11.1328 69.8594 10.8359 69.3829 10.7422 69.0626C10.7109 68.9532 10.375 68.1876 9.99216 67.3594C9.60935 66.5391 9.29685 65.836 9.29685 65.8126C9.29685 65.7813 9.15623 65.5548 8.98435 65.2969C8.69529 64.8594 8.36716 64.1485 7.92966 62.9923C7.8281 62.7188 7.60154 62.2344 7.42185 61.9063C7.24998 61.5704 7.06248 61.1251 7.02341 60.9063C6.97654 60.6876 6.86716 60.2813 6.78904 60.0001C6.7031 59.7188 6.60935 59.3126 6.57029 59.1016C6.53123 58.8829 6.44529 58.5157 6.37498 58.2735C6.30466 58.0391 6.18748 57.2657 6.10154 56.5548C5.99216 55.5938 5.91404 55.1798 5.77341 54.8985C5.62498 54.5938 5.60935 54.5001 5.67966 54.3751C5.74998 54.2735 5.77341 53.3204 5.78123 51.0001C5.78904 49.2266 5.79685 47.4454 5.80466 47.0391C5.81248 46.5469 5.78904 46.2969 5.73435 46.2735C5.5781 46.2188 5.46873 46.711 5.46873 47.4141C5.46873 47.7813 5.41404 48.4219 5.35935 48.8282C5.21873 49.7579 5.06248 51.8594 5.07029 52.7188C5.0781 53.0782 5.1406 53.7813 5.21091 54.2813C5.28123 54.7813 5.33591 55.3673 5.3281 55.5782C5.32029 55.7969 5.38279 56.3204 5.46873 56.7501C5.93748 59.1719 6.19529 60.1251 6.77341 61.5313C6.91404 61.8829 7.21873 62.711 7.4531 63.3673C8.14841 65.3516 8.50779 66.2423 8.98435 67.1876C9.23435 67.6798 9.5781 68.3829 9.74216 68.7501C10.2344 69.8126 11.7969 72.4688 12.375 73.2032C12.5547 73.4376 12.8359 73.8282 12.9922 74.0626C13.8984 75.4532 15.0625 76.9376 16.0156 77.9298C16.3047 78.2266 16.8047 78.8126 17.125 79.2188C17.4453 79.6251 17.7734 80.0157 17.8515 80.0782C17.9219 80.1407 18.1953 80.4454 18.4531 80.7579C18.7109 81.0782 19.1719 81.5313 19.4765 81.7735C19.789 82.0235 20.4609 82.6251 20.9765 83.1251C21.4922 83.6173 22.2969 84.336 22.7656 84.7266C23.2265 85.1095 23.7422 85.5548 23.8984 85.711C24.0547 85.8673 24.5859 86.2657 25.0781 86.5938C25.9219 87.1485 26.2344 87.3829 27.1094 88.1173C27.3047 88.2735 27.6953 88.5157 27.9765 88.6485C28.2656 88.7813 28.8672 89.1329 29.3047 89.4298C30.5078 90.2345 32.2031 91.1016 33.8672 91.7657C34.4531 91.9923 36.9765 92.6485 37.6562 92.7423C37.9375 92.7813 38.3906 92.8516 38.6719 92.8985C38.9531 92.9376 39.6953 93.0391 40.3203 93.1251C40.9453 93.211 41.9297 93.3985 42.5078 93.5391C44.164 93.9532 44.664 94.0548 45.625 94.1407C46.6562 94.2423 50.2344 94.1954 51.5234 94.0704C52 94.0235 53.2031 93.9298 54.2109 93.8673C56.1875 93.7345 57.4765 93.5782 58.2812 93.3595C58.5625 93.2813 59.7422 92.9766 60.8984 92.672C62.0625 92.3673 63.1562 92.0704 63.3437 92.0001C63.5234 91.9376 63.9297 91.8282 64.2422 91.7579C65.8047 91.4298 66.1875 91.3204 66.5703 91.1016C66.8047 90.9766 67.4844 90.6563 68.0859 90.4063C69.4844 89.8048 72.6094 88.1798 73.5156 87.5704C73.75 87.4141 74.2265 87.1329 74.5703 86.9454C74.914 86.7657 75.3359 86.5001 75.5078 86.3595C75.6797 86.2266 76.1406 85.8907 76.5234 85.6173C77.2812 85.086 78.2656 84.2579 78.6172 83.8516C78.7344 83.7188 79.1562 83.3907 79.5547 83.1173C80.2265 82.6563 80.9687 81.9844 81.6875 81.1719C81.8594 80.9766 82.0859 80.7579 82.1953 80.6876C82.3047 80.6173 82.4375 80.4532 82.4844 80.3204C82.539 80.1876 82.6172 79.9766 82.6562 79.8594C82.7109 79.7188 82.8594 79.586 83.0703 79.4923C83.2656 79.3985 83.4922 79.1954 83.6328 79.0079C83.7578 78.8204 83.9844 78.5235 84.1172 78.3438C84.8515 77.3751 85.5937 76.3048 85.8828 75.7969C86.0625 75.4844 86.3594 75.0469 86.539 74.8282C86.7187 74.6173 87.0469 74.0782 87.2812 73.6485C87.5078 73.211 87.875 72.6016 88.0937 72.2969C88.3125 71.9844 88.5937 71.5313 88.7031 71.2813C88.8203 71.0235 89.125 70.4454 89.3828 69.9923C89.6406 69.5313 89.9531 68.8829 90.0703 68.5469C90.3125 67.8985 90.4922 67.4766 90.7422 67.0313C90.8203 66.8829 91 66.3907 91.1406 65.9376C91.2812 65.4844 91.5547 64.6563 91.7578 64.1016C91.9531 63.5391 92.1875 62.8907 92.2578 62.6563C92.3359 62.4219 92.5312 61.9219 92.6875 61.5469C92.8828 61.0704 93 60.6251 93.0859 60.0235C93.1484 59.5626 93.2734 58.9688 93.3594 58.711C93.5859 58.0391 94.0078 55.4688 94.0312 54.6876C94.0391 54.0313 94.2578 51.7266 94.3437 51.3048C94.375 51.1563 94.3437 51.0313 94.25 50.9298C94.1328 50.7969 94.1328 50.7501 94.2187 50.586C94.2969 50.4376 94.3047 50.1719 94.25 49.3985C94.1875 48.3751 94.1797 48.086 94.2109 47.1719C94.2266 46.8126 94.1953 46.6016 94.1094 46.4688C94 46.2969 93.8828 45.3594 93.6719 42.9298C93.6328 42.5001 93.5156 41.7423 93.4141 41.2501C93.3047 40.7579 93.1797 40.0157 93.125 39.6094C93.0078 38.6641 92.3281 36.4923 91.7031 35.0782C91.4453 34.5001 91.1484 33.7423 91.039 33.3985C90.9297 33.0548 90.7812 32.6485 90.6953 32.5001C90.6172 32.3516 90.4687 32.0157 90.3594 31.7579C90.0312 30.9532 88.6875 28.1329 88.3672 27.5938C88.2031 27.3048 87.8359 26.6251 87.5469 26.0782C87.2656 25.5391 86.8672 24.8673 86.664 24.5938C85.75 23.3438 85.3906 22.8985 84.9062 22.3751C84.6172 22.0626 84.289 21.6641 84.1797 21.4766C83.9219 21.0782 81.8203 18.7891 80.3281 17.2969C78.9531 15.9063 77.1562 14.3048 76.1797 13.5782C75.7656 13.2735 75.2265 12.8673 74.9765 12.6798C74.7265 12.4844 74.414 12.2969 74.2734 12.2579C74.1328 12.2188 73.8281 12.0313 73.5937 11.836C73.0156 11.3516 72.2187 10.8126 71.3594 10.3282C70.9687 10.1094 70.5937 9.85944 70.5234 9.78132C70.2656 9.49225 67.7734 8.42194 66.4844 8.04694C66.0781 7.92975 65.3594 7.70319 64.8828 7.55475C63.914 7.25007 63.3515 7.13288 63.4765 7.25007Z" fill="black"/>
<path d="M78.2812 12.5392C78.2812 12.7345 78.6016 13.1017 79.0156 13.3829C79.5078 13.711 80.4688 14.5313 82.0938 16.0157C82.9609 16.8048 83.0859 16.8985 83.2109 16.8595C83.3359 16.8204 82.8281 16.2345 82.1875 15.6954C81.8672 15.422 81.2109 14.8282 80.7344 14.3673C80.2578 13.9142 79.6797 13.3907 79.4531 13.211C79.0469 12.8907 78.2812 12.4532 78.2812 12.5392Z" fill="black"/>
<path d="M21.4844 13.0156C21.1172 13.2578 20.4532 13.7656 20 14.1328C19.5469 14.5078 18.6797 15.1953 18.0703 15.6484C17.4532 16.1172 16.7813 16.7031 16.5469 16.9766C16.3203 17.2422 15.75 17.8828 15.2735 18.3984C14.0157 19.7734 13.7578 20.0859 13.0235 21.2109C12.6641 21.7656 12.0235 22.6641 11.6094 23.1953C11.1953 23.7266 10.6953 24.4297 10.5 24.7578C10.3047 25.0859 9.79691 25.9297 9.36722 26.6406C8.36722 28.3125 6.35941 32.3047 5.89847 33.5547C5.78909 33.8516 5.59378 34.2578 5.46097 34.4609C5.33597 34.6641 5.14847 35.1484 5.03909 35.5547C4.93753 35.9609 4.72659 36.6562 4.57816 37.1094C4.27347 38.0156 4.00784 39 3.47659 41.1719C3.21097 42.2734 3.10941 42.8828 3.04691 43.7109C2.96097 44.8672 2.84378 46.2187 2.73441 47.1875C2.64847 47.8828 2.63284 51.5703 2.70316 52.2578C2.75003 52.6406 2.78128 52.7344 2.89066 52.7344C3.14066 52.7344 3.19534 52.3516 3.14847 50.9609C3.11722 49.9375 3.14847 49.2969 3.27347 48.0234C3.36722 47.1328 3.43753 46.2344 3.42972 46.0312C3.42191 45.8281 3.49222 45.4531 3.57816 45.1797C3.78128 44.6016 3.92972 43.7578 4.10159 42.3047C4.34378 40.1719 4.52347 38.9375 4.64847 38.5937C4.71878 38.3984 4.88284 37.8047 5.01566 37.2734C5.23441 36.3672 5.60941 35.3281 5.78128 35.1172C5.82816 35.0625 5.93753 34.7969 6.02347 34.5234C6.10941 34.25 6.30472 33.7969 6.43753 33.5156C6.57816 33.2344 6.71878 32.9141 6.74222 32.8047C6.81253 32.5078 7.48441 31.3281 8.46878 29.7266C8.95316 28.9531 9.57034 27.8828 9.83597 27.3437C10.1094 26.8047 10.5391 26.0703 10.7969 25.7031C11.6563 24.4609 12.2422 23.5547 12.4453 23.1641C12.5547 22.9453 12.8516 22.5 13.1172 22.1562C13.3828 21.8203 13.6719 21.4141 13.7657 21.2578C14.1172 20.6719 15.7657 18.6719 16.6328 17.7812C17.1328 17.2734 17.8125 16.6484 18.1407 16.3984C18.4688 16.1484 18.8828 15.7656 19.0625 15.5547C19.2422 15.3437 19.6094 15 19.8672 14.7891C20.1328 14.5859 20.5078 14.2734 20.7032 14.0937C20.8985 13.9141 21.3828 13.5547 21.7813 13.2891C22.1719 13.0234 22.5 12.7578 22.5 12.6953C22.5 12.4687 22.1328 12.5859 21.4844 13.0156Z" fill="black"/>
<path d="M23.125 14.8438C23.0156 14.9297 22.5469 15.2422 22.0703 15.5391C21.6016 15.836 21.125 16.1719 21.0235 16.2735C20.6953 16.6328 21.0625 16.7891 21.461 16.4532C21.5781 16.3594 21.836 16.1719 22.0313 16.0547C22.4297 15.8047 23.6172 14.8516 23.6563 14.75C23.711 14.625 23.3203 14.6953 23.125 14.8438Z" fill="black"/>
<path d="M19.7578 17.2267C18.6563 18.0938 17.4922 19.172 16.625 20.1329C15.5547 21.3282 14.5625 22.5313 14.4063 22.8204C14.3438 22.9532 13.9688 23.4923 13.586 24.0313C13.1953 24.5704 12.6797 25.3829 12.4297 25.8438C12.1797 26.3048 11.7813 26.9923 11.5469 27.3829C11.3047 27.7657 10.9297 28.4376 10.711 28.8673C10.4922 29.297 10.2032 29.8438 10.0782 30.0782C9.82034 30.547 9.71878 30.9376 9.7969 31.1485C9.88284 31.3673 10.1875 30.9376 10.7344 29.8048C11 29.2423 11.4063 28.5157 11.625 28.1798C11.8438 27.836 12.0625 27.4376 12.1016 27.2892C12.1485 27.1407 12.3203 26.797 12.4844 26.5392C12.6563 26.2735 12.8438 25.961 12.8985 25.8438C13.2813 25.1095 13.9453 24.1251 14.1563 23.9767C14.5782 23.6876 15.836 22.4298 16.4453 21.7032C16.7657 21.3204 17.125 20.922 17.2578 20.8126C17.3907 20.7032 17.5625 20.4845 17.6328 20.3282C17.711 20.172 18.1953 19.6017 18.711 19.0626C19.5078 18.2267 20.5469 16.9298 20.5469 16.7657C20.5469 16.6485 20.3594 16.7579 19.7578 17.2267Z" fill="black"/>
<path d="M83.6719 17.2344C83.6719 17.4375 84.4062 18.2812 84.5859 18.2812C84.7812 18.2812 84.6875 18.1094 84.2422 17.6484C83.8516 17.2344 83.6719 17.1016 83.6719 17.2344Z" fill="black"/>
<path d="M85 18.7422C85 18.9141 85.7344 19.8438 85.875 19.8438C86.0625 19.8438 85.8984 19.4297 85.5781 19.0703C85.25 18.7109 85 18.5625 85 18.7422Z" fill="black"/>
<path d="M86.1328 20.2344C86.0625 20.3516 86.3047 20.7031 86.4453 20.7031C86.5781 20.7031 86.5938 20.5234 86.4844 20.3047C86.3906 20.1406 86.211 20.1094 86.1328 20.2344Z" fill="black"/>
<path d="M87.8125 22.5703C87.8125 22.6797 88.1094 23.0156 88.1641 22.9609C88.2344 22.8828 88.0313 22.5 87.9141 22.5C87.8594 22.5 87.8125 22.5313 87.8125 22.5703Z" fill="black"/>
<path d="M88.4375 23.6328C88.4375 23.8125 88.8516 24.375 88.9922 24.375C89.0781 24.375 88.9375 24.0078 88.7266 23.6953C88.5234 23.3906 88.4375 23.3672 88.4375 23.6328Z" fill="black"/>
<path d="M89.1719 24.7188C89.1406 24.7969 89.2656 25.1016 89.5156 25.5313C90.3672 27.0079 91.711 29.9766 92.3594 31.7891C92.4453 32.0235 92.6563 32.7657 92.8281 33.4298C93.3828 35.6016 93.4219 35.7344 93.6172 36.2501C93.7266 36.5313 93.9063 37.1173 94.0235 37.5548C94.2344 38.336 94.3125 38.4766 94.3985 38.2501C94.5 37.9844 94.1172 35.7969 93.8281 34.961C93.7344 34.7032 93.5391 34.0235 93.3906 33.4532C93.2422 32.8829 93.0078 32.1407 92.8828 31.8126C92.75 31.4844 92.586 31.0391 92.5235 30.8204C92.461 30.6094 92.2891 30.1954 92.1406 29.9063C91.9922 29.6173 91.7344 29.0235 91.5625 28.5938C91.1641 27.586 90.9766 27.2266 90.25 26.0001C89.6094 24.9063 89.2578 24.4923 89.1719 24.7188Z" fill="black"/>
<path d="M8.60935 33.6172C8.28904 34.0157 7.93747 34.9532 7.10154 37.6563C6.38279 39.9688 6.27341 40.4219 6.17185 41.4453C6.12497 41.9219 6.03904 42.6563 5.98435 43.086C5.86716 43.9453 5.91404 44.2032 6.12497 43.8985C6.19529 43.7969 6.24997 43.5938 6.24997 43.4375C6.24997 43.2891 6.30466 42.9844 6.36716 42.7735C6.43747 42.5547 6.59372 41.7344 6.72654 40.9375C6.85154 40.1407 7.03122 39.3047 7.10935 39.0782C7.19529 38.8438 7.33591 38.3516 7.42185 37.9844C7.59372 37.2344 8.42185 34.7891 8.67185 34.3047C8.83591 33.9766 8.87497 33.6328 8.75779 33.5625C8.71872 33.5391 8.65622 33.5625 8.60935 33.6172Z" fill="black"/>
<path d="M94.3516 38.9297C94.2891 39.1016 94.3672 39.2969 94.4922 39.2969C94.6719 39.2969 94.6953 39.1641 94.5469 38.9844C94.4219 38.8281 94.3985 38.8203 94.3516 38.9297Z" fill="black"/>
<path d="M5.77341 44.7344C5.64841 44.8907 5.5781 45.6641 5.68748 45.7344C5.73435 45.7657 5.86716 45.625 5.98435 45.4297C6.16404 45.1094 6.17966 45.0469 6.09373 44.8438C5.98435 44.5782 5.92185 44.5547 5.77341 44.7344Z" fill="black"/>
<path d="M95.6406 47.4219C95.6406 48.5157 95.6172 49.5391 95.5938 49.6876C95.5625 49.836 95.4922 50.8907 95.4297 52.0313C95.3203 53.9844 95.125 55.5938 94.8125 57.0313C94.75 57.3126 94.6406 57.9454 94.5703 58.4376C94.375 59.8438 93.8438 62.2891 93.5156 63.3204C93.3516 63.836 93.1328 64.5548 93.0391 64.9219C92.8047 65.8126 91.5547 68.9219 90.9609 70.1094C90.8047 70.4141 90.4844 70.9766 90.2344 71.3673C89.9922 71.7501 89.7109 72.2266 89.6094 72.4141C89.4219 72.7969 87.6406 75.3985 86.6641 76.7266C84.7969 79.2813 84.4375 79.6954 81.9531 82.1954C79.2734 84.8907 77.2813 86.6329 75.7422 87.6329C75.0156 88.1094 74.2969 88.6641 74.2969 88.7579C74.2969 88.8907 74.5547 88.8282 74.9922 88.5782C75.4922 88.2891 77.5625 86.8438 78.4375 86.1641C78.7578 85.9141 79.2969 85.5079 79.6328 85.2657C79.9609 85.0235 81.0391 84.0313 82.0234 83.0626C83.0078 82.086 84.1484 80.9688 84.5547 80.586C84.9609 80.1954 85.3906 79.7266 85.5078 79.5469C85.6172 79.3594 85.9688 78.8751 86.2734 78.4766C87.25 77.211 88.1016 75.9923 88.3203 75.5469C88.4375 75.3126 88.7344 74.836 88.9844 74.4923C89.2266 74.1485 89.5078 73.7266 89.5938 73.5548C89.6797 73.3829 90.0156 72.9141 90.3438 72.5079C90.7188 72.0391 90.9844 71.6251 91.0625 71.3751C91.1328 71.1563 91.5234 70.3282 91.9297 69.5391C92.3281 68.7501 92.6563 68.0548 92.6563 68.0079C92.6563 67.9532 92.7422 67.7579 92.8438 67.5704C93.2969 66.7501 93.9609 64.4063 94.4453 61.9141C94.5781 61.2657 94.7891 60.4063 94.9297 60.0001C95.1094 59.4532 95.2031 58.9766 95.2734 58.2032C95.3281 57.6251 95.4688 56.7266 95.5859 56.211C95.7578 55.4454 95.8047 54.9376 95.8672 53.4376C95.9141 52.4298 95.9453 51.2969 95.9375 50.9219C95.9297 50.4376 95.9688 50.1173 96.0703 49.8282C96.2734 49.2266 96.2422 47.9688 95.9922 46.7579C95.6563 45.1798 95.6328 45.2266 95.6406 47.4219Z" fill="black"/>
<path d="M2.86721 53.1797C2.78127 53.2578 2.80471 53.5156 2.89065 53.5156C2.93752 53.5156 2.96877 53.4297 2.96877 53.3203C2.96877 53.1172 2.95315 53.0938 2.86721 53.1797Z" fill="black"/>
<path d="M3.04688 56.2892C3.04688 56.6876 3.27344 58.0392 3.375 58.2267C3.46094 58.3907 3.46875 58.3829 3.52344 58.086C3.59375 57.6485 3.375 56.4845 3.17188 56.211C3.05469 56.0626 3.05469 56.0626 3.04688 56.2892Z" fill="black"/>
<path d="M3.54686 59.1875C3.57029 59.2578 3.59373 59.3281 3.59373 59.3438C3.59373 59.3672 3.62498 59.3672 3.67186 59.336C3.75779 59.2813 3.68748 59.0625 3.57811 59.0625C3.53123 59.0625 3.52342 59.1172 3.54686 59.1875Z" fill="black"/>
<path d="M4.60938 62.6876C4.60938 62.8047 4.75 62.9297 4.8125 62.8672C4.86719 62.8126 4.75781 62.5782 4.67969 62.5782C4.64063 62.5782 4.60938 62.6251 4.60938 62.6876Z" fill="black"/>
<path d="M4.96094 63.5704C5.05469 64.1095 5.47656 65.422 5.70313 65.8595C5.82813 66.0939 6.03906 66.5704 6.17188 66.9142C6.30469 67.2579 6.50781 67.6954 6.61719 67.8907C6.96875 68.4923 7.625 69.8204 7.77344 70.211C7.85156 70.4142 8.13281 70.9376 8.39844 71.3673C8.65625 71.797 9.04688 72.4923 9.25 72.9142C9.88281 74.1876 10.9141 75.6798 11.6094 76.297C11.9375 76.5939 12.2734 76.9767 12.3594 77.1485C12.8281 78.0704 14.9141 80.6017 15.7969 81.3282C15.9531 81.461 16.4531 82.0314 16.8984 82.6017C17.7813 83.7189 18.2109 84.1564 18.9609 84.7423C19.2188 84.9454 19.7656 85.3907 20.1719 85.7189C21.8281 87.086 22.0938 87.2892 22.5703 87.5548C22.8438 87.711 23.3281 88.0548 23.6406 88.3204C24.0078 88.6407 24.5625 88.9923 25.2188 89.3204C25.7734 89.6017 26.5156 90.0079 26.8672 90.2267C27.25 90.461 27.8594 90.7345 28.3828 90.9064C29.3125 91.211 29.8438 91.4532 30.3516 91.7892C30.5234 91.9064 30.8594 92.0782 31.0938 92.1642C32.1328 92.5626 32.6094 92.7735 33.7266 93.3282C34.7031 93.8126 35.0859 93.9532 35.875 94.1407C36.4063 94.2657 37.1719 94.4689 37.5781 94.5939C38.1953 94.7892 39.6016 95.1485 40.1953 95.2735C40.2813 95.2892 40.8125 95.3595 41.3672 95.4298C41.9297 95.4923 42.7266 95.6095 43.1406 95.6798C43.8672 95.8048 43.9297 95.8048 44.4766 95.6642C44.9766 95.5392 45.1172 95.5314 45.6328 95.6173C47.0391 95.8439 47.5781 95.8829 49.4531 95.8907C51.7969 95.8985 53.8281 95.7345 57.1875 95.2735C57.9375 95.1642 58.8828 95.047 59.2734 95.0079C59.9453 94.9376 60.4063 94.8204 61.9531 94.336C62.2734 94.2345 62.7656 94.1095 63.0469 94.0626C63.5391 93.9767 63.7891 93.9142 65 93.6017C65.9688 93.3517 68.2656 92.5314 68.5781 92.3204C68.7422 92.2189 69.2422 91.9454 69.6953 91.7267C70.9844 91.1017 71.5703 90.7657 72.1563 90.336C72.4531 90.1173 72.8906 89.8517 73.125 89.7423C73.3672 89.6251 73.6563 89.4298 73.7813 89.3048C73.9922 89.086 73.9922 89.0704 73.8516 88.9923C73.7188 88.9298 73.3047 89.1095 71.4375 90.0235C70.1953 90.6329 68.7578 91.2892 68.2422 91.4767C67.7266 91.6642 66.7109 92.047 65.9766 92.3282C64.625 92.8439 62.5781 93.3985 61.0156 93.6642C60.5625 93.7501 60.1094 93.8439 60 93.8907C59.5234 94.0782 57.7891 94.3282 52.9297 94.9298C51.8906 95.0548 47.7578 95.1017 46.1719 95.0079C43.6484 94.8595 41.3828 94.5782 39.8047 94.2345C37.9297 93.8204 34.1094 92.5939 30.8984 91.3673C27.3125 90.0079 25.8359 89.2189 23.5078 87.4532C21.0234 85.5626 18.9297 83.6798 16.4844 81.1329C15.9844 80.6173 15.3281 79.9532 15.0156 79.6485C14.7109 79.3517 14.3594 78.9689 14.2422 78.8048C14.1172 78.6329 13.7734 78.1954 13.4688 77.8282C12.5625 76.711 9.78906 72.6251 9.33594 71.7189C9.19531 71.4376 8.88281 70.8907 8.64844 70.5079C8.08594 69.5782 6.375 66.0626 6.16406 65.4064C6.07031 65.1173 5.92188 64.7423 5.83594 64.5704C5.59375 64.086 5.0625 63.2814 4.98438 63.2814C4.94531 63.2814 4.9375 63.4142 4.96094 63.5704Z" fill="black"/>
<path d="M71.3828 89.0392C71.3516 89.0626 71.3281 89.1563 71.3281 89.2345C71.3281 89.4142 71.5781 89.422 71.7266 89.2501C71.8047 89.1485 71.8047 89.1173 71.7109 89.0548C71.5781 88.9767 71.4531 88.9688 71.3828 89.0392Z" fill="black"/>
<path d="M41.4844 0.3125C41.3906 0.375 41.4141 0.390625 41.5859 0.390625C41.711 0.390625 41.7891 0.359375 41.7578 0.3125C41.6953 0.21875 41.6328 0.21875 41.4844 0.3125Z" fill="black"/>
<path d="M97.1485 65.1562C97.0938 65.25 97.2344 65.4688 97.3516 65.4688C97.461 65.4688 97.4297 65.2656 97.3125 65.1641C97.2344 65.0937 97.1875 65.0937 97.1485 65.1562Z" fill="black"/>
</g>
<defs>
<clipPath id="clip0_13_93">
<rect width="99.2188" height="100" fill="white"/>
</clipPath>
</defs>
</svg>
