<svg width="52" height="52" viewBox="0 0 52 52" fill="none" xmlns="http://www.w3.org/2000/svg">
<mask id="mask0_4_25" style="mask-type:alpha" maskUnits="userSpaceOnUse" x="0" y="0" width="52" height="52">
<rect width="52" height="52" fill="#D9D9D9"/>
</mask>
<g mask="url(#mask0_4_25)">
<path d="M8.66665 32.5C7.47498 32.5 6.45484 32.0757 5.60623 31.2271C4.75762 30.3785 4.33331 29.3583 4.33331 28.1666V8.66665C4.33331 7.47498 4.75762 6.45484 5.60623 5.60623C6.45484 4.75762 7.47498 4.33331 8.66665 4.33331H28.1666C29.3583 4.33331 30.3785 4.75762 31.2271 5.60623C32.0757 6.45484 32.5 7.47498 32.5 8.66665V28.1666C32.5 29.3583 32.0757 30.3785 31.2271 31.2271C30.3785 32.0757 29.3583 32.5 28.1666 32.5H8.66665ZM17.3333 24.375L14.7333 20.8L10.8333 26H26L21.0166 19.5L17.3333 24.375ZM36.8333 47.6666C35.0278 47.6666 33.493 47.0347 32.2291 45.7708C30.9653 44.5069 30.3333 42.9722 30.3333 41.1666C30.3333 39.3611 30.9653 37.8264 32.2291 36.5625C33.493 35.2986 35.0278 34.6666 36.8333 34.6666C37.2305 34.6666 37.6007 34.7028 37.9437 34.775C38.2868 34.8472 38.6389 34.9375 39 35.0458V23.8333H47.6666V28.1666H43.3333V41.1666C43.3333 42.9722 42.7014 44.5069 41.4375 45.7708C40.1736 47.0347 38.6389 47.6666 36.8333 47.6666Z" fill="white"/>
</g>
</svg>
