<svg width="40" height="40" viewBox="0 0 40 40" fill="none" xmlns="http://www.w3.org/2000/svg">
<rect width="40" height="40" rx="20" fill="white"/>
<path d="M31 11.0383C30.0424 11.7137 28.9821 12.2304 27.86 12.5683C27.2577 11.8758 26.4573 11.3849 25.567 11.1622C24.6767 10.9394 23.7395 10.9954 22.8821 11.3227C22.0247 11.65 21.2884 12.2327 20.773 12.992C20.2575 13.7513 19.9877 14.6506 20 15.5683V16.5683C18.2426 16.6138 16.5013 16.2241 14.931 15.4337C13.3607 14.6433 12.0103 13.4769 11 12.0383C11 12.0383 7 21.0383 16 25.0383C13.9405 26.4362 11.4872 27.1372 9 27.0383C18 32.0383 29 27.0383 29 15.5383C28.9991 15.2597 28.9723 14.9818 28.92 14.7083C29.9406 13.7017 30.6608 12.431 31 11.0383Z" fill="black" stroke="black" stroke-width="2" stroke-linecap="round" stroke-linejoin="round"/>
</svg>
